<?xml version="1.0" encoding="utf-8"?>
<!-- Generator: Adobe Illustrator 27.8.1, SVG Export Plug-In . SVG Version: 6.00 Build 0)  -->
<svg version="1.1" id="分離模式" xmlns="http://www.w3.org/2000/svg" xmlns:xlink="http://www.w3.org/1999/xlink" x="0px"
	 y="0px" viewBox="0 0 493.6 941.9" style="enable-background:new 0 0 493.6 941.9;" xml:space="preserve">
<style type="text/css">
	.st0{display:none;}
	.st1{display:inline;}
	.st2{fill:#FFFFFF;}
	.st3{fill:#221E1F;}
	.st4{display:inline;fill:#221E1F;}
	.st5{fill:#4FAF49;}
	.st6{display:none;fill:#221E1F;}
</style>
<g id="_x31_8" class="st0">
	<g class="st1">
		<g>
			<polygon class="st2" points="217.7,507 230.4,500.2 254.5,512.5 480.9,546.6 480.9,741.7 348.7,812.4 98.3,684.1 98.3,489 			"/>
			<path d="M348.7,820.5c-1.3,0-2.5-0.3-3.7-0.9L94.6,691.3c-2.7-1.4-4.4-4.2-4.4-7.2V489c0-2.4,1-4.6,2.8-6.2
				c1.8-1.5,4.2-2.2,6.5-1.9l116.7,17.6l10.4-5.5c2.3-1.3,5.2-1.3,7.5-0.1l23,11.8l225,33.9c4,0.6,6.9,4,6.9,8v195.1
				c0,3-1.7,5.7-4.3,7.2l-132.1,70.7C351.4,820.2,350,820.5,348.7,820.5z M106.4,679.1l242.2,124.1l124.1-66.4V553.6l-219.4-33
				c-0.9-0.1-1.7-0.4-2.5-0.8l-20.4-10.4l-9,4.8c-1.5,0.8-3.3,1.1-5,0.9l-110.1-16.6V679.1z"/>
		</g>
		<g>
			<polygon class="st2" points="230.4,418.3 480.9,546.6 348.7,617.3 98.3,489 			"/>
			<path d="M348.7,625.4c-1.3,0-2.5-0.3-3.7-0.9L94.6,496.2c-2.7-1.4-4.4-4.1-4.4-7.2c0-3,1.6-5.8,4.3-7.2l132.1-70.7
				c2.3-1.3,5.2-1.3,7.5-0.1l250.5,128.3c2.7,1.4,4.4,4.1,4.4,7.2c0,3-1.6,5.8-4.3,7.2l-132.1,70.7
				C351.4,625.1,350,625.4,348.7,625.4z M115.8,488.8l232.9,119.3l114.7-61.4L230.5,427.5L115.8,488.8z"/>
		</g>
		<g>
			<g>
				<path class="st2" d="M406.8,537.4l-161.2-82.6c-2.8,5.5-8.4,9.2-15,9.2c-6.5,0-12-3.7-14.9-9l-43.9,23.5
					c1.7,3.1,2.8,6.6,2.8,10.4c0,3.4-0.8,6.5-2.2,9.3l161.2,82.6c2.8-5.5,8.4-9.3,15.1-9.3c6.4,0,11.9,3.6,14.8,8.9l43.5-23.3
					c-1.6-3-2.6-6.4-2.6-10.1C404.4,543.5,405.3,540.3,406.8,537.4z"/>
				<path d="M333.7,589c-1.3,0-2.5-0.3-3.7-0.9l-161.2-82.6c-3.9-2-5.5-6.8-3.6-10.8c0.9-1.9,1.4-3.8,1.4-5.7c0-2.2-0.6-4.3-1.8-6.4
					c-1.1-1.9-1.3-4.2-0.7-6.3c0.6-2.1,2-3.9,4-4.9l43.9-23.5c3.9-2.1,8.9-0.6,11,3.3c1.6,2.9,4.5,4.7,7.7,4.7
					c3.3,0,6.2-1.8,7.8-4.8c2.1-4,6.9-5.6,10.9-3.5l161.2,82.6c4,2,5.6,6.9,3.5,10.9c-1,2-1.5,4-1.5,6c0,2.1,0.6,4.2,1.7,6.2
					c1,1.9,1.3,4.1,0.6,6.2c-0.6,2.1-2,3.8-3.9,4.8l-43.5,23.3c-3.9,2.1-8.8,0.6-11-3.3c-1.6-2.9-4.5-4.6-7.7-4.6
					c-3.3,0-6.3,1.9-7.8,4.9c-1,1.9-2.7,3.4-4.7,4.1C335.4,588.9,334.5,589,333.7,589z M182.3,494.2l148.9,76.3
					c4.6-4.5,10.8-7.1,17.4-7.1c6.4,0,12.4,2.4,16.9,6.7l31.4-16.8c-0.5-2.1-0.7-4.2-0.7-6.3c0-1.9,0.2-3.8,0.6-5.6L248,465.1
					c-4.6,4.5-10.7,7-17.3,7c-6.4,0-12.4-2.5-17-6.7l-31.6,16.9c0.5,2.2,0.8,4.4,0.8,6.6C182.8,490.8,182.7,492.5,182.3,494.2z"/>
			</g>
		</g>
		<g>
			<path class="st2" d="M348.7,617.3v154.4V617.3z"/>
			<path d="M348.7,779.9c-4.5,0-8.1-3.6-8.1-8.1V617.3c0-4.5,3.6-8.1,8.1-8.1c4.5,0,8.1,3.6,8.1,8.1v154.4
				C356.8,776.2,353.2,779.9,348.7,779.9z"/>
		</g>
		<g>
			<polygon class="st2" points="313.1,460.7 181,531.2 181,726.5 262.5,768.2 262.5,573.1 394.6,502.4 			"/>
			<path d="M262.5,776.3c-1.3,0-2.5-0.3-3.7-0.9l-81.5-41.7c-2.7-1.4-4.4-4.2-4.4-7.2V531.2c0-3,1.7-5.8,4.3-7.2l132.1-70.6
				c2.3-1.3,5.2-1.3,7.5-0.1l81.5,41.8c2.7,1.4,4.4,4.1,4.4,7.2c0,3-1.6,5.8-4.3,7.2L270.6,578v190.2c0,2.8-1.5,5.5-3.9,6.9
				C265.4,775.9,264,776.3,262.5,776.3z M189.1,721.5l65.2,33.4V573.1c0-3,1.7-5.7,4.3-7.2l118.5-63.4l-63.9-32.8l-124,66.3V721.5z"
				/>
		</g>
		<g>
			<path class="st2" d="M481,597.5l-73.9,39.6L481,597.5z"/>
			<path d="M407.1,645.2c-2.9,0-5.7-1.6-7.2-4.3c-2.1-4-0.6-8.9,3.3-11l73.9-39.6c3.9-2.1,8.9-0.6,11,3.3c2.1,4,0.6,8.9-3.3,11
				l-73.9,39.6C409.7,644.9,408.4,645.2,407.1,645.2z"/>
		</g>
	</g>
	<g class="st1">
		<g>
			<path class="st2" d="M274.9,941.9c-3.8,0-7.6-0.9-11.1-2.7L13.4,810.9c-8.1-4.2-13.3-12.6-13.3-21.7V687.7c0-9,5-17.3,12.9-21.5
				l132.1-70.7c3.6-1.9,7.5-2.9,11.5-2.9c3.8,0,7.6,0.9,11.1,2.7l250.5,128.3c8.1,4.2,13.3,12.6,13.3,21.7v101.5
				c0,9-5,17.3-12.9,21.5l-132.1,70.7C282.8,941,278.9,941.9,274.9,941.9z"/>
		</g>
		<g>
			<polygon class="st2" points="143.9,705.7 156.6,698.9 180.8,711.3 407.1,745.4 407.1,846.9 274.9,917.6 24.5,789.2 24.5,687.7 
							"/>
			<path d="M274.9,925.7c-1.3,0-2.5-0.3-3.7-0.9L20.8,796.5c-2.7-1.4-4.4-4.2-4.4-7.2V687.7c0-2.4,1-4.6,2.8-6.2
				c1.8-1.5,4.2-2.2,6.5-1.9l116.7,17.6l10.4-5.5c2.3-1.3,5.2-1.3,7.5-0.1l23,11.8l225,33.9c4,0.6,6.9,4,6.9,8v101.5
				c0,3-1.7,5.7-4.3,7.2l-132.1,70.7C277.6,925.4,276.2,925.7,274.9,925.7z M32.6,784.3l242.2,124.1L398.9,842v-89.6l-219.4-33
				c-0.9-0.1-1.7-0.4-2.5-0.8l-20.4-10.4l-9,4.8c-1.5,0.8-3.3,1.1-5,0.9L32.6,697.2V784.3z"/>
		</g>
		<g>
			<polygon class="st2" points="156.6,617 407.1,745.4 274.9,816 24.5,687.7 			"/>
			<path d="M274.9,824.2c-1.3,0-2.5-0.3-3.7-0.9L20.8,695c-2.7-1.4-4.4-4.1-4.4-7.2c0-3,1.6-5.8,4.3-7.2l132.1-70.7
				c2.3-1.3,5.2-1.3,7.5-0.1l250.5,128.3c2.7,1.4,4.4,4.1,4.4,7.2c0,3-1.6,5.8-4.3,7.2l-132.1,70.7
				C277.6,823.9,276.2,824.2,274.9,824.2z M42,687.6l232.9,119.3l114.7-61.4L156.7,626.2L42,687.6z"/>
		</g>
		<g>
			<g>
				<path class="st2" d="M333,736.1l-161.2-82.6c-2.8,5.5-8.4,9.2-15,9.2c-6.5,0-12-3.7-14.9-9l-43.9,23.5c1.7,3.1,2.8,6.6,2.8,10.4
					c0,3.4-0.8,6.5-2.2,9.3l161.2,82.6c2.8-5.5,8.4-9.3,15.1-9.3c6.4,0,11.9,3.6,14.8,8.9l43.5-23.3c-1.6-3-2.6-6.4-2.6-10.1
					C330.6,742.3,331.5,739,333,736.1z"/>
				<path d="M259.9,787.8c-1.3,0-2.5-0.3-3.7-0.9L95,704.3c-3.9-2-5.5-6.8-3.6-10.8c0.9-1.9,1.4-3.8,1.4-5.7c0-2.2-0.6-4.3-1.8-6.4
					c-1.1-1.9-1.3-4.2-0.7-6.3c0.6-2.1,2-3.9,4-4.9l43.9-23.5c3.9-2.1,8.9-0.6,11,3.3c1.6,2.9,4.5,4.7,7.7,4.7
					c3.3,0,6.2-1.9,7.8-4.8c2-4,6.9-5.6,10.9-3.5l161.2,82.6c4,2,5.6,6.9,3.5,10.9c-1,2-1.5,4-1.5,5.9c0,2.1,0.6,4.2,1.7,6.2
					c1,1.9,1.3,4.1,0.6,6.2c-0.6,2.1-2,3.8-3.9,4.8l-43.5,23.3c-3.9,2.1-8.8,0.6-11-3.3c-1.6-2.9-4.5-4.6-7.7-4.6
					c-3.3,0-6.3,1.9-7.8,4.9c-1,1.9-2.7,3.4-4.7,4.1C261.6,787.6,260.7,787.8,259.9,787.8z M108.5,693l148.9,76.3
					c4.6-4.5,10.8-7.1,17.4-7.1c6.4,0,12.4,2.4,16.9,6.7l31.4-16.8c-0.5-2.1-0.7-4.1-0.7-6.3c0-1.9,0.2-3.8,0.6-5.6l-148.9-76.3
					c-4.6,4.5-10.7,7-17.3,7c-6.4,0-12.5-2.5-17-6.7l-31.6,16.9c0.5,2.2,0.8,4.4,0.8,6.6C109,689.5,108.9,691.2,108.5,693z"/>
			</g>
		</g>
		<g>
			<path class="st2" d="M274.9,816v60.9V816z"/>
			<path d="M274.9,885c-4.5,0-8.1-3.6-8.1-8.1v-60.9c0-4.5,3.6-8.1,8.1-8.1c4.5,0,8.1,3.6,8.1,8.1v60.9
				C283,881.4,279.4,885,274.9,885z"/>
		</g>
		<g>
			<polygon class="st2" points="239.3,659.4 107.2,730 107.2,831.6 188.7,873.4 188.7,771.9 320.8,701.2 			"/>
			<path d="M188.7,881.5c-1.3,0-2.5-0.3-3.7-0.9l-81.5-41.7c-2.7-1.4-4.4-4.2-4.4-7.2V730c0-3,1.7-5.8,4.3-7.2l132.1-70.6
				c2.3-1.3,5.2-1.3,7.5-0.1l81.5,41.8c2.7,1.4,4.4,4.1,4.4,7.2c0,3-1.6,5.8-4.3,7.2l-127.9,68.4v96.6c0,2.8-1.5,5.5-3.9,6.9
				C191.6,881.1,190.2,881.5,188.7,881.5z M115.3,826.7l65.2,33.4v-88.2c0-3,1.7-5.7,4.3-7.2l118.5-63.4l-63.9-32.8l-124,66.3V826.7
				z"/>
		</g>
		<g>
			<path class="st2" d="M348.9,808.4l-73.9,39.6L348.9,808.4z"/>
			<path d="M274.9,856c-2.9,0-5.7-1.6-7.2-4.3c-2.1-4-0.6-8.9,3.3-11l73.9-39.6c4-2.1,8.9-0.6,11,3.3c2.1,4,0.6,8.9-3.3,11
				l-73.9,39.6C277.5,855.7,276.2,856,274.9,856z"/>
		</g>
	</g>
</g>
<g class="st0">
	<g class="st1">
		
			<ellipse transform="matrix(0.7071 -0.7071 0.7071 0.7071 -145.07 241.2249)" class="st2" cx="218.6" cy="295.7" rx="72.8" ry="72.8"/>
		<g>
			<path class="st3" d="M288,295.7c0,14.5-4.5,28.6-12.9,40.4c-8,11.3-19.6,20.1-32.6,24.8c-13.7,4.9-28.7,5.5-42.6,1.6
				c-13.6-3.8-25.7-11.9-34.7-22.7c-18.5-22.3-20.7-55-5.8-79.8c15-24.8,44.8-38.1,73.3-32.2c13.8,2.8,26.4,9.8,36.1,19.9
				c9.9,10.3,16.3,23.4,18.6,37.5C287.8,288.6,288,292.2,288,295.7c0,4.5,7,4.5,7,0c-0.1-15.8-4.9-31.4-14.2-44.3
				c-9-12.5-21.6-22.1-36.1-27.5c-29.9-11-64.7-1.4-84.9,23.2c-10,12.2-16,27-17.2,42.7c-1.3,15.8,2.6,32,10.9,45.5
				c7.9,12.9,19.7,23.5,33.6,29.8c14.7,6.6,31.1,8.5,46.8,5.3c30.7-6.1,55.4-31.8,60.1-62.8c0.6-4,0.9-8,1-12
				C295,291.2,288,291.2,288,295.7z"/>
		</g>
	</g>
	<g class="st1">
		<path class="st3" d="M269.9,295.7c-0.1,21.2-13.5,40.9-33.6,48.1c-20.4,7.4-43.4,1.1-57.3-15.6c-13.7-16.5-15.3-40.7-4.3-58.9
			c11-18.3,33-28.2,54-23.9c21,4.3,37.3,21.4,40.7,42.6C269.8,290.6,269.9,293.1,269.9,295.7c0,4.5,7,4.5,7,0
			c-0.1-24.3-15.5-46.2-38.2-54.7c-22.7-8.4-49.4-1.2-64.8,17.6c-15.5,18.9-17.8,46.2-5,67.2c12.7,20.9,37.6,31.7,61.5,26.9
			c23.3-4.6,42.2-24.2,45.8-47.7c0.5-3.1,0.8-6.2,0.8-9.3C276.9,291.2,269.9,291.2,269.9,295.7z"/>
	</g>
	<path class="st4" d="M216,319.8c-2.3-0.2-4.4-0.7-6.1-1.4c-1.8-0.7-3.3-1.7-4.5-2.8c-1.2-1.1-2.2-2.5-2.9-3.9
		c-0.7-1.5-1.2-3.1-1.5-4.8h6.3c0.2,1,0.6,2,1.1,2.9c0.5,0.9,1.3,1.7,2.2,2.4c0.9,0.7,2,1.2,3.4,1.6c1.3,0.4,2.9,0.6,4.8,0.6
		c1.9,0,3.5-0.2,5-0.6c1.4-0.4,2.6-0.9,3.6-1.6c1-0.7,1.7-1.5,2.2-2.4c0.5-0.9,0.7-1.9,0.7-3c0-1.3-0.2-2.4-0.6-3.3
		c-0.4-0.9-1.1-1.7-2.1-2.4c-1-0.7-2.3-1.3-4-1.8c-1.6-0.5-3.6-1.1-6-1.6c-2.6-0.6-4.9-1.2-6.8-1.9c-1.9-0.7-3.5-1.6-4.7-2.6
		c-1.2-1.1-2.1-2.3-2.8-3.8c-0.6-1.5-0.9-3.3-0.9-5.4c0-1.6,0.3-3,0.9-4.4c0.6-1.4,1.5-2.6,2.7-3.7c1.2-1.1,2.6-2,4.3-2.7
		c1.7-0.7,3.6-1.2,5.7-1.4v-6.2h5.6v6.2c2,0.3,3.8,0.8,5.3,1.5c1.5,0.7,2.9,1.6,4,2.7c1.1,1.1,2,2.3,2.6,3.7
		c0.6,1.4,1.1,2.8,1.4,4.4h-6.3c-0.2-0.9-0.6-1.8-1-2.7c-0.4-0.8-1.1-1.5-1.8-2.1c-0.8-0.6-1.7-1.1-2.9-1.4
		c-1.1-0.4-2.5-0.5-4.1-0.5c-1.6,0-3,0.2-4.3,0.5c-1.3,0.4-2.3,0.8-3.2,1.4c-0.9,0.6-1.5,1.3-2,2.1c-0.4,0.8-0.7,1.7-0.7,2.7
		c0,1.2,0.2,2.2,0.7,3.1c0.4,0.9,1.1,1.6,2.1,2.2c0.9,0.6,2.1,1.2,3.6,1.7c1.5,0.5,3.2,1,5.2,1.4c2.9,0.6,5.4,1.3,7.5,2.1
		c2.1,0.8,3.8,1.8,5.1,2.9c1.3,1.1,2.3,2.4,2.9,3.9c0.6,1.5,0.9,3.3,0.9,5.4c0,1.7-0.3,3.3-1,4.8c-0.7,1.5-1.6,2.8-2.9,3.9
		c-1.3,1.1-2.8,2.1-4.7,2.8c-1.9,0.7-4,1.2-6.3,1.4v7.5H216V319.8z"/>
</g>
<g class="st0">
	<g class="st1">
		<ellipse class="st5" cx="217.2" cy="410" rx="37.5" ry="70.5"/>
		<g>
			<path class="st3" d="M222.4,566.7c0-4.7,0-9.5,0-14.2c0-11.4,0-22.8,0-34.2c0-13.7,0-27.5,0-41.2c0-11.9,0-23.8,0-35.6
				c0-5.8,0.3-11.6,0-17.4c0-0.1,0-0.2,0-0.2c0-3.8-8.1-3.8-8.1,0c0,4.7,0,9.5,0,14.2c0,11.4,0,22.8,0,34.2c0,13.7,0,27.5,0,41.2
				c0,11.9,0,23.8,0,35.6c0,5.8-0.3,11.6,0,17.4c0,0.1,0,0.2,0,0.2C214.3,570.5,222.4,570.5,222.4,566.7L222.4,566.7z"/>
		</g>
		<g>
			<g>
				<path class="st2" d="M410.7,550.8H26c-12.1,0-22,9.8-22,22V630c0,12.1,9.8,22,22,22h10.1l10.6,82l18.7,144.5
					c4.4,33.9,33.3,59.3,67.5,59.3h170.9c34.2,0,63.1-25.4,67.5-59.3L400.6,652h10.1c12.1,0,22-9.8,22-22v-57.2
					C432.6,560.7,422.8,550.8,410.7,550.8z"/>
				<g>
					<path class="st3" d="M410.7,546.8c-5.5,0-11,0-16.5,0c-14.4,0-28.7,0-43.1,0c-20.4,0-40.9,0-61.3,0c-23.3,0-46.7,0-70,0
						c-23.5,0-47,0-70.6,0c-20.5,0-41,0-61.5,0c-14.7,0-29.5,0-44.2,0c-5.9,0-11.7-0.1-17.6,0c-14.6,0.2-26,12-26,26.5
						c0,8.6,0,17.2,0,25.8c0,9.7,0,19.3,0,29c0,4.8,0.7,9.5,2.9,13.9c3.9,7.7,11.6,12.9,20.1,13.9c4.3,0.5,8.7,0.2,13.1,0.2
						c-1.3-1.3-2.7-2.7-4-4c1.4,10.8,2.8,21.6,4.2,32.4c1.9,15.1,3.9,30.1,5.8,45.2c0.6,4.9,1.3,9.8,1.9,14.8c1.8,14,3.6,28,5.4,42
						c2.2,17.2,4.4,34.4,6.7,51.6c1.6,12,3.1,24.1,4.7,36.1c0.4,3.2,0.8,6.5,1.4,9.7c2.4,12.2,8,23.7,16.1,33.1
						c13.7,16,34.1,25,55.1,25c8.2,0,16.3,0,24.5,0c15.8,0,31.6,0,47.4,0c17.3,0,34.6,0,51.9,0c12.7,0,25.3,0,38,0c2.7,0,5.4,0,8,0
						c8.9,0,17.8-1.5,26.1-4.7c23.1-8.9,40.7-29.5,45.2-54c1.1-5.9,1.6-11.9,2.4-17.9c1.6-12.1,3.1-24.3,4.7-36.4
						c2.1-16.4,4.2-32.8,6.4-49.2c2.3-17.5,4.5-34.9,6.8-52.4c1.9-14.9,3.8-29.7,5.8-44.6c1.2-9,2.3-18.1,3.5-27.1
						c0.2-1.2,0.3-2.4,0.5-3.6c-1.3,1.3-2.7,2.7-4,4c3.4,0,6.7,0,10.1,0c7.4-0.1,14.7-3.2,19.5-8.8c4.2-4.9,6.4-10.9,6.5-17.3
						c0-2.1,0-4.2,0-6.3c0-16.6,0-33.3,0-49.9c0-5.5-1.3-10.9-4.5-15.4C427.2,551.1,419.3,546.9,410.7,546.8c-5.2-0.1-5.2,8,0,8.1
						c10.4,0.1,17.9,8.5,17.9,18.7c0,6.6,0,13.1,0,19.7c0,9,0,18,0,27c0,5.4,0.8,11.8-1.4,16.9c-2.6,6.1-8.7,10.5-15.3,10.9
						c-3.7,0.2-7.5,0-11.3,0c-2.4,0-3.8,1.9-4,4c-0.6,4.8-1.3,9.7-1.9,14.5c-1.6,12.3-3.2,24.6-4.8,36.9
						c-2.1,16.4-4.2,32.7-6.4,49.1c-2.2,17.2-4.5,34.5-6.7,51.7c-1.9,14.7-3.8,29.3-5.7,44c-1.1,8.9-2.3,17.8-3.4,26.7
						c-1.7,13-6,25.4-14.5,35.6c-12.5,15-30.8,23.3-50.2,23.3c-8.4,0-16.7,0-25.1,0c-15.7,0-31.4,0-47,0c-17.2,0-34.3,0-51.5,0
						c-12.6,0-25.2,0-37.8,0c-2.7,0-5.4,0-8.1,0c-8.2,0-16.1-1.4-23.7-4.3c-21.5-8.2-37.1-28.3-40.3-51c-1-7.2-1.9-14.5-2.8-21.7
						c-2-15.8-4.1-31.6-6.1-47.4c-2.1-16.3-4.2-32.7-6.3-49c-1.1-8.7-2.2-17.3-3.4-26c-1.1-8.6-2.2-17.1-3.3-25.7
						c-2.1-15.9-4.1-31.9-6.2-47.8c-0.4-3-0.8-6-1.2-8.9c-0.3-2.2-1.6-4-4-4c-4.3,0-8.9,0.5-13.1-0.2c-7.2-1.3-12.9-6.9-14.5-14
						c-0.6-2.6-0.4-5.4-0.4-8c0-4.6,0-9.2,0-13.8c0-10.8,0-21.6,0-32.3c0-2.2,0-4.5,0-6.7c0.1-7.1,4.3-13.7,10.9-16.5
						c3.2-1.4,6.5-1.4,9.9-1.4c3.5,0,7.1,0,10.6,0c13.4,0,26.8,0,40.2,0c19.5,0,39,0,58.5,0c22.8,0,45.6,0,68.4,0
						c23.3,0,46.6,0,69.9,0c21,0,42,0,63,0c15.8,0,31.5,0,47.3,0c7.7,0,15.3,0,23,0c0.3,0,0.7,0,1,0
						C415.9,554.9,415.9,546.8,410.7,546.8z"/>
				</g>
			</g>
			<g>
				<path class="st3" d="M400.6,648c-3.3,0-6.5,0-9.8,0c-8.9,0-17.7,0-26.6,0c-13,0-26.1,0-39.1,0c-16,0-31.9,0-47.9,0
					c-17.5,0-35,0-52.5,0c-17.6,0-35.2,0-52.8,0c-16.5,0-32.9,0-49.4,0c-13.9,0-27.8,0-41.7,0c-10,0-20,0-30,0
					c-4.7,0-9.5-0.1-14.2,0c-0.2,0-0.4,0-0.6,0c-5.2,0-5.2,8.1,0,8.1c3.3,0,6.5,0,9.8,0c8.9,0,17.7,0,26.6,0c13,0,26.1,0,39.1,0
					c16,0,31.9,0,47.9,0c17.5,0,35,0,52.5,0c17.6,0,35.2,0,52.8,0c16.5,0,32.9,0,49.4,0c13.9,0,27.8,0,41.7,0c10,0,20,0,30,0
					c4.7,0,9.5,0.1,14.2,0c0.2,0,0.4,0,0.6,0C405.8,656,405.8,648,400.6,648L400.6,648z"/>
			</g>
		</g>
		<polygon class="st6" points="535.2,708.4 469.5,774 461.1,708.4 		"/>
	</g>
	<path class="st4" d="M357.6,550.8H79.1c33-23.9,83.1-39.2,139.2-39.2C274.5,511.7,324.6,526.9,357.6,550.8z"/>
</g>
<g class="st0">
	<g class="st1">
		
			<ellipse transform="matrix(0.7071 -0.7071 0.7071 0.7071 -138.0981 161.3006)" class="st2" cx="125.7" cy="247.3" rx="73.2" ry="73.2"/>
		<g>
			<path class="st3" d="M192.1,226.4c4.3,13.9,4.3,28.8-0.2,42.6c-4.3,13.2-12.8,25.2-23.8,33.6c-11.6,8.8-25.8,13.9-40.4,14.4
				c-14.2,0.4-28.3-3.6-40.2-11.3C63,289.9,51.1,259.2,57.9,231c6.9-28.3,31.5-50,60.5-53c14-1.4,28.2,1.4,40.6,8.2
				c12.6,6.9,22.7,17.5,29.1,30.3C189.8,219.7,191.1,223,192.1,226.4c1.4,4.3,8,2.2,6.7-2.1c-4.8-15.1-14.2-28.6-26.9-38.2
				c-12.4-9.3-27.4-14.7-42.9-15.5c-32-1.5-62.5,18.2-74.4,47.8c-5.9,14.7-7.2,30.8-3.6,46.2c3.6,15.5,12.2,29.9,24.2,40.4
				c11.5,10,26,16.6,41.2,18.4c16.1,1.9,32.3-1.3,46.5-9c27.6-15.1,43.5-47.2,38.7-78.3c-0.6-4-1.5-7.9-2.7-11.8
				C197.5,220,190.8,222.1,192.1,226.4z"/>
		</g>
	</g>
	<g class="st1">
		<path class="st3" d="M174.8,231.9c6.3,20.3-0.6,43.3-17.7,56.3c-17.3,13.2-41.3,14.1-59.6,2.4c-18.1-11.6-27-34.4-21.9-55.2
			c5-20.9,23.1-37,44.6-39.2c21.4-2.2,42.2,9.3,51.8,28.5C173.1,227,174,229.4,174.8,231.9c1.4,4.3,8,2.2,6.7-2.1
			c-7.4-23.3-28.8-39.7-53.2-40.9c-24.4-1.2-47.8,13.8-56.8,36.4c-9.2,22.8-3.1,49.7,15.5,66c18.5,16.2,45.6,19.1,67.1,7.3
			c20.9-11.5,33.1-35.9,29.5-59.6c-0.5-3.1-1.1-6.2-2.1-9.2C180.1,225.5,173.5,227.6,174.8,231.9z"/>
	</g>
	<path class="st4" d="M129.7,268.5c-2.3,0.5-4.4,0.6-6.3,0.5c-1.9-0.2-3.6-0.6-5.1-1.4c-1.5-0.7-2.8-1.7-4-2.9
		c-1.1-1.2-2.1-2.6-2.9-4.1l6.1-1.9c0.5,0.9,1.2,1.7,2,2.5c0.8,0.7,1.7,1.3,2.8,1.6c1.1,0.4,2.3,0.5,3.7,0.5c1.4,0,3-0.3,4.7-0.9
		c1.8-0.6,3.3-1.2,4.6-2c1.3-0.8,2.2-1.7,3-2.6c0.7-0.9,1.2-1.9,1.4-2.9c0.2-1,0.1-2-0.2-3.1c-0.4-1.2-0.9-2.2-1.6-3
		c-0.7-0.7-1.6-1.3-2.8-1.6c-1.2-0.3-2.6-0.5-4.3-0.5c-1.7,0-3.8,0.1-6.3,0.3c-2.7,0.2-5,0.3-7.1,0.2c-2.1-0.1-3.8-0.4-5.3-1.1
		c-1.5-0.6-2.8-1.6-3.8-2.8c-1-1.2-1.9-2.9-2.5-4.9c-0.5-1.5-0.6-3-0.5-4.5c0.2-1.5,0.6-3,1.5-4.4c0.8-1.4,1.9-2.7,3.3-3.9
		c1.4-1.2,3.1-2.2,5.1-3.1l-1.9-6l5.4-1.7l1.9,6c2-0.4,3.9-0.4,5.6-0.2c1.7,0.2,3.2,0.7,4.6,1.4c1.4,0.7,2.6,1.6,3.6,2.7
		c1,1.1,1.9,2.4,2.6,3.8l-6.1,1.9c-0.5-0.8-1.1-1.6-1.8-2.2c-0.7-0.7-1.5-1.2-2.4-1.5c-0.9-0.3-2-0.5-3.2-0.5
		c-1.2,0-2.6,0.2-4.1,0.7c-1.5,0.5-2.9,1.1-4,1.8c-1.1,0.7-2,1.5-2.6,2.3c-0.7,0.8-1.1,1.7-1.3,2.7c-0.2,0.9-0.1,1.8,0.2,2.7
		c0.4,1.2,0.9,2.1,1.6,2.8c0.7,0.7,1.6,1.2,2.7,1.5c1.1,0.3,2.4,0.5,4,0.5c1.5,0,3.3,0,5.4-0.2c3-0.3,5.6-0.3,7.8-0.2
		c2.2,0.1,4.2,0.5,5.8,1.2c1.6,0.7,2.9,1.6,4,2.9c1,1.3,1.9,2.9,2.5,4.9c0.5,1.6,0.7,3.3,0.5,4.9c-0.2,1.6-0.7,3.2-1.6,4.6
		c-0.9,1.5-2.1,2.9-3.7,4.1c-1.6,1.3-3.4,2.4-5.7,3.3l2.3,7.2l-5.4,1.7L129.7,268.5z"/>
</g>
<g class="st0">
	<g class="st1">
		
			<ellipse transform="matrix(0.7071 -0.7071 0.7071 0.7071 -51.7189 292.0057)" class="st2" cx="326.6" cy="208.4" rx="84.3" ry="84.3"/>
		<g>
			<path class="st3" d="M392.9,253.8c-9.5,13.8-23,24.3-38.8,30.1c-15,5.5-31.9,6.4-47.4,2.4c-16.3-4.2-31-13.5-41.8-26.4
				c-10.5-12.6-16.8-28.2-18.3-44.5c-3.1-33.4,16.2-66.1,46.6-80c30.6-14,67.7-7.1,91.1,17.2c11.3,11.7,18.8,26.6,21.5,42.6
				c2.7,16.3,0.3,33.1-6.7,47.9C397.3,246.8,395.2,250.4,392.9,253.8c-2.9,4.3,3.7,8.9,6.7,4.6c10.3-15.1,15.8-33.3,15.4-51.6
				c-0.4-17.9-6.2-35.3-16.5-49.9c-21.4-30-60.9-43.7-96.3-33.4c-17.5,5.1-33,15.4-44.4,29.6c-11.5,14.3-18.4,32.3-19.4,50.6
				c-0.9,17.6,3.5,35.4,12.7,50.4c9.7,15.9,24.2,28.4,41.3,35.7c33.3,14.2,73.8,5.8,98.5-20.7c3.2-3.4,6.1-7,8.8-10.8
				C402.5,254.1,395.9,249.5,392.9,253.8z"/>
		</g>
	</g>
	<g class="st1">
		<path class="st3" d="M375.6,241.9c-13.9,20.2-39.6,30.2-63.6,24.1c-24.3-6.3-42.2-27.4-44.6-52.4c-2.4-24.7,11.9-48.9,34.4-59.2
			c22.5-10.3,50-5.3,67.2,12.5c17.3,17.8,21.6,44.9,11,67.3C378.9,236.9,377.3,239.5,375.6,241.9c-2.9,4.3,3.7,8.9,6.7,4.6
			c15.8-23.3,15.4-54.3-0.8-77.3c-16.2-22.9-46.5-33.5-73.4-25.6c-27.2,8-47.2,32.6-48.7,61c-1.5,28.3,15.2,54.9,41.2,66
			c25.3,10.8,56.1,4.4,75-15.7c2.5-2.6,4.8-5.4,6.8-8.4C385.2,242.2,378.6,237.7,375.6,241.9z"/>
	</g>
	<path class="st4" d="M310.3,227.1c-2.1-1.7-3.7-3.5-4.9-5.4c-1.2-1.9-2-3.7-2.4-5.6c-0.4-1.9-0.5-3.8-0.2-5.6
		c0.3-1.9,0.8-3.7,1.7-5.5l6,4.1c-0.5,1.1-0.7,2.3-0.8,3.5c-0.1,1.2,0.1,2.5,0.5,3.7c0.4,1.2,1.2,2.5,2.2,3.7c1,1.2,2.4,2.5,4.2,3.7
		c1.8,1.2,3.5,2.1,5.1,2.7c1.6,0.6,3.1,0.9,4.5,0.8c1.4,0,2.6-0.3,3.6-0.8c1.1-0.5,1.9-1.3,2.6-2.3c0.8-1.2,1.4-2.4,1.5-3.6
		c0.2-1.1,0-2.4-0.5-3.7c-0.5-1.3-1.4-2.7-2.6-4.3c-1.2-1.6-2.8-3.4-4.7-5.5c-2.1-2.3-3.8-4.3-5.2-6.3c-1.4-1.9-2.3-3.8-2.8-5.6
		c-0.5-1.8-0.5-3.6-0.2-5.4c0.4-1.8,1.3-3.7,2.7-5.8c1-1.5,2.3-2.7,3.8-3.6c1.5-0.9,3.1-1.5,5-1.8c1.8-0.3,3.8-0.2,5.9,0.2
		c2.1,0.4,4.2,1.2,6.4,2.4l4.1-6l5.4,3.7l-4.1,6c1.7,1.6,3.1,3.2,4.1,4.9c1,1.7,1.7,3.4,2,5.2c0.3,1.7,0.4,3.5,0.1,5.2
		c-0.3,1.7-0.8,3.4-1.6,5.1l-6-4.1c0.4-1,0.7-2.1,0.8-3.2c0.1-1.1,0-2.2-0.4-3.3c-0.4-1.1-1-2.2-1.8-3.3c-0.9-1.1-2-2.1-3.5-3.2
		c-1.5-1.1-3-1.8-4.5-2.3c-1.4-0.5-2.8-0.7-4-0.7c-1.2,0-2.3,0.3-3.3,0.8c-1,0.5-1.8,1.2-2.4,2.1c-0.8,1.2-1.3,2.3-1.4,3.4
		c-0.1,1.1,0,2.3,0.5,3.5c0.5,1.2,1.3,2.5,2.3,4c1.1,1.4,2.4,3,4.1,4.8c2.4,2.5,4.3,4.8,5.8,7c1.5,2.1,2.5,4.2,3,6.1
		c0.5,1.9,0.6,3.8,0.2,5.6c-0.4,1.9-1.3,3.8-2.7,5.8c-1.1,1.6-2.5,2.9-4.1,3.9c-1.6,1-3.4,1.6-5.4,1.8c-2,0.3-4.1,0.1-6.3-0.4
		c-2.3-0.5-4.6-1.4-7-2.8l-4.9,7.2l-5.4-3.7L310.3,227.1z"/>
</g>
<g class="st0">
	<g class="st1">
		<g>
			<g>
				<g>
					<path class="st2" d="M410.7,550.8H26c-12.1,0-22,9.8-22,22V630c0,12.1,9.8,22,22,22h10.1l29.3,226.6
						c4.4,33.9,33.3,59.3,67.5,59.3h170.9c34.2,0,63.1-25.4,67.5-59.3L400.6,652h10.1c12.1,0,22-9.8,22-22v-57.2
						C432.6,560.7,422.8,550.8,410.7,550.8z"/>
					<g>
						<path class="st3" d="M410.7,546.8c-5.5,0-11,0-16.5,0c-14.5,0-28.9,0-43.4,0c-20.3,0-40.7,0-61,0c-23.5,0-46.9,0-70.4,0
							c-23.5,0-47,0-70.5,0c-20.5,0-41,0-61.6,0c-14.6,0-29.3,0-43.9,0c-5.8,0-11.6-0.1-17.4,0c-14.6,0.2-26,12.1-26,26.6
							c0,8.6,0,17.3,0,25.9c0,9.6,0,19.2,0,28.8c0,4.9,0.7,9.5,2.9,13.9c3.9,7.7,11.7,12.8,20.1,13.8c4.3,0.5,8.7,0.2,13,0.2
							c-1.3-1.3-2.7-2.7-4-4c0.6,4.9,1.3,9.8,1.9,14.8c1.6,12.5,3.2,25,4.8,37.4c2.1,16.6,4.3,33.2,6.4,49.9
							c2.2,17.3,4.5,34.7,6.7,52c1.9,14.6,3.8,29.2,5.7,43.8c1.1,8.6,2.2,17.2,3.3,25.8c0.4,2.9,0.7,5.8,1.3,8.7
							c2.4,12.1,8.1,23.4,16.2,32.7c13.7,15.9,34.1,24.8,55,24.8c8.2,0,16.4,0,24.6,0c15.8,0,31.6,0,47.5,0c17.3,0,34.6,0,51.9,0
							c12.6,0,25.3,0,37.9,0c2.7,0,5.3,0,8,0c9,0,17.9-1.5,26.3-4.8c23-9,40.5-29.5,45-53.9c1.1-5.9,1.6-11.9,2.4-17.9
							c1.6-12.1,3.1-24.3,4.7-36.4c2.1-16.5,4.3-33,6.4-49.4c2.2-17.4,4.5-34.8,6.7-52.2c1.9-14.9,3.9-29.8,5.8-44.7
							c1.2-9,2.3-18,3.5-27c0.2-1.2,0.3-2.4,0.5-3.6c-1.3,1.3-2.7,2.7-4,4c3.5,0,6.9,0.1,10.4,0c7.3-0.1,14.4-3.3,19.2-8.8
							c4.2-4.9,6.4-10.9,6.5-17.3c0-2.1,0-4.2,0-6.3c0-16.6,0-33.3,0-49.9c0-5.6-1.4-11.1-4.7-15.7C427,551,419.2,546.9,410.7,546.8
							c-5.2-0.1-5.2,8,0,8.1c10.3,0.1,17.9,8.5,17.9,18.6c0,6.5,0,13,0,19.5c0,9.1,0,18.1,0,27.2c0,5.5,0.8,12.1-1.6,17.2
							c-2.7,5.8-8.4,10-14.9,10.5c-3.8,0.3-7.7,0.1-11.6,0.1c-2.4,0-3.8,1.9-4,4c-0.6,4.8-1.3,9.7-1.9,14.5
							c-1.6,12.2-3.2,24.5-4.8,36.7c-2.1,16.4-4.2,32.9-6.4,49.3c-2.2,17.2-4.4,34.3-6.7,51.5c-1.9,14.7-3.8,29.5-5.7,44.2
							c-1.1,8.9-2.3,17.7-3.4,26.6c-1.7,13.1-6,25.4-14.5,35.7c-12.5,14.9-30.8,23.3-50.2,23.3c-8.3,0-16.6,0-24.9,0
							c-15.7,0-31.5,0-47.2,0c-17.1,0-34.2,0-51.3,0c-12.6,0-25.2,0-37.8,0c-2.8,0-5.5,0-8.3,0c-8.1,0-15.9-1.4-23.5-4.2
							c-21.7-8.2-37.3-28.3-40.6-51.1c-0.7-4.9-1.3-9.8-1.9-14.6c-1.6-12.3-3.2-24.5-4.8-36.8c-2.1-16.4-4.3-32.9-6.4-49.3
							c-2.2-17.2-4.5-34.5-6.7-51.7c-1.9-14.6-3.8-29.3-5.7-43.9c-1.1-8.9-2.3-17.7-3.4-26.6c-0.2-1.2-0.3-2.4-0.5-3.6
							c-0.3-2.2-1.6-4-4-4c-4.3,0-8.9,0.5-13.1-0.2c-7.1-1.2-12.8-6.6-14.4-13.6c-0.6-2.7-0.5-5.5-0.5-8.2c0-4.6,0-9.2,0-13.8
							c0-10.8,0-21.5,0-32.3c0-2.3,0-4.7,0-7c0.1-6.9,3.9-13,10-16.1c3.4-1.7,7-1.8,10.7-1.8c3.4,0,6.9,0,10.3,0
							c13.4,0,26.8,0,40.2,0c19.5,0,39,0,58.5,0c22.9,0,45.7,0,68.6,0c23.4,0,46.7,0,70.1,0c20.9,0,41.9,0,62.8,0
							c15.8,0,31.6,0,47.3,0c7.7,0,15.4,0,23.1,0c0.3,0,0.7,0,1,0C415.9,554.9,415.9,546.8,410.7,546.8z"/>
					</g>
				</g>
				<g>
					<path class="st3" d="M400.6,648c-3.3,0-6.5,0-9.8,0c-8.9,0-17.7,0-26.6,0c-13,0-26.1,0-39.1,0c-16,0-31.9,0-47.9,0
						c-17.5,0-35,0-52.5,0c-17.6,0-35.2,0-52.8,0c-16.5,0-32.9,0-49.4,0c-13.9,0-27.8,0-41.7,0c-10,0-20,0-30,0
						c-4.7,0-9.5-0.1-14.2,0c-0.2,0-0.4,0-0.6,0c-5.2,0-5.2,8.1,0,8.1c3.3,0,6.5,0,9.8,0c8.9,0,17.7,0,26.6,0c13,0,26.1,0,39.1,0
						c16,0,31.9,0,47.9,0c17.5,0,35,0,52.5,0c17.6,0,35.2,0,52.8,0c16.5,0,32.9,0,49.4,0c13.9,0,27.8,0,41.7,0c10,0,20,0,30,0
						c4.7,0,9.5,0.1,14.2,0c0.2,0,0.4,0,0.6,0C405.8,656,405.8,648,400.6,648L400.6,648z"/>
				</g>
			</g>
			<polygon class="st6" points="110.2,652 44.6,717.6 36.1,652 			"/>
		</g>
		<g>
			
				<ellipse transform="matrix(0.7071 -0.7071 0.7071 0.7071 -197.8731 168.3995)" class="st5" cx="104.3" cy="323.1" rx="58.4" ry="109.8"/>
			<g>
				<path class="st3" d="M221.8,550.8c0-5.7,0-11.5,0-17.2c0-12.7,0-25.4,0-38.2c0-13,0-26,0-38.9c0-6.5,0.3-13.1,0-19.5
					c-0.1-2.1-1.3-3.1-2.6-4.4c-1.9-1.9-3.7-3.7-5.6-5.6c-6.9-6.9-13.7-13.7-20.6-20.6c-9.3-9.3-18.6-18.6-28-28
					c-9.7-9.7-19.4-19.4-29-29c-8-8-15.9-15.9-23.9-23.9c-4.1-4.1-8.2-8.3-12.4-12.4c-0.2-0.2-0.4-0.4-0.6-0.6
					c-3.7-3.7-9.4,2-5.7,5.7c4,4,8.1,8.1,12.1,12.1c9.7,9.7,19.3,19.3,29,29c11.7,11.7,23.3,23.3,35,35
					c10.1,10.1,20.3,20.3,30.4,30.4c3.3,3.3,6.6,6.6,9.9,9.9c1.6,1.6,3.1,3.3,4.8,4.8c0.1,0.1,0.1,0.1,0.2,0.2
					c-0.4-1-0.8-1.9-1.2-2.9c0,12.9,0,25.8,0,38.7c0,20.4,0,40.8,0,61.2c0,4.7,0,9.4,0,14C213.8,556,221.8,556,221.8,550.8
					L221.8,550.8z"/>
			</g>
			
				<ellipse transform="matrix(0.7071 -0.7071 0.7071 0.7071 -131.0978 329.6083)" class="st5" cx="332.3" cy="323.1" rx="109.8" ry="58.4"/>
			<g>
				<path class="st3" d="M220.6,439.8c4.2-4.2,8.4-8.4,12.7-12.7c10.2-10.2,20.4-20.4,30.6-30.6c12.3-12.3,24.6-24.6,36.8-36.8
					c10.6-10.6,21.2-21.2,31.9-31.9c5.2-5.2,10.6-10.2,15.5-15.5c0.1-0.1,0.1-0.1,0.2-0.2c3.7-3.7-2-9.4-5.7-5.7
					c-4.2,4.2-8.4,8.4-12.7,12.7c-10.2,10.2-20.4,20.4-30.6,30.6c-12.3,12.3-24.6,24.6-36.8,36.8c-10.6,10.6-21.2,21.2-31.9,31.9
					c-5.2,5.2-10.6,10.2-15.5,15.5c-0.1,0.1-0.1,0.1-0.2,0.2C211.3,437.7,217,443.4,220.6,439.8L220.6,439.8z"/>
			</g>
		</g>
	</g>
	<path class="st4" d="M357,550.8H78.6c33-23.9,83.1-39.2,139.2-39.2C273.9,511.7,324,526.9,357,550.8z"/>
</g>
<g>
	<g>
		<path class="st3" d="M272.7,571.3c0-12.9,0-25.8,0-38.7c0-20.4,0-40.8,0-61.2c0-4.7,0-9.4,0-14c0-5.2-8.1-5.2-8.1,0
			c0,12.9,0,25.8,0,38.7c0,20.4,0,40.8,0,61.2c0,4.7,0,9.4,0,14C264.6,576.5,272.7,576.5,272.7,571.3L272.7,571.3z"/>
	</g>
	<path class="st3" d="M264.2,29.1c0,4,0,8,0,11.9c0,10.7,0,21.5,0,32.2c0,15.9,0,31.8,0,47.7c0,19.4,0,38.8,0,58.2
		c0,21.2,0,42.4,0,63.6c0,21.5,0,43.1,0,64.6c0,19.9,0,39.9,0,59.8c0,16.9,0,33.8,0,50.7c0,12.2,0,24.3,0,36.5
		c0,5.7,2.4,11.2,2.7,16.9c0,0.3,1.3,0.8,1.3,1c2.3-1,0.6-1.8,2.9-2.8c-4.6-4.6,3.9,8.8-0.8,4.2c-11.1-11.1-20.8-20.5-31.9-31.6
		c-13.4-13.4-26.8-26.8-40.2-40.2c-11.6-11.6-23.2-23.2-34.9-34.9c-5.6-5.6-11.1-11.5-16.9-16.9c-0.1-0.1-0.2-0.2-0.2-0.2
		c-3.7-3.7-9.4,2-5.7,5.7c4.6,4.6,9.3,9.3,13.9,13.9c11.1,11.1,22.2,22.2,33.3,33.3c13.4,13.4,26.8,26.8,40.2,40.2
		c11.6,11.6,26.8,26.8,38.4,38.4c5.6,5.6,5-11.5,2-3.8c0,0.1-1.6,1.9-1.5,2c2.5,2.5,5.6-3.8,5.6-7.2c0-4,0-8,0-11.9
		c0-10.7,0-21.5,0-32.2c0-15.9,0-31.8,0-47.7c0-19.4,0-38.8,0-58.2c0-21.2,0-42.4,0-63.6c0-21.5,0-43.1,0-64.6c0-19.9,0-39.9,0-59.8
		c0-16.9,0-33.8,0-50.7c0-12.2,0-24.3,0-36.5c0-5.7,0.1-11.5,0-17.2c0-0.3,0-0.5,0-0.8C272.3,24,264.2,23.9,264.2,29.1L264.2,29.1z"
		/>
	<g>
		<g>
			<circle class="st2" cx="89.3" cy="293.3" r="84.3"/>
			<g>
				<path class="st3" d="M146.1,236.5c11.8,11.9,19.6,27,22.4,43.5c2.7,15.7,0.5,32.4-6.2,46.8c-7.2,15.4-19.1,28.3-33.9,36.6
					c-14.2,8-30.7,11.3-46.9,9.8c-33.6-3.1-62.2-28.1-70.2-60.7c-3.9-15.7-2.8-32.4,2.8-47.6c5.8-15.6,16.8-29.4,30.7-38.6
					c13.6-9,29.8-13.7,46.2-13.4c16.4,0.3,32.4,5.8,45.7,15.4C140,230.8,143.1,233.6,146.1,236.5c3.7,3.7,9.4-2,5.7-5.7
					c-12.9-12.8-29.6-21.6-47.6-24.6c-17.8-2.9-36.1-0.5-52.5,7.1c-33.3,15.5-53.9,51.7-50.3,88.3c1.8,18.3,9.1,35.5,21.1,49.4
					c11.8,13.8,27.9,23.7,45.5,28c17.2,4.3,35.8,3.3,52.4-3c17.5-6.6,32.5-18.6,42.9-34.2c20-30.1,19.1-71.3-2.3-100.4
					c-2.8-3.8-5.8-7.3-9-10.6C148.1,227.1,142.4,232.8,146.1,236.5z"/>
			</g>
		</g>
		<g>
			<path class="st3" d="M131.3,251.3c17.3,17.4,22.4,44.5,11.9,66.9c-10.7,22.8-34.7,36.5-59.7,34.2c-24.7-2.3-45.9-20.8-51.8-44.8
				c-6-24,4.1-50.1,24.8-63.8c20.6-13.6,47.8-12.9,67.8,1.5C126.8,247.1,129.1,249.2,131.3,251.3c3.7,3.7,9.4-2,5.7-5.7
				c-20-19.8-50.6-25.2-76.1-13.4c-25.4,11.7-41.3,39.4-38.7,67.2c2.7,28.3,23.2,52.6,51,59.4c27.5,6.7,56.7-4.8,72.4-28.3
				c15.3-22.9,14.7-54.4-1.7-76.7c-2.1-2.9-4.4-5.6-6.9-8.2C133.3,241.9,127.6,247.6,131.3,251.3z"/>
		</g>
		<g>
			
				<ellipse transform="matrix(0.9734 -0.2291 0.2291 0.9734 -82.7276 30.5938)" class="st5" cx="90.4" cy="371.6" rx="69.5" ry="34.6"/>
			
				<ellipse transform="matrix(0.2291 -0.9734 0.9734 0.2291 -157.422 390.0284)" class="st5" cx="167.5" cy="294.4" rx="69.5" ry="34.6"/>
		</g>
	</g>
	<g>
		<g>
			
				<ellipse transform="matrix(0.7071 -0.7071 0.7071 0.7071 16.6624 215.3953)" class="st2" cx="268.3" cy="87.6" rx="84.3" ry="84.3"/>
			<g>
				<path class="st3" d="M348.6,87.6c-0.1,16.8-5.3,33.1-15,46.7c-9.3,13.1-22.7,23.3-37.8,28.7c-15.8,5.7-33.2,6.4-49.4,1.8
					c-15.8-4.4-29.8-13.8-40.2-26.3c-21.4-25.9-24-63.7-6.7-92.4c17.3-28.8,51.9-44.1,84.9-37.3c15.9,3.3,30.6,11.3,41.8,23.1
					c11.4,11.9,18.9,27.1,21.5,43.4C348.4,79.4,348.6,83.5,348.6,87.6c0,5.2,8.1,5.2,8.1,0c-0.1-18.3-5.7-36.4-16.4-51.2
					c-10.5-14.5-25-25.6-41.8-31.8c-34.6-12.7-75-1.7-98.3,26.8c-11.5,14.1-18.5,31.3-20,49.5c-1.5,18.3,3,37,12.6,52.7
					c9.2,15,22.9,27.3,38.9,34.5c17,7.6,36,9.8,54.2,6.1c35.5-7.1,64.1-36.9,69.6-72.7c0.7-4.6,1.1-9.2,1.1-13.9
					C356.7,82.4,348.7,82.4,348.6,87.6z"/>
			</g>
		</g>
		<g>
			<path class="st3" d="M327.7,87.6c-0.1,24.5-15.6,47.3-38.9,55.7c-23.6,8.5-50.3,1.2-66.4-18c-15.9-19.1-17.7-47.1-5-68.3
				c12.7-21.2,38.2-32.6,62.5-27.7c24.3,4.9,43.2,24.8,47.1,49.3C327.5,81.6,327.7,84.6,327.7,87.6c0,5.2,8.1,5.2,8.1,0
				c-0.1-28.1-17.9-53.5-44.3-63.3c-26.3-9.8-57.3-1.4-75,20.3c-18,21.9-20.6,53.5-5.8,77.9c14.7,24.2,43.5,36.7,71.2,31.2
				c27-5.4,48.8-28,53-55.2c0.6-3.6,0.9-7.2,0.9-10.8C335.8,82.4,327.7,82.4,327.7,87.6z"/>
		</g>
		<g>
			
				<ellipse transform="matrix(0.5263 -0.8503 0.8503 0.5263 -20.9119 249.8517)" class="st5" cx="213.8" cy="143.7" rx="34.6" ry="69.5"/>
			
				<ellipse transform="matrix(0.8503 -0.5263 0.5263 0.8503 -27.2901 191.441)" class="st5" cx="322.9" cy="143.7" rx="69.5" ry="34.6"/>
		</g>
	</g>
	<g>
		<path class="st3" d="M270.7,442.3c4.5-4.5,9.1-9.1,13.6-13.6c10.8-10.8,21.5-21.5,32.3-32.3c13.1-13.1,26.2-26.2,39.3-39.3
			c11.3-11.3,22.5-22.5,33.8-33.8c5.5-5.5,11.2-10.8,16.5-16.5c0.1-0.1,0.2-0.2,0.2-0.2c3.7-3.7-2-9.4-5.7-5.7
			c-4.5,4.5-9.1,9.1-13.6,13.6c-10.8,10.8-21.5,21.5-32.3,32.3c-13.1,13.1-26.2,26.2-39.3,39.3c-11.3,11.3-22.5,22.5-33.8,33.8
			c-5.5,5.5-11.2,10.8-16.5,16.5c-0.1,0.1-0.2,0.2-0.2,0.2C261.4,440.3,267.1,446,270.7,442.3L270.7,442.3z"/>
	</g>
	<g>
		<g>
			<circle class="st2" cx="425.6" cy="281.4" r="63.8"/>
			<g>
				<path class="st3" d="M468.6,324.4c-9,8.9-20.5,14.8-32.9,17c-11.9,2-24.5,0.4-35.4-4.7c-11.7-5.4-21.4-14.4-27.7-25.6
					c-6-10.8-8.5-23.2-7.4-35.5c2.3-25.4,21.3-47.1,46-53.2c11.9-2.9,24.5-2.1,36,2.1c11.8,4.4,22.2,12.7,29.2,23.2
					c6.8,10.3,10.4,22.5,10.1,34.9c-0.2,12.4-4.4,24.5-11.6,34.6C472.9,319.8,470.8,322.2,468.6,324.4c-2.8,2.8,1.5,7.1,4.3,4.3
					c9.7-9.8,16.4-22.4,18.6-36.1c2.2-13.5,0.4-27.3-5.4-39.7c-11.7-25.2-39.2-40.8-66.8-38.1c-13.8,1.4-26.9,6.9-37.4,15.9
					c-10.4,8.9-17.9,21.1-21.2,34.5c-3.2,13-2.5,27.1,2.3,39.6c5,13.2,14.1,24.6,25.9,32.4c22.8,15.1,53.9,14.5,76-1.7
					c2.8-2.1,5.5-4.4,8-6.8C475.7,326,471.4,321.7,468.6,324.4z"/>
			</g>
		</g>
		<g>
			<path class="st3" d="M457.3,313.2c-13.2,13.1-33.7,17-50.6,9c-17.2-8.1-27.6-26.3-25.9-45.2c1.7-18.7,15.7-34.7,33.9-39.2
				c18.2-4.5,37.9,3.1,48.3,18.8c10.3,15.6,9.8,36.2-1.1,51.3C460.5,309.8,459,311.6,457.3,313.2c-2.8,2.8,1.5,7.1,4.3,4.3
				c15-15.1,19.1-38.3,10.2-57.6c-8.8-19.3-29.8-31.3-50.9-29.3c-21.4,2-39.8,17.6-44.9,38.6c-5.1,20.8,3.6,42.9,21.4,54.8
				c17.4,11.6,41.2,11.1,58-1.3c2.2-1.6,4.3-3.3,6.2-5.3C464.5,314.8,460.1,310.4,457.3,313.2z"/>
		</g>
		<g>
			
				<ellipse transform="matrix(0.9734 -0.2291 0.2291 0.9734 -54.6754 89.6432)" class="st5" cx="358.7" cy="280.3" rx="30.5" ry="61.3"/>
			
				<ellipse transform="matrix(0.2291 -0.9734 0.9734 0.2291 -10.0877 683.9264)" class="st5" cx="426.8" cy="348.3" rx="30.5" ry="61.3"/>
		</g>
	</g>
	<g>
		
			<ellipse transform="matrix(0.7071 -0.7071 0.7071 0.7071 -211.1385 394.4295)" class="st5" cx="370.5" cy="452.1" rx="64.1" ry="34"/>
		<g>
			<path class="st3" d="M297.7,528.7c2.1-2.1,4.3-4.3,6.4-6.4c5.1-5.1,10.2-10.2,15.4-15.4c6.2-6.2,12.5-12.5,18.7-18.7
				c5.4-5.4,10.7-10.7,16.1-16.1c2.6-2.6,5.5-5.5,5.5-5.5s2.4-2.4,2.4-2.5c2.1-2.1-3.3-7.2-5.5-5c-2.1,2.1-4.3,4.3-6.4,6.4
				c-5.1,5.1-10.2,10.2-15.4,15.4c-6.2,6.2-12.5,12.5-18.7,18.7c-5.4,5.4-10.7,10.7-16.1,16.1c-2.6,2.6-5.3,5.1-7.8,7.8
				c0,0-0.1,0.1-0.1,0.1c-2.1,2.1,1.2,5.5,3.3,3.3L297.7,528.7z"/>
		</g>
	</g>
	<g>
		<g>
			<path class="st2" d="M461.5,548.2H76.9c-12.1,0-22,9.8-22,22v57.2c0,12.1,9.8,22,22,22H87L116.3,876
				c4.4,33.9,33.3,59.3,67.5,59.3h170.9c34.2,0,63.1-25.4,67.5-59.3l29.3-226.6h10.1c12.1,0,22-9.8,22-22v-57.2
				C483.5,558.1,473.7,548.2,461.5,548.2z"/>
			<g>
				<path class="st3" d="M461.5,544.2c-5.5,0-11,0-16.5,0c-14.5,0-28.9,0-43.4,0c-20.3,0-40.7,0-61,0c-23.5,0-46.9,0-70.4,0
					c-23.5,0-47,0-70.5,0c-20.5,0-41,0-61.6,0c-14.6,0-29.3,0-43.9,0c-5.8,0-11.6-0.1-17.4,0c-14.6,0.2-26,12.1-26,26.6
					c0,8.6,0,17.3,0,25.9c0,9.6,0,19.2,0,28.8c0,4.9,0.7,9.5,2.9,13.9c3.9,7.7,11.7,12.8,20.1,13.8c4.3,0.5,8.7,0.2,13,0.2
					c-1.3-1.3-2.7-2.7-4-4c0.6,4.9,1.3,9.8,1.9,14.8c1.6,12.5,3.2,25,4.8,37.4c2.1,16.6,4.3,33.2,6.4,49.9c2.2,17.3,4.5,34.7,6.7,52
					c1.9,14.6,3.8,29.2,5.7,43.8c1.1,8.6,2.2,17.2,3.3,25.8c0.4,2.9,0.7,5.8,1.3,8.7c2.4,12.1,8.1,23.4,16.2,32.7
					c13.7,15.9,34.1,24.8,55,24.8c8.2,0,16.4,0,24.6,0c15.8,0,31.6,0,47.5,0c17.3,0,34.6,0,51.9,0c12.6,0,25.3,0,37.9,0
					c2.7,0,5.3,0,8,0c9,0,17.9-1.5,26.3-4.8c23-9,40.5-29.5,45-53.9c1.1-5.9,1.6-11.9,2.4-17.9c1.6-12.1,3.1-24.3,4.7-36.4
					c2.1-16.5,4.3-33,6.4-49.4c2.2-17.4,4.5-34.8,6.7-52.2c1.9-14.9,3.9-29.8,5.8-44.7c1.2-9,2.3-18,3.5-27c0.2-1.2,0.3-2.4,0.5-3.6
					c-1.3,1.3-2.7,2.7-4,4c3.5,0,6.9,0.1,10.4,0c7.3-0.1,14.4-3.3,19.2-8.8c4.2-4.9,6.4-10.9,6.5-17.3c0-2.1,0-4.2,0-6.3
					c0-16.6,0-33.3,0-49.9c0-5.6-1.4-11.1-4.7-15.7C477.9,548.4,470.1,544.3,461.5,544.2c-5.2-0.1-5.2,8,0,8.1
					c10.3,0.1,17.9,8.5,17.9,18.6c0,6.5,0,13,0,19.5c0,9.1,0,18.1,0,27.2c0,5.5,0.8,12.1-1.6,17.2c-2.7,5.8-8.4,10-14.9,10.5
					c-3.8,0.3-7.7,0.1-11.6,0.1c-2.4,0-3.8,1.9-4,4c-0.6,4.8-1.3,9.7-1.9,14.5c-1.6,12.2-3.2,24.5-4.8,36.7
					c-2.1,16.4-4.2,32.9-6.4,49.3c-2.2,17.2-4.4,34.3-6.7,51.5c-1.9,14.7-3.8,29.5-5.7,44.2c-1.1,8.9-2.3,17.7-3.4,26.6
					c-1.7,13.1-6,25.4-14.5,35.7c-12.5,14.9-30.8,23.3-50.2,23.3c-8.3,0-16.6,0-24.9,0c-15.7,0-31.5,0-47.2,0c-17.1,0-34.2,0-51.3,0
					c-12.6,0-25.2,0-37.8,0c-2.8,0-5.5,0-8.3,0c-8.1,0-15.9-1.4-23.5-4.2c-21.7-8.2-37.3-28.3-40.6-51.1c-0.7-4.9-1.3-9.8-1.9-14.6
					c-1.6-12.3-3.2-24.5-4.8-36.8c-2.1-16.4-4.3-32.9-6.4-49.3c-2.2-17.2-4.5-34.5-6.7-51.7c-1.9-14.6-3.8-29.3-5.7-43.9
					c-1.1-8.9-2.3-17.7-3.4-26.6c-0.2-1.2-0.3-2.4-0.5-3.6c-0.3-2.2-1.6-4-4-4c-4.3,0-8.9,0.5-13.1-0.2c-7.1-1.2-12.8-6.6-14.4-13.6
					c-0.6-2.7-0.5-5.5-0.5-8.2c0-4.6,0-9.2,0-13.8c0-10.8,0-21.5,0-32.3c0-2.3,0-4.7,0-7c0.1-6.9,3.9-13,10-16.1
					c3.4-1.7,7-1.8,10.7-1.8c3.4,0,6.9,0,10.3,0c13.4,0,26.8,0,40.2,0c19.5,0,39,0,58.5,0c22.9,0,45.7,0,68.6,0
					c23.4,0,46.7,0,70.1,0c20.9,0,41.9,0,62.8,0c15.8,0,31.6,0,47.3,0c7.7,0,15.4,0,23.1,0c0.3,0,0.7,0,1,0
					C466.7,552.3,466.7,544.2,461.5,544.2z"/>
			</g>
		</g>
		<g>
			<path class="st3" d="M451.5,645.4c-3.3,0-6.5,0-9.8,0c-8.9,0-17.7,0-26.6,0c-13,0-26.1,0-39.1,0c-16,0-31.9,0-47.9,0
				c-17.5,0-35,0-52.5,0c-17.6,0-35.2,0-52.8,0c-16.5,0-32.9,0-49.4,0c-13.9,0-27.8,0-41.7,0c-10,0-20,0-30,0c-4.7,0-9.5-0.1-14.2,0
				c-0.2,0-0.4,0-0.6,0c-5.2,0-5.2,8.1,0,8.1c3.3,0,6.5,0,9.8,0c8.9,0,17.7,0,26.6,0c13,0,26.1,0,39.1,0c16,0,31.9,0,47.9,0
				c17.5,0,35,0,52.5,0c17.6,0,35.2,0,52.8,0c16.5,0,32.9,0,49.4,0c13.9,0,27.8,0,41.7,0c10,0,20,0,30,0c4.7,0,9.5,0.1,14.2,0
				c0.2,0,0.4,0,0.6,0C456.6,653.4,456.7,645.4,451.5,645.4L451.5,645.4z"/>
		</g>
		<polygon class="st6" points="161.1,650.6 95.5,716.3 87,650.6 		"/>
	</g>
	<g>
		<path class="st3" d="M265,114.6c-2.7-0.3-5.1-0.8-7.1-1.7c-2-0.9-3.8-1.9-5.2-3.3c-1.4-1.3-2.5-2.8-3.3-4.6
			c-0.8-1.7-1.4-3.6-1.7-5.5h7.3c0.3,1.2,0.7,2.3,1.3,3.4c0.6,1.1,1.5,2,2.5,2.8s2.4,1.4,3.9,1.8c1.6,0.4,3.4,0.7,5.5,0.7
			c2.2,0,4.1-0.2,5.8-0.7c1.7-0.4,3-1,4.2-1.8c1.1-0.8,2-1.7,2.5-2.7c0.6-1,0.9-2.2,0.9-3.4c0-1.5-0.2-2.8-0.7-3.8
			c-0.5-1-1.3-1.9-2.5-2.7c-1.2-0.8-2.7-1.5-4.6-2.1c-1.9-0.6-4.2-1.2-7-1.9c-3-0.7-5.6-1.4-7.9-2.2c-2.2-0.8-4.1-1.8-5.5-3
			c-1.4-1.2-2.5-2.7-3.2-4.4c-0.7-1.7-1.1-3.8-1.1-6.3c0-1.8,0.3-3.5,1.1-5.1c0.7-1.6,1.7-3,3.1-4.3c1.4-1.2,3-2.3,5-3.1
			c1.9-0.8,4.2-1.4,6.7-1.6v-7.2h6.5V59c2.3,0.3,4.4,0.9,6.2,1.7c1.8,0.8,3.3,1.9,4.6,3.1c1.3,1.2,2.3,2.7,3,4.2
			c0.8,1.6,1.3,3.3,1.6,5.1h-7.3c-0.3-1.1-0.6-2.1-1.2-3.1c-0.5-1-1.2-1.8-2.1-2.5c-0.9-0.7-2-1.3-3.3-1.7c-1.3-0.4-2.9-0.6-4.7-0.6
			c-1.9,0-3.5,0.2-5,0.6c-1.5,0.4-2.7,1-3.7,1.7c-1,0.7-1.8,1.5-2.3,2.5c-0.5,1-0.8,2-0.8,3.1c0,1.4,0.3,2.6,0.8,3.6
			c0.5,1,1.3,1.9,2.4,2.6c1.1,0.7,2.5,1.4,4.2,1.9c1.7,0.6,3.7,1.1,6,1.6c3.4,0.7,6.3,1.6,8.7,2.5c2.4,0.9,4.4,2,5.9,3.3
			c1.5,1.3,2.6,2.8,3.3,4.6c0.7,1.8,1,3.9,1,6.3c0,2-0.4,3.8-1.2,5.5c-0.8,1.7-1.9,3.2-3.4,4.6c-1.5,1.3-3.3,2.4-5.4,3.3
			c-2.2,0.9-4.6,1.4-7.4,1.7v8.7H265V114.6z"/>
	</g>
	<g>
		<path class="st3" d="M410.8,295c-1.3-1.5-2.2-3.1-2.8-4.6c-0.6-1.5-0.9-3-1-4.4c0-1.4,0.2-2.8,0.6-4.1c0.5-1.3,1.1-2.6,2-3.8
			l3.8,3.8c-0.5,0.8-0.8,1.6-1.1,2.4c-0.2,0.9-0.3,1.8-0.1,2.7c0.1,1,0.5,2,1.1,3c0.6,1,1.4,2.1,2.5,3.2c1.1,1.1,2.2,2,3.3,2.6
			c1.1,0.6,2.1,1,3.1,1.2c1,0.2,1.9,0.1,2.7-0.1c0.8-0.2,1.6-0.7,2.2-1.3c0.8-0.8,1.3-1.6,1.6-2.4c0.3-0.8,0.3-1.7,0.1-2.7
			c-0.2-1-0.6-2.2-1.3-3.5c-0.7-1.3-1.5-2.8-2.6-4.6c-1.2-1.9-2.2-3.7-2.9-5.2c-0.7-1.6-1.2-3.1-1.3-4.4c-0.1-1.4,0.1-2.7,0.6-3.9
			c0.5-1.3,1.4-2.5,2.7-3.8c0.9-0.9,2-1.6,3.2-2.1c1.2-0.5,2.5-0.7,3.8-0.6c1.4,0.1,2.8,0.4,4.2,1c1.4,0.6,2.9,1.4,4.3,2.6l3.8-3.8
			l3.4,3.4l-3.8,3.8c1,1.4,1.8,2.7,2.3,4.1c0.5,1.4,0.8,2.7,0.8,4c0,1.3-0.2,2.6-0.6,3.8c-0.4,1.2-1,2.4-1.8,3.5l-3.8-3.8
			c0.4-0.7,0.8-1.4,1-2.2c0.2-0.8,0.3-1.6,0.2-2.4c-0.1-0.8-0.4-1.7-0.9-2.6c-0.5-0.9-1.2-1.8-2.1-2.8c-1-1-1.9-1.7-2.9-2.3
			c-1-0.5-1.9-0.9-2.8-1c-0.9-0.2-1.7-0.1-2.5,0.1c-0.8,0.2-1.4,0.6-2,1.2c-0.7,0.7-1.2,1.5-1.5,2.3c-0.3,0.8-0.3,1.7-0.1,2.6
			c0.2,0.9,0.6,2,1.2,3.2c0.6,1.2,1.3,2.5,2.3,4c1.4,2.1,2.4,4.1,3.2,5.8c0.8,1.7,1.2,3.3,1.4,4.8s-0.1,2.8-0.6,4.1
			c-0.6,1.3-1.5,2.6-2.7,3.8c-1,1-2.2,1.8-3.5,2.3c-1.3,0.5-2.7,0.7-4.1,0.6c-1.5-0.1-3-0.5-4.5-1.1c-1.6-0.7-3.1-1.7-4.7-2.9
			l-4.5,4.5l-3.4-3.4L410.8,295z"/>
	</g>
	<g>
		<path class="st3" d="M107.2,315.9c-2.1,1.7-4.2,3-6.2,3.9c-2.1,0.8-4,1.3-6,1.3c-1.9,0.1-3.8-0.2-5.6-0.9
			c-1.8-0.6-3.5-1.5-5.1-2.7l5.2-5.2c1,0.7,2.1,1.1,3.3,1.5c1.2,0.3,2.4,0.4,3.7,0.2c1.3-0.2,2.7-0.7,4.1-1.5
			c1.4-0.8,2.9-1.9,4.4-3.4c1.5-1.5,2.7-3.1,3.6-4.5c0.9-1.5,1.4-2.9,1.6-4.2c0.2-1.3,0.2-2.6-0.1-3.7c-0.3-1.1-0.9-2.1-1.8-3
			c-1.1-1.1-2.1-1.8-3.2-2.2c-1.1-0.4-2.3-0.4-3.7-0.2c-1.4,0.3-3,0.9-4.7,1.8c-1.8,0.9-3.9,2.1-6.2,3.6c-2.6,1.7-5,3-7.1,4
			c-2.1,1-4.2,1.6-6,1.7c-1.9,0.1-3.7-0.1-5.4-0.9c-1.7-0.7-3.4-2-5.2-3.7c-1.3-1.3-2.2-2.7-2.9-4.4c-0.6-1.6-0.9-3.4-0.8-5.2
			c0.1-1.9,0.5-3.8,1.3-5.7c0.8-2,2-3.9,3.5-5.9l-5.1-5.1l4.6-4.6l5.1,5.1c1.9-1.4,3.7-2.5,5.6-3.2c1.9-0.7,3.7-1,5.4-1
			c1.8,0,3.5,0.3,5.1,0.9c1.6,0.6,3.2,1.4,4.7,2.5l-5.2,5.2c-1-0.6-2-1-3-1.3c-1-0.3-2.1-0.4-3.3-0.2c-1.1,0.1-2.3,0.5-3.5,1.2
			c-1.2,0.6-2.5,1.6-3.8,2.9c-1.3,1.3-2.3,2.6-3.1,4c-0.7,1.3-1.2,2.6-1.4,3.8c-0.2,1.2-0.2,2.3,0.1,3.4c0.3,1,0.9,2,1.6,2.7
			c1,1,2,1.7,3.1,2c1.1,0.3,2.3,0.4,3.5,0.1c1.3-0.3,2.7-0.8,4.3-1.6c1.6-0.8,3.4-1.8,5.4-3.1c2.9-1.9,5.5-3.3,7.9-4.4
			c2.4-1,4.5-1.7,6.5-1.8c2-0.2,3.8,0.1,5.6,0.9c1.7,0.8,3.5,2,5.2,3.7c1.4,1.4,2.4,3,3.1,4.7c0.7,1.8,0.9,3.6,0.8,5.6
			c-0.1,2-0.6,4-1.5,6.2c-0.9,2.1-2.3,4.3-4,6.4l6.2,6.2l-4.6,4.6L107.2,315.9z"/>
	</g>
	<path class="st3" d="M407.5,548.2H129.1c33-23.9,83.1-39.2,139.2-39.2C324.4,509.1,374.5,524.3,407.5,548.2z"/>
</g>
</svg>
