<?xml version="1.0" encoding="utf-8"?>
<!-- Generator: Adobe Illustrator 27.8.1, SVG Export Plug-In . SVG Version: 6.00 Build 0)  -->
<svg version="1.1" id="圖層_1" xmlns="http://www.w3.org/2000/svg" xmlns:xlink="http://www.w3.org/1999/xlink" x="0px" y="0px"
	 viewBox="0 0 1118 99" style="enable-background:new 0 0 1118 99;" xml:space="preserve">
<style type="text/css">
	.st0{fill:#FFFFFF;stroke:#000000;stroke-width:6;stroke-miterlimit:10;}
	.st1{display:none;fill:#FFFFFF;stroke:#000000;stroke-width:6;stroke-miterlimit:10;}
</style>
<path id="wave-bottom-white_00000088101661026219745870000012550304408317241000_" class="st0" d="M-241.2,64.4
	c43.1-10,86.3-23.1,131-33.3C-47.4,16.8,16,9.2,89.1,9.2c188,0,311,58.6,498.7,61c342,4.4,424.2-47.2,538.2-58
	c48.1-4.8,1.8,90.8,1.8,90.8h-1369L-241.2,64.4L-241.2,64.4z"/>
<path id="wave-bottom-white_00000009581717048952922700000013037883927763470521_" class="st1" d="M-3,73.2
	c43.1-10,86.3-23.1,131-33.3C190.7,25.6,254.2,18,327.3,18c188,0,310,75.6,497.8,75.6c125.1,0,198.8-3.2,297.9-22.1v40.3H-3V73.2z"
	/>
</svg>
