<?xml version="1.0" encoding="utf-8"?>
<!-- Generator: Adobe Illustrator 27.8.1, SVG Export Plug-In . SVG Version: 6.00 Build 0)  -->
<svg version="1.1" id="分離模式" xmlns="http://www.w3.org/2000/svg" xmlns:xlink="http://www.w3.org/1999/xlink" x="0px"
	 y="0px" viewBox="0 0 437.8 941.9" style="enable-background:new 0 0 437.8 941.9;" xml:space="preserve">
<style type="text/css">
	.st0{display:none;}
	.st1{display:inline;}
	.st2{fill:#FFFFFF;}
	.st3{fill:#221E1F;}
	.st4{display:inline;fill:#221E1F;}
	.st5{fill:#4FAF49;}
	.st6{display:none;fill:#221E1F;}
</style>
<g id="_x31_8" class="st0">
	<g class="st1">
		<g>
			<polygon class="st2" points="166.9,507 179.6,500.2 203.7,512.5 430.1,546.6 430.1,741.7 297.9,812.4 47.5,684.1 47.5,489 			"/>
			<path d="M297.9,820.5c-1.3,0-2.5-0.3-3.7-0.9L43.8,691.3c-2.7-1.4-4.4-4.2-4.4-7.2V489c0-2.4,1-4.6,2.8-6.2
				c1.8-1.5,4.2-2.2,6.5-1.9l116.7,17.6l10.4-5.5c2.3-1.3,5.2-1.3,7.5-0.1l23,11.8l225,33.9c4,0.6,6.9,4,6.9,8v195.1
				c0,3-1.7,5.7-4.3,7.2l-132.1,70.7C300.6,820.2,299.2,820.5,297.9,820.5z M55.6,679.1l242.2,124.1l124.1-66.4V553.6l-219.4-33
				c-0.9-0.1-1.7-0.4-2.5-0.8l-20.4-10.4l-9,4.8c-1.5,0.8-3.3,1.1-5,0.9L55.5,498.5L55.6,679.1L55.6,679.1z"/>
		</g>
		<g>
			<polygon class="st2" points="179.6,418.3 430.1,546.6 297.9,617.3 47.5,489 			"/>
			<path d="M297.9,625.4c-1.3,0-2.5-0.3-3.7-0.9L43.8,496.2c-2.7-1.4-4.4-4.1-4.4-7.2c0-3,1.6-5.8,4.3-7.2l132.1-70.7
				c2.3-1.3,5.2-1.3,7.5-0.1l250.5,128.3c2.7,1.4,4.4,4.1,4.4,7.2c0,3-1.6,5.8-4.3,7.2l-132.1,70.7
				C300.6,625.1,299.2,625.4,297.9,625.4z M65,488.8l232.9,119.3l114.7-61.4L179.7,427.5L65,488.8z"/>
		</g>
		<g>
			<g>
				<path class="st2" d="M356,537.4l-161.2-82.6c-2.8,5.5-8.4,9.2-15,9.2c-6.5,0-12-3.7-14.9-9L121,478.5c1.7,3.1,2.8,6.6,2.8,10.4
					c0,3.4-0.8,6.5-2.2,9.3l161.2,82.6c2.8-5.5,8.4-9.3,15.1-9.3c6.4,0,11.9,3.6,14.8,8.9l43.5-23.3c-1.6-3-2.6-6.4-2.6-10.1
					C353.6,543.5,354.5,540.3,356,537.4z"/>
				<path d="M282.9,589c-1.3,0-2.5-0.3-3.7-0.9L118,505.5c-3.9-2-5.5-6.8-3.6-10.8c0.9-1.9,1.4-3.8,1.4-5.7c0-2.2-0.6-4.3-1.8-6.4
					c-1.1-1.9-1.3-4.2-0.7-6.3c0.6-2.1,2-3.9,4-4.9l43.9-23.5c3.9-2.1,8.9-0.6,11,3.3c1.6,2.9,4.5,4.7,7.7,4.7
					c3.3,0,6.2-1.8,7.8-4.8c2.1-4,6.9-5.6,10.9-3.5l161.2,82.6c4,2,5.6,6.9,3.5,10.9c-1,2-1.5,4-1.5,6c0,2.1,0.6,4.2,1.7,6.2
					c1,1.9,1.3,4.1,0.6,6.2c-0.6,2.1-2,3.8-3.9,4.8l-43.5,23.3c-3.9,2.1-8.8,0.6-11-3.3c-1.6-2.9-4.5-4.6-7.7-4.6
					c-3.3,0-6.3,1.9-7.8,4.9c-1,1.9-2.7,3.4-4.7,4.1C284.6,588.9,283.7,589,282.9,589z M131.5,494.2l148.9,76.3
					c4.6-4.5,10.8-7.1,17.4-7.1c6.4,0,12.4,2.4,16.9,6.7l31.4-16.8c-0.5-2.1-0.7-4.2-0.7-6.3c0-1.9,0.2-3.8,0.6-5.6l-148.8-76.3
					c-4.6,4.5-10.7,7-17.3,7c-6.4,0-12.4-2.5-17-6.7l-31.6,16.9c0.5,2.2,0.8,4.4,0.8,6.6C132,490.8,131.9,492.5,131.5,494.2z"/>
			</g>
		</g>
		<g>
			<path class="st2" d="M297.9,617.3v154.4V617.3z"/>
			<path d="M297.9,779.9c-4.5,0-8.1-3.6-8.1-8.1V617.3c0-4.5,3.6-8.1,8.1-8.1s8.1,3.6,8.1,8.1v154.4
				C306,776.2,302.4,779.9,297.9,779.9z"/>
		</g>
		<g>
			<polygon class="st2" points="262.3,460.7 130.2,531.2 130.2,726.5 211.7,768.2 211.7,573.1 343.8,502.4 			"/>
			<path d="M211.7,776.3c-1.3,0-2.5-0.3-3.7-0.9l-81.5-41.7c-2.7-1.4-4.4-4.2-4.4-7.2V531.2c0-3,1.7-5.8,4.3-7.2l132.1-70.6
				c2.3-1.3,5.2-1.3,7.5-0.1l81.5,41.8c2.7,1.4,4.4,4.1,4.4,7.2c0,3-1.6,5.8-4.3,7.2L219.8,578v190.2c0,2.8-1.5,5.5-3.9,6.9
				C214.6,775.9,213.2,776.3,211.7,776.3z M138.3,721.5l65.2,33.4V573.1c0-3,1.7-5.7,4.3-7.2l118.5-63.4l-63.9-32.8l-124,66.3v185.5
				H138.3z"/>
		</g>
		<g>
			<path class="st2" d="M430.2,597.5l-73.9,39.6L430.2,597.5z"/>
			<path d="M356.3,645.2c-2.9,0-5.7-1.6-7.2-4.3c-2.1-4-0.6-8.9,3.3-11l73.9-39.6c3.9-2.1,8.9-0.6,11,3.3c2.1,4,0.6,8.9-3.3,11
				l-73.9,39.6C358.9,644.9,357.6,645.2,356.3,645.2z"/>
		</g>
	</g>
	<g class="st1">
		<g>
			<path class="st2" d="M224.1,941.9c-3.8,0-7.6-0.9-11.1-2.7L-37.4,810.9c-8.1-4.2-13.3-12.6-13.3-21.7V687.7c0-9,5-17.3,12.9-21.5
				l132.1-70.7c3.6-1.9,7.5-2.9,11.5-2.9c3.8,0,7.6,0.9,11.1,2.7l250.5,128.3c8.1,4.2,13.3,12.6,13.3,21.7v101.5
				c0,9-5,17.3-12.9,21.5L235.7,939C232,941,228.1,941.9,224.1,941.9z"/>
		</g>
		<g>
			<polygon class="st2" points="93.1,705.7 105.8,698.9 130,711.3 356.3,745.4 356.3,846.9 224.1,917.6 -26.3,789.2 -26.3,687.7 			
				"/>
			<path d="M224.1,925.7c-1.3,0-2.5-0.3-3.7-0.9L-30,796.5c-2.7-1.4-4.4-4.2-4.4-7.2V687.7c0-2.4,1-4.6,2.8-6.2
				c1.8-1.5,4.2-2.2,6.5-1.9l116.7,17.6l10.4-5.5c2.3-1.3,5.2-1.3,7.5-0.1l23,11.8l225,33.9c4,0.6,6.9,4,6.9,8v101.5
				c0,3-1.7,5.7-4.3,7.2L228,924.7C226.8,925.4,225.4,925.7,224.1,925.7z M-18.2,784.3L224,908.4L348.1,842v-89.6l-219.4-33
				c-0.9-0.1-1.7-0.4-2.5-0.8l-20.4-10.4l-9,4.8c-1.5,0.8-3.3,1.1-5,0.9l-110-16.7V784.3z"/>
		</g>
		<g>
			<polygon class="st2" points="105.8,617 356.3,745.4 224.1,816 -26.3,687.7 			"/>
			<path d="M224.1,824.2c-1.3,0-2.5-0.3-3.7-0.9L-30,695c-2.7-1.4-4.4-4.1-4.4-7.2c0-3,1.6-5.8,4.3-7.2L102,609.9
				c2.3-1.3,5.2-1.3,7.5-0.1L360,738.1c2.7,1.4,4.4,4.1,4.4,7.2c0,3-1.6,5.8-4.3,7.2L228,823.2C226.8,823.9,225.4,824.2,224.1,824.2
				z M-8.8,687.6l232.9,119.3l114.7-61.4L105.9,626.2L-8.8,687.6z"/>
		</g>
		<g>
			<g>
				<path class="st2" d="M282.2,736.1L121,653.5c-2.8,5.5-8.4,9.2-15,9.2c-6.5,0-12-3.7-14.9-9l-43.9,23.5c1.7,3.1,2.8,6.6,2.8,10.4
					c0,3.4-0.8,6.5-2.2,9.3L209,779.5c2.8-5.5,8.4-9.3,15.1-9.3c6.4,0,11.9,3.6,14.8,8.9l43.5-23.3c-1.6-3-2.6-6.4-2.6-10.1
					C279.8,742.3,280.7,739,282.2,736.1z"/>
				<path d="M209.1,787.8c-1.3,0-2.5-0.3-3.7-0.9L44.2,704.3c-3.9-2-5.5-6.8-3.6-10.8c0.9-1.9,1.4-3.8,1.4-5.7
					c0-2.2-0.6-4.3-1.8-6.4c-1.1-1.9-1.3-4.2-0.7-6.3c0.6-2.1,2-3.9,4-4.9l43.9-23.5c3.9-2.1,8.9-0.6,11,3.3
					c1.6,2.9,4.5,4.7,7.7,4.7c3.3,0,6.2-1.9,7.8-4.8c2-4,6.9-5.6,10.9-3.5L286,729c4,2,5.6,6.9,3.5,10.9c-1,2-1.5,4-1.5,5.9
					c0,2.1,0.6,4.2,1.7,6.2c1,1.9,1.3,4.1,0.6,6.2c-0.6,2.1-2,3.8-3.9,4.8l-43.5,23.3c-3.9,2.1-8.8,0.6-11-3.3
					c-1.6-2.9-4.5-4.6-7.7-4.6c-3.3,0-6.3,1.9-7.8,4.9c-1,1.9-2.7,3.4-4.7,4.1C210.8,787.6,209.9,787.8,209.1,787.8z M57.7,693
					l148.9,76.3c4.6-4.5,10.8-7.1,17.4-7.1c6.4,0,12.4,2.4,16.9,6.7l31.4-16.8c-0.5-2.1-0.7-4.1-0.7-6.3c0-1.9,0.2-3.8,0.6-5.6
					l-148.9-76.3c-4.6,4.5-10.7,7-17.3,7c-6.4,0-12.5-2.5-17-6.7l-31.6,16.9c0.5,2.2,0.8,4.4,0.8,6.6
					C58.2,689.5,58.1,691.2,57.7,693z"/>
			</g>
		</g>
		<g>
			<path class="st2" d="M224.1,816v60.9V816z"/>
			<path d="M224.1,885c-4.5,0-8.1-3.6-8.1-8.1V816c0-4.5,3.6-8.1,8.1-8.1s8.1,3.6,8.1,8.1v60.9C232.2,881.4,228.6,885,224.1,885z"/>
		</g>
		<g>
			<polygon class="st2" points="188.5,659.4 56.4,730 56.4,831.6 137.9,873.4 137.9,771.9 270,701.2 			"/>
			<path d="M137.9,881.5c-1.3,0-2.5-0.3-3.7-0.9l-81.5-41.7c-2.7-1.4-4.4-4.2-4.4-7.2V730c0-3,1.7-5.8,4.3-7.2l132.1-70.6
				c2.3-1.3,5.2-1.3,7.5-0.1l81.5,41.8c2.7,1.4,4.4,4.1,4.4,7.2c0,3-1.6,5.8-4.3,7.2l-127.9,68.4v96.6c0,2.8-1.5,5.5-3.9,6.9
				C140.8,881.1,139.4,881.5,137.9,881.5z M64.5,826.7l65.2,33.4v-88.2c0-3,1.7-5.7,4.3-7.2l118.5-63.4l-63.9-32.8l-124,66.3
				L64.5,826.7L64.5,826.7z"/>
		</g>
		<g>
			<path class="st2" d="M298.1,808.4L224.2,848L298.1,808.4z"/>
			<path d="M224.1,856c-2.9,0-5.7-1.6-7.2-4.3c-2.1-4-0.6-8.9,3.3-11l73.9-39.6c4-2.1,8.9-0.6,11,3.3c2.1,4,0.6,8.9-3.3,11
				L227.9,855C226.7,855.7,225.4,856,224.1,856z"/>
		</g>
	</g>
</g>
<g class="st0">
	<g class="st1">
		
			<ellipse transform="matrix(0.7071 -0.7071 0.7071 0.7071 -159.9764 205.2674)" class="st2" cx="167.8" cy="295.7" rx="72.8" ry="72.8"/>
		<g>
			<path class="st3" d="M237.2,295.7c0,14.5-4.5,28.6-12.9,40.4c-8,11.3-19.6,20.1-32.6,24.8c-13.7,4.9-28.7,5.5-42.6,1.6
				c-13.6-3.8-25.7-11.9-34.7-22.7c-18.5-22.3-20.7-55-5.8-79.8c15-24.8,44.8-38.1,73.3-32.2c13.8,2.8,26.4,9.8,36.1,19.9
				c9.9,10.3,16.3,23.4,18.6,37.5C237,288.6,237.2,292.2,237.2,295.7c0,4.5,7,4.5,7,0c-0.1-15.8-4.9-31.4-14.2-44.3
				c-9-12.5-21.6-22.1-36.1-27.5c-29.9-11-64.7-1.4-84.9,23.2c-10,12.2-16,27-17.2,42.7c-1.3,15.8,2.6,32,10.9,45.5
				c7.9,12.9,19.7,23.5,33.6,29.8c14.7,6.6,31.1,8.5,46.8,5.3c30.7-6.1,55.4-31.8,60.1-62.8c0.6-4,0.9-8,1-12
				C244.2,291.2,237.2,291.2,237.2,295.7z"/>
		</g>
	</g>
	<g class="st1">
		<path class="st3" d="M219.1,295.7c-0.1,21.2-13.5,40.9-33.6,48.1c-20.4,7.4-43.4,1.1-57.3-15.6c-13.7-16.5-15.3-40.7-4.3-58.9
			c11-18.3,33-28.2,54-23.9s37.3,21.4,40.7,42.6C219,290.6,219.1,293.1,219.1,295.7c0,4.5,7,4.5,7,0c-0.1-24.3-15.5-46.2-38.2-54.7
			c-22.7-8.4-49.4-1.2-64.8,17.6c-15.5,18.9-17.8,46.2-5,67.2c12.7,20.9,37.6,31.7,61.5,26.9c23.3-4.6,42.2-24.2,45.8-47.7
			c0.5-3.1,0.8-6.2,0.8-9.3C226.1,291.2,219.1,291.2,219.1,295.7z"/>
	</g>
	<path class="st4" d="M165.2,319.8c-2.3-0.2-4.4-0.7-6.1-1.4c-1.8-0.7-3.3-1.7-4.5-2.8c-1.2-1.1-2.2-2.5-2.9-3.9
		c-0.7-1.5-1.2-3.1-1.5-4.8h6.3c0.2,1,0.6,2,1.1,2.9s1.3,1.7,2.2,2.4c0.9,0.7,2,1.2,3.4,1.6c1.3,0.4,2.9,0.6,4.8,0.6
		c1.9,0,3.5-0.2,5-0.6c1.4-0.4,2.6-0.9,3.6-1.6s1.7-1.5,2.2-2.4s0.7-1.9,0.7-3c0-1.3-0.2-2.4-0.6-3.3c-0.4-0.9-1.1-1.7-2.1-2.4
		c-1-0.7-2.3-1.3-4-1.8c-1.6-0.5-3.6-1.1-6-1.6c-2.6-0.6-4.9-1.2-6.8-1.9c-1.9-0.7-3.5-1.6-4.7-2.6c-1.2-1.1-2.1-2.3-2.8-3.8
		c-0.6-1.5-0.9-3.3-0.9-5.4c0-1.6,0.3-3,0.9-4.4c0.6-1.4,1.5-2.6,2.7-3.7s2.6-2,4.3-2.7s3.6-1.2,5.7-1.4v-6.2h5.6v6.2
		c2,0.3,3.8,0.8,5.3,1.5s2.9,1.6,4,2.7s2,2.3,2.6,3.7c0.6,1.4,1.1,2.8,1.4,4.4h-6.3c-0.2-0.9-0.6-1.8-1-2.7
		c-0.4-0.8-1.1-1.5-1.8-2.1c-0.8-0.6-1.7-1.1-2.9-1.4c-1.1-0.4-2.5-0.5-4.1-0.5s-3,0.2-4.3,0.5c-1.3,0.4-2.3,0.8-3.2,1.4
		s-1.5,1.3-2,2.1c-0.4,0.8-0.7,1.7-0.7,2.7c0,1.2,0.2,2.2,0.7,3.1c0.4,0.9,1.1,1.6,2.1,2.2c0.9,0.6,2.1,1.2,3.6,1.7s3.2,1,5.2,1.4
		c2.9,0.6,5.4,1.3,7.5,2.1c2.1,0.8,3.8,1.8,5.1,2.9s2.3,2.4,2.9,3.9c0.6,1.5,0.9,3.3,0.9,5.4c0,1.7-0.3,3.3-1,4.8s-1.6,2.8-2.9,3.9
		c-1.3,1.1-2.8,2.1-4.7,2.8c-1.9,0.7-4,1.2-6.3,1.4v7.5h-5.7V319.8z"/>
</g>
<g class="st0">
	<g class="st1">
		<ellipse class="st5" cx="166.4" cy="410" rx="37.5" ry="70.5"/>
		<g>
			<path class="st3" d="M171.6,566.7c0-4.7,0-9.5,0-14.2c0-11.4,0-22.8,0-34.2c0-13.7,0-27.5,0-41.2c0-11.9,0-23.8,0-35.6
				c0-5.8,0.3-11.6,0-17.4c0-0.1,0-0.2,0-0.2c0-3.8-8.1-3.8-8.1,0c0,4.7,0,9.5,0,14.2c0,11.4,0,22.8,0,34.2c0,13.7,0,27.5,0,41.2
				c0,11.9,0,23.8,0,35.6c0,5.8-0.3,11.6,0,17.4c0,0.1,0,0.2,0,0.2C163.5,570.5,171.6,570.5,171.6,566.7L171.6,566.7z"/>
		</g>
		<g>
			<g>
				<path class="st2" d="M359.9,550.8H-24.8c-12.1,0-22,9.8-22,22V630c0,12.1,9.8,22,22,22h10.1l10.6,82l18.7,144.5
					c4.4,33.9,33.3,59.3,67.5,59.3H253c34.2,0,63.1-25.4,67.5-59.3L349.8,652h10.1c12.1,0,22-9.8,22-22v-57.2
					C381.8,560.7,372,550.8,359.9,550.8z"/>
				<g>
					<path class="st3" d="M359.9,546.8c-5.5,0-11,0-16.5,0c-14.4,0-28.7,0-43.1,0c-20.4,0-40.9,0-61.3,0c-23.3,0-46.7,0-70,0
						c-23.5,0-47,0-70.6,0c-20.5,0-41,0-61.5,0c-14.7,0-29.5,0-44.2,0c-5.9,0-11.7-0.1-17.6,0c-14.6,0.2-26,12-26,26.5
						c0,8.6,0,17.2,0,25.8c0,9.7,0,19.3,0,29c0,4.8,0.7,9.5,2.9,13.9c3.9,7.7,11.6,12.9,20.1,13.9c4.3,0.5,8.7,0.2,13.1,0.2
						c-1.3-1.3-2.7-2.7-4-4c1.4,10.8,2.8,21.6,4.2,32.4c1.9,15.1,3.9,30.1,5.8,45.2c0.6,4.9,1.3,9.8,1.9,14.8c1.8,14,3.6,28,5.4,42
						c2.2,17.2,4.4,34.4,6.7,51.6c1.6,12,3.1,24.1,4.7,36.1c0.4,3.2,0.8,6.5,1.4,9.7c2.4,12.2,8,23.7,16.1,33.1
						c13.7,16,34.1,25,55.1,25c8.2,0,16.3,0,24.5,0c15.8,0,31.6,0,47.4,0c17.3,0,34.6,0,51.9,0c12.7,0,25.3,0,38,0c2.7,0,5.4,0,8,0
						c8.9,0,17.8-1.5,26.1-4.7c23.1-8.9,40.7-29.5,45.2-54c1.1-5.9,1.6-11.9,2.4-17.9c1.6-12.1,3.1-24.3,4.7-36.4
						c2.1-16.4,4.2-32.8,6.4-49.2c2.3-17.5,4.5-34.9,6.8-52.4c1.9-14.9,3.8-29.7,5.8-44.6c1.2-9,2.3-18.1,3.5-27.1
						c0.2-1.2,0.3-2.4,0.5-3.6c-1.3,1.3-2.7,2.7-4,4c3.4,0,6.7,0,10.1,0c7.4-0.1,14.7-3.2,19.5-8.8c4.2-4.9,6.4-10.9,6.5-17.3
						c0-2.1,0-4.2,0-6.3c0-16.6,0-33.3,0-49.9c0-5.5-1.3-10.9-4.5-15.4C376.4,551.1,368.5,546.9,359.9,546.8c-5.2-0.1-5.2,8,0,8.1
						c10.4,0.1,17.9,8.5,17.9,18.7c0,6.6,0,13.1,0,19.7c0,9,0,18,0,27c0,5.4,0.8,11.8-1.4,16.9c-2.6,6.1-8.7,10.5-15.3,10.9
						c-3.7,0.2-7.5,0-11.3,0c-2.4,0-3.8,1.9-4,4c-0.6,4.8-1.3,9.7-1.9,14.5c-1.6,12.3-3.2,24.6-4.8,36.9
						c-2.1,16.4-4.2,32.7-6.4,49.1c-2.2,17.2-4.5,34.5-6.7,51.7c-1.9,14.7-3.8,29.3-5.7,44c-1.1,8.9-2.3,17.8-3.4,26.7
						c-1.7,13-6,25.4-14.5,35.6c-12.5,15-30.8,23.3-50.2,23.3c-8.4,0-16.7,0-25.1,0c-15.7,0-31.4,0-47,0c-17.2,0-34.3,0-51.5,0
						c-12.6,0-25.2,0-37.8,0c-2.7,0-5.4,0-8.1,0c-8.2,0-16.1-1.4-23.7-4.3c-21.5-8.2-37.1-28.3-40.3-51c-1-7.2-1.9-14.5-2.8-21.7
						c-2-15.8-4.1-31.6-6.1-47.4c-2.1-16.3-4.2-32.7-6.3-49c-1.1-8.7-2.2-17.3-3.4-26c-1.1-8.6-2.2-17.1-3.3-25.7
						c-2.1-15.9-4.1-31.9-6.2-47.8c-0.4-3-0.8-6-1.2-8.9c-0.3-2.2-1.6-4-4-4c-4.3,0-8.9,0.5-13.1-0.2c-7.2-1.3-12.9-6.9-14.5-14
						c-0.6-2.6-0.4-5.4-0.4-8c0-4.6,0-9.2,0-13.8c0-10.8,0-21.6,0-32.3c0-2.2,0-4.5,0-6.7c0.1-7.1,4.3-13.7,10.9-16.5
						c3.2-1.4,6.5-1.4,9.9-1.4c3.5,0,7.1,0,10.6,0c13.4,0,26.8,0,40.2,0c19.5,0,39,0,58.5,0c22.8,0,45.6,0,68.4,0
						c23.3,0,46.6,0,69.9,0c21,0,42,0,63,0c15.8,0,31.5,0,47.3,0c7.7,0,15.3,0,23,0c0.3,0,0.7,0,1,0
						C365.1,554.9,365.1,546.8,359.9,546.8z"/>
				</g>
			</g>
			<g>
				<path class="st3" d="M349.8,648c-3.3,0-6.5,0-9.8,0c-8.9,0-17.7,0-26.6,0c-13,0-26.1,0-39.1,0c-16,0-31.9,0-47.9,0
					c-17.5,0-35,0-52.5,0c-17.6,0-35.2,0-52.8,0c-16.5,0-32.9,0-49.4,0c-13.9,0-27.8,0-41.7,0c-10,0-20,0-30,0
					c-4.7,0-9.5-0.1-14.2,0c-0.2,0-0.4,0-0.6,0c-5.2,0-5.2,8.1,0,8.1c3.3,0,6.5,0,9.8,0c8.9,0,17.7,0,26.6,0c13,0,26.1,0,39.1,0
					c16,0,31.9,0,47.9,0c17.5,0,35,0,52.5,0c17.6,0,35.2,0,52.8,0c16.5,0,32.9,0,49.4,0c13.9,0,27.8,0,41.7,0c10,0,20,0,30,0
					c4.7,0,9.5,0.1,14.2,0c0.2,0,0.4,0,0.6,0C355,656,355,648,349.8,648L349.8,648z"/>
			</g>
		</g>
		<polygon class="st6" points="484.4,708.4 418.7,774 410.3,708.4 		"/>
	</g>
	<path class="st4" d="M306.8,550.8H28.3c33-23.9,83.1-39.2,139.2-39.2C223.7,511.7,273.8,526.9,306.8,550.8z"/>
</g>
<g class="st0">
	<g class="st1">
		<ellipse class="st2" cx="74.9" cy="247.3" rx="73.2" ry="73.2"/>
		<g>
			<path class="st3" d="M141.3,226.4c4.3,13.9,4.3,28.8-0.2,42.6c-4.3,13.2-12.8,25.2-23.8,33.6c-11.6,8.8-25.8,13.9-40.4,14.4
				c-14.2,0.4-28.3-3.6-40.2-11.3C12.2,289.9,0.3,259.2,7.1,231c6.9-28.3,31.5-50,60.5-53c14-1.4,28.2,1.4,40.6,8.2
				c12.6,6.9,22.7,17.5,29.1,30.3C139,219.7,140.3,223,141.3,226.4c1.4,4.3,8,2.2,6.7-2.1c-4.8-15.1-14.2-28.6-26.9-38.2
				c-12.4-9.3-27.4-14.7-42.9-15.5c-32-1.5-62.5,18.2-74.4,47.8c-5.9,14.7-7.2,30.8-3.6,46.2c3.6,15.5,12.2,29.9,24.2,40.4
				c11.5,10,26,16.6,41.2,18.4c16.1,1.9,32.3-1.3,46.5-9c27.6-15.1,43.5-47.2,38.7-78.3c-0.6-4-1.5-7.9-2.7-11.8
				C146.7,220,140,222.1,141.3,226.4z"/>
		</g>
	</g>
	<g class="st1">
		<path class="st3" d="M124,231.9c6.3,20.3-0.6,43.3-17.7,56.3C89,301.4,65,302.3,46.7,290.6c-18.1-11.6-27-34.4-21.9-55.2
			c5-20.9,23.1-37,44.6-39.2c21.4-2.2,42.2,9.3,51.8,28.5C122.3,227,123.2,229.4,124,231.9c1.4,4.3,8,2.2,6.7-2.1
			c-7.4-23.3-28.8-39.7-53.2-40.9s-47.8,13.8-56.8,36.4c-9.2,22.8-3.1,49.7,15.5,66c18.5,16.2,45.6,19.1,67.1,7.3
			c20.9-11.5,33.1-35.9,29.5-59.6c-0.5-3.1-1.1-6.2-2.1-9.2C129.3,225.5,122.7,227.6,124,231.9z"/>
	</g>
	<path class="st4" d="M78.9,268.5c-2.3,0.5-4.4,0.6-6.3,0.5c-1.9-0.2-3.6-0.6-5.1-1.4c-1.5-0.7-2.8-1.7-4-2.9
		c-1.1-1.2-2.1-2.6-2.9-4.1l6.1-1.9c0.5,0.9,1.2,1.7,2,2.5c0.8,0.7,1.7,1.3,2.8,1.6c1.1,0.4,2.3,0.5,3.7,0.5c1.4,0,3-0.3,4.7-0.9
		c1.8-0.6,3.3-1.2,4.6-2s2.2-1.7,3-2.6c0.7-0.9,1.2-1.9,1.4-2.9s0.1-2-0.2-3.1c-0.4-1.2-0.9-2.2-1.6-3c-0.7-0.7-1.6-1.3-2.8-1.6
		s-2.6-0.5-4.3-0.5s-3.8,0.1-6.3,0.3c-2.7,0.2-5,0.3-7.1,0.2s-3.8-0.4-5.3-1.1c-1.5-0.6-2.8-1.6-3.8-2.8s-1.9-2.9-2.5-4.9
		c-0.5-1.5-0.6-3-0.5-4.5c0.2-1.5,0.6-3,1.5-4.4c0.8-1.4,1.9-2.7,3.3-3.9s3.1-2.2,5.1-3.1l-1.9-6l5.4-1.7l1.9,6
		c2-0.4,3.9-0.4,5.6-0.2s3.2,0.7,4.6,1.4c1.4,0.7,2.6,1.6,3.6,2.7c1,1.1,1.9,2.4,2.6,3.8l-6.1,1.9c-0.5-0.8-1.1-1.6-1.8-2.2
		c-0.7-0.7-1.5-1.2-2.4-1.5s-2-0.5-3.2-0.5s-2.6,0.2-4.1,0.7s-2.9,1.1-4,1.8s-2,1.5-2.6,2.3c-0.7,0.8-1.1,1.7-1.3,2.7
		c-0.2,0.9-0.1,1.8,0.2,2.7c0.4,1.2,0.9,2.1,1.6,2.8s1.6,1.2,2.7,1.5s2.4,0.5,4,0.5c1.5,0,3.3,0,5.4-0.2c3-0.3,5.6-0.3,7.8-0.2
		s4.2,0.5,5.8,1.2s2.9,1.6,4,2.9c1,1.3,1.9,2.9,2.5,4.9c0.5,1.6,0.7,3.3,0.5,4.9s-0.7,3.2-1.6,4.6c-0.9,1.5-2.1,2.9-3.7,4.1
		c-1.6,1.3-3.4,2.4-5.7,3.3l2.3,7.2l-5.4,1.7L78.9,268.5z"/>
</g>
<g class="st0">
	<g class="st1">
		<ellipse class="st2" cx="275.8" cy="208.4" rx="84.3" ry="84.3"/>
		<g>
			<path class="st3" d="M342.1,253.8c-9.5,13.8-23,24.3-38.8,30.1c-15,5.5-31.9,6.4-47.4,2.4c-16.3-4.2-31-13.5-41.8-26.4
				c-10.5-12.6-16.8-28.2-18.3-44.5c-3.1-33.4,16.2-66.1,46.6-80c30.6-14,67.7-7.1,91.1,17.2c11.3,11.7,18.8,26.6,21.5,42.6
				c2.7,16.3,0.3,33.1-6.7,47.9C346.5,246.8,344.4,250.4,342.1,253.8c-2.9,4.3,3.7,8.9,6.7,4.6c10.3-15.1,15.8-33.3,15.4-51.6
				c-0.4-17.9-6.2-35.3-16.5-49.9c-21.4-30-60.9-43.7-96.3-33.4c-17.5,5.1-33,15.4-44.4,29.6c-11.5,14.3-18.4,32.3-19.4,50.6
				c-0.9,17.6,3.5,35.4,12.7,50.4c9.7,15.9,24.2,28.4,41.3,35.7c33.3,14.2,73.8,5.8,98.5-20.7c3.2-3.4,6.1-7,8.8-10.8
				C351.7,254.1,345.1,249.5,342.1,253.8z"/>
		</g>
	</g>
	<g class="st1">
		<path class="st3" d="M324.8,241.9c-13.9,20.2-39.6,30.2-63.6,24.1c-24.3-6.3-42.2-27.4-44.6-52.4c-2.4-24.7,11.9-48.9,34.4-59.2
			s50-5.3,67.2,12.5c17.3,17.8,21.6,44.9,11,67.3C328.1,236.9,326.5,239.5,324.8,241.9c-2.9,4.3,3.7,8.9,6.7,4.6
			c15.8-23.3,15.4-54.3-0.8-77.3c-16.2-22.9-46.5-33.5-73.4-25.6c-27.2,8-47.2,32.6-48.7,61c-1.5,28.3,15.2,54.9,41.2,66
			c25.3,10.8,56.1,4.4,75-15.7c2.5-2.6,4.8-5.4,6.8-8.4C334.4,242.2,327.8,237.7,324.8,241.9z"/>
	</g>
	<path class="st4" d="M259.5,227.1c-2.1-1.7-3.7-3.5-4.9-5.4c-1.2-1.9-2-3.7-2.4-5.6c-0.4-1.9-0.5-3.8-0.2-5.6
		c0.3-1.9,0.8-3.7,1.7-5.5l6,4.1c-0.5,1.1-0.7,2.3-0.8,3.5c-0.1,1.2,0.1,2.5,0.5,3.7c0.4,1.2,1.2,2.5,2.2,3.7s2.4,2.5,4.2,3.7
		c1.8,1.2,3.5,2.1,5.1,2.7c1.6,0.6,3.1,0.9,4.5,0.8c1.4,0,2.6-0.3,3.6-0.8c1.1-0.5,1.9-1.3,2.6-2.3c0.8-1.2,1.4-2.4,1.5-3.6
		c0.2-1.1,0-2.4-0.5-3.7s-1.4-2.7-2.6-4.3s-2.8-3.4-4.7-5.5c-2.1-2.3-3.8-4.3-5.2-6.3c-1.4-1.9-2.3-3.8-2.8-5.6s-0.5-3.6-0.2-5.4
		c0.4-1.8,1.3-3.7,2.7-5.8c1-1.5,2.3-2.7,3.8-3.6c1.5-0.9,3.1-1.5,5-1.8c1.8-0.3,3.8-0.2,5.9,0.2c2.1,0.4,4.2,1.2,6.4,2.4l4.1-6
		l5.4,3.7l-4.1,6c1.7,1.6,3.1,3.2,4.1,4.9s1.7,3.4,2,5.2c0.3,1.7,0.4,3.5,0.1,5.2s-0.8,3.4-1.6,5.1l-6-4.1c0.4-1,0.7-2.1,0.8-3.2
		c0.1-1.1,0-2.2-0.4-3.3c-0.4-1.1-1-2.2-1.8-3.3c-0.9-1.1-2-2.1-3.5-3.2c-1.5-1.1-3-1.8-4.5-2.3c-1.4-0.5-2.8-0.7-4-0.7
		s-2.3,0.3-3.3,0.8s-1.8,1.2-2.4,2.1c-0.8,1.2-1.3,2.3-1.4,3.4c-0.1,1.1,0,2.3,0.5,3.5s1.3,2.5,2.3,4c1.1,1.4,2.4,3,4.1,4.8
		c2.4,2.5,4.3,4.8,5.8,7c1.5,2.1,2.5,4.2,3,6.1c0.5,1.9,0.6,3.8,0.2,5.6c-0.4,1.9-1.3,3.8-2.7,5.8c-1.1,1.6-2.5,2.9-4.1,3.9
		c-1.6,1-3.4,1.6-5.4,1.8c-2,0.3-4.1,0.1-6.3-0.4c-2.3-0.5-4.6-1.4-7-2.8l-4.9,7.2l-5.4-3.7L259.5,227.1z"/>
</g>
<g class="st0">
	<g class="st1">
		<g>
			<g>
				<g>
					<path class="st2" d="M359.9,550.8H-24.8c-12.1,0-22,9.8-22,22V630c0,12.1,9.8,22,22,22h10.1l29.3,226.6
						c4.4,33.9,33.3,59.3,67.5,59.3H253c34.2,0,63.1-25.4,67.5-59.3L349.8,652h10.1c12.1,0,22-9.8,22-22v-57.2
						C381.8,560.7,372,550.8,359.9,550.8z"/>
					<g>
						<path class="st3" d="M359.9,546.8c-5.5,0-11,0-16.5,0c-14.5,0-28.9,0-43.4,0c-20.3,0-40.7,0-61,0c-23.5,0-46.9,0-70.4,0
							s-47,0-70.5,0c-20.5,0-41,0-61.6,0c-14.6,0-29.3,0-43.9,0c-5.8,0-11.6-0.1-17.4,0c-14.6,0.2-26,12.1-26,26.6
							c0,8.6,0,17.3,0,25.9c0,9.6,0,19.2,0,28.8c0,4.9,0.7,9.5,2.9,13.9c3.9,7.7,11.7,12.8,20.1,13.8c4.3,0.5,8.7,0.2,13,0.2
							c-1.3-1.3-2.7-2.7-4-4c0.6,4.9,1.3,9.8,1.9,14.8c1.6,12.5,3.2,25,4.8,37.4c2.1,16.6,4.3,33.2,6.4,49.9
							c2.2,17.3,4.5,34.7,6.7,52c1.9,14.6,3.8,29.2,5.7,43.8c1.1,8.6,2.2,17.2,3.3,25.8c0.4,2.9,0.7,5.8,1.3,8.7
							c2.4,12.1,8.1,23.4,16.2,32.7c13.7,15.9,34.1,24.8,55,24.8c8.2,0,16.4,0,24.6,0c15.8,0,31.6,0,47.5,0c17.3,0,34.6,0,51.9,0
							c12.6,0,25.3,0,37.9,0c2.7,0,5.3,0,8,0c9,0,17.9-1.5,26.3-4.8c23-9,40.5-29.5,45-53.9c1.1-5.9,1.6-11.9,2.4-17.9
							c1.6-12.1,3.1-24.3,4.7-36.4c2.1-16.5,4.3-33,6.4-49.4c2.2-17.4,4.5-34.8,6.7-52.2c1.9-14.9,3.9-29.8,5.8-44.7
							c1.2-9,2.3-18,3.5-27c0.2-1.2,0.3-2.4,0.5-3.6c-1.3,1.3-2.7,2.7-4,4c3.5,0,6.9,0.1,10.4,0c7.3-0.1,14.4-3.3,19.2-8.8
							c4.2-4.9,6.4-10.9,6.5-17.3c0-2.1,0-4.2,0-6.3c0-16.6,0-33.3,0-49.9c0-5.6-1.4-11.1-4.7-15.7
							C376.2,551,368.4,546.9,359.9,546.8c-5.2-0.1-5.2,8,0,8.1c10.3,0.1,17.9,8.5,17.9,18.6c0,6.5,0,13,0,19.5c0,9.1,0,18.1,0,27.2
							c0,5.5,0.8,12.1-1.6,17.2c-2.7,5.8-8.4,10-14.9,10.5c-3.8,0.3-7.7,0.1-11.6,0.1c-2.4,0-3.8,1.9-4,4c-0.6,4.8-1.3,9.7-1.9,14.5
							c-1.6,12.2-3.2,24.5-4.8,36.7c-2.1,16.4-4.2,32.9-6.4,49.3c-2.2,17.2-4.4,34.3-6.7,51.5c-1.9,14.7-3.8,29.5-5.7,44.2
							c-1.1,8.9-2.3,17.7-3.4,26.6c-1.7,13.1-6,25.4-14.5,35.7c-12.5,14.9-30.8,23.3-50.2,23.3c-8.3,0-16.6,0-24.9,0
							c-15.7,0-31.5,0-47.2,0c-17.1,0-34.2,0-51.3,0c-12.6,0-25.2,0-37.8,0c-2.8,0-5.5,0-8.3,0c-8.1,0-15.9-1.4-23.5-4.2
							c-21.7-8.2-37.3-28.3-40.6-51.1c-0.7-4.9-1.3-9.8-1.9-14.6c-1.6-12.3-3.2-24.5-4.8-36.8c-2.1-16.4-4.3-32.9-6.4-49.3
							c-2.2-17.2-4.5-34.5-6.7-51.7c-1.9-14.6-3.8-29.3-5.7-43.9c-1.1-8.9-2.3-17.7-3.4-26.6c-0.2-1.2-0.3-2.4-0.5-3.6
							c-0.3-2.2-1.6-4-4-4c-4.3,0-8.9,0.5-13.1-0.2c-7.1-1.2-12.8-6.6-14.4-13.6c-0.6-2.7-0.5-5.5-0.5-8.2c0-4.6,0-9.2,0-13.8
							c0-10.8,0-21.5,0-32.3c0-2.3,0-4.7,0-7c0.1-6.9,3.9-13,10-16.1c3.4-1.7,7-1.8,10.7-1.8c3.4,0,6.9,0,10.3,0
							c13.4,0,26.8,0,40.2,0c19.5,0,39,0,58.5,0c22.9,0,45.7,0,68.6,0c23.4,0,46.7,0,70.1,0c20.9,0,41.9,0,62.8,0
							c15.8,0,31.6,0,47.3,0c7.7,0,15.4,0,23.1,0c0.3,0,0.7,0,1,0C365.1,554.9,365.1,546.8,359.9,546.8z"/>
					</g>
				</g>
				<g>
					<path class="st3" d="M349.8,648c-3.3,0-6.5,0-9.8,0c-8.9,0-17.7,0-26.6,0c-13,0-26.1,0-39.1,0c-16,0-31.9,0-47.9,0
						c-17.5,0-35,0-52.5,0c-17.6,0-35.2,0-52.8,0c-16.5,0-32.9,0-49.4,0c-13.9,0-27.8,0-41.7,0c-10,0-20,0-30,0
						c-4.7,0-9.5-0.1-14.2,0c-0.2,0-0.4,0-0.6,0c-5.2,0-5.2,8.1,0,8.1c3.3,0,6.5,0,9.8,0c8.9,0,17.7,0,26.6,0c13,0,26.1,0,39.1,0
						c16,0,31.9,0,47.9,0c17.5,0,35,0,52.5,0c17.6,0,35.2,0,52.8,0c16.5,0,32.9,0,49.4,0c13.9,0,27.8,0,41.7,0c10,0,20,0,30,0
						c4.7,0,9.5,0.1,14.2,0c0.2,0,0.4,0,0.6,0C355,656,355,648,349.8,648L349.8,648z"/>
				</g>
			</g>
			<polygon class="st6" points="59.4,652 -6.2,717.6 -14.7,652 			"/>
		</g>
		<g>
			
				<ellipse transform="matrix(0.7071 -0.7071 0.7071 0.7071 -212.7935 132.4971)" class="st5" cx="53.5" cy="323.1" rx="58.4" ry="109.8"/>
			<g>
				<path class="st3" d="M171,550.8c0-5.7,0-11.5,0-17.2c0-12.7,0-25.4,0-38.2c0-13,0-26,0-38.9c0-6.5,0.3-13.1,0-19.5
					c-0.1-2.1-1.3-3.1-2.6-4.4c-1.9-1.9-3.7-3.7-5.6-5.6c-6.9-6.9-13.7-13.7-20.6-20.6c-9.3-9.3-18.6-18.6-28-28
					c-9.7-9.7-19.4-19.4-29-29c-8-8-15.9-15.9-23.9-23.9c-4.1-4.1-8.2-8.3-12.4-12.4c-0.2-0.2-0.4-0.4-0.6-0.6
					c-3.7-3.7-9.4,2-5.7,5.7c4,4,8.1,8.1,12.1,12.1c9.7,9.7,19.3,19.3,29,29c11.7,11.7,23.3,23.3,35,35
					c10.1,10.1,20.3,20.3,30.4,30.4c3.3,3.3,6.6,6.6,9.9,9.9c1.6,1.6,3.1,3.3,4.8,4.8c0.1,0.1,0.1,0.1,0.2,0.2
					c-0.4-1-0.8-1.9-1.2-2.9c0,12.9,0,25.8,0,38.7c0,20.4,0,40.8,0,61.2c0,4.7,0,9.4,0,14C163,556,171,556,171,550.8L171,550.8z"/>
			</g>
			
				<ellipse transform="matrix(0.7071 -0.7071 0.7071 0.7071 -146.0085 293.7104)" class="st5" cx="281.5" cy="323.1" rx="109.8" ry="58.4"/>
			<g>
				<path class="st3" d="M169.8,439.8c4.2-4.2,8.4-8.4,12.7-12.7c10.2-10.2,20.4-20.4,30.6-30.6c12.3-12.3,24.6-24.6,36.8-36.8
					c10.6-10.6,21.2-21.2,31.9-31.9c5.2-5.2,10.6-10.2,15.5-15.5c0.1-0.1,0.1-0.1,0.2-0.2c3.7-3.7-2-9.4-5.7-5.7
					c-4.2,4.2-8.4,8.4-12.7,12.7c-10.2,10.2-20.4,20.4-30.6,30.6c-12.3,12.3-24.6,24.6-36.8,36.8c-10.6,10.6-21.2,21.2-31.9,31.9
					c-5.2,5.2-10.6,10.2-15.5,15.5c-0.1,0.1-0.1,0.1-0.2,0.2C160.5,437.7,166.2,443.4,169.8,439.8L169.8,439.8z"/>
			</g>
		</g>
	</g>
	<path class="st4" d="M306.2,550.8H27.8c33-23.9,83.1-39.2,139.2-39.2C223.1,511.7,273.2,526.9,306.2,550.8z"/>
</g>
<g>
	<g>
		<path class="st3" d="M221.9,571.3c0-12.9,0-25.8,0-38.7c0-20.4,0-40.8,0-61.2c0-4.7,0-9.4,0-14c0-5.2-8.1-5.2-8.1,0
			c0,12.9,0,25.8,0,38.7c0,20.4,0,40.8,0,61.2c0,4.7,0,9.4,0,14C213.8,576.5,221.9,576.5,221.9,571.3L221.9,571.3z"/>
	</g>
	<path class="st3" d="M213.4,105c0,4,0.4-34.6,0.4-30.7c0,10.7-0.4-1.3-0.4,9.4c0,15.9,0,31.8,0,47.7c0,19.4,0,38.8,0,58.2
		c0,21.2,0,42.4,0,63.6c0,21.5,0,43.1,0,64.6c0,19.9,0,39.9,0,59.8c0,16.9,0,33.8,0,50.7c0,12.2,0,24.3,0,36.5
		c0,5.7,2.4,11.2,2.7,16.9c0,0.3,1.3,0.8,1.3,1c2.3-1,0.6-1.8,2.9-2.8c-4.6-4.6,3.9,8.8-0.8,4.2c-11.1-11.1-20.8-20.5-31.9-31.6
		c-13.4-13.4-26.8-26.8-40.2-40.2c-11.6-11.6-23.2-23.2-34.9-34.9c-5.6-5.6-11.1-11.5-16.9-16.9c-0.1-0.1-0.2-0.2-0.2-0.2
		c-3.7-3.7-9.4,2-5.7,5.7c4.6,4.6,9.3,9.3,13.9,13.9c11.1,11.1,22.2,22.2,33.3,33.3c13.4,13.4,26.8,26.8,40.2,40.2
		c11.6,11.6,26.8,26.8,38.4,38.4c5.6,5.6,5-11.5,2-3.8c0,0.1-1.6,1.9-1.5,2c2.5,2.5,5.6-3.8,5.6-7.2c0-4,0-8,0-11.9
		c0-10.7,0-21.5,0-32.2c0-15.9,0-31.8,0-47.7c0-19.4,0-38.8,0-58.2c0-21.2,0-42.4,0-63.6c0-21.5,0-43.1,0-64.6c0-19.9,0-39.9,0-59.8
		c0-16.9,0-33.8,0-50.7c0-12.2,0-24.3,0-36.5c0-5.7,0.1,53.9,0,48.2c0-0.3,0-0.5,0-0.8C221.5,99.9,213.4,99.8,213.4,105L213.4,105z"
		/>
	<g>
		<g>
			<circle class="st2" cx="89.7" cy="362.1" r="70.4"/>
			<g>
				<path class="st3" d="M137.1,314.7c9.9,9.9,16.4,22.6,18.7,36.3c2.3,13.1,0.4,27.1-5.2,39.1c-6,12.9-16,23.6-28.3,30.6
					c-11.9,6.7-25.6,9.4-39.2,8.2c-28.1-2.6-52-23.5-58.6-50.7c-3.3-13.1-2.3-27.1,2.3-39.8c4.8-13,14-24.6,25.6-32.2
					c11.4-7.5,24.9-11.4,38.6-11.2c13.7,0.3,27.1,4.8,38.2,12.9C132,309.9,134.6,312.2,137.1,314.7c3.1,3.1,7.9-1.7,4.8-4.8
					c-10.8-10.7-24.7-18-39.8-20.5c-14.9-2.4-30.2-0.4-43.9,5.9c-27.8,12.9-45,43.2-42,73.8c1.5,15.3,7.6,29.7,17.6,41.3
					c9.9,11.5,23.3,19.8,38,23.4c14.4,3.6,29.9,2.8,43.8-2.5c14.6-5.5,27.1-15.5,35.8-28.6c16.7-25.1,16-59.6-1.9-83.9
					c-2.3-3.2-4.8-6.1-7.5-8.9C138.8,306.8,134,311.6,137.1,314.7z"/>
			</g>
		</g>
		<g>
			<path class="st3" d="M124.8,327c14.5,14.5,18.7,37.2,9.9,55.9c-8.9,19-29,30.5-49.9,28.6c-20.6-1.9-38.3-17.4-43.3-37.4
				c-5-20,3.4-41.8,20.7-53.3c17.2-11.4,39.9-10.8,56.6,1.3C121,323.5,122.9,325.3,124.8,327c3.1,3.1,7.9-1.7,4.8-4.8
				c-16.7-16.5-42.3-21-63.6-11.2c-21.2,9.8-34.5,32.9-32.3,56.1c2.3,23.6,19.4,43.9,42.6,49.6c23,5.6,47.4-4,60.5-23.6
				c12.8-19.1,12.3-45.4-1.4-64.1c-1.8-2.4-3.7-4.7-5.8-6.8C126.4,319.2,121.7,323.9,124.8,327z"/>
		</g>
		<g>
			
				<ellipse transform="matrix(0.9734 -0.2291 0.2291 0.9734 -95.5313 32.1302)" class="st5" cx="90.6" cy="427.5" rx="58.1" ry="28.9"/>
			
				<ellipse transform="matrix(0.2291 -0.9734 0.9734 0.2291 -233.8773 430.7805)" class="st5" cx="155" cy="363" rx="58.1" ry="28.9"/>
		</g>
	</g>
	<g>
		<g>
			<ellipse class="st2" cx="217.4" cy="131" rx="84.3" ry="84.3"/>
			<g>
				<path class="st3" d="M297.7,131c-0.1,16.8-5.3,33.1-15,46.7c-9.3,13.1-22.7,23.3-37.8,28.7c-15.8,5.7-33.2,6.4-49.4,1.8
					c-15.8-4.4-29.8-13.8-40.2-26.3c-21.4-25.9-24-63.7-6.7-92.4c17.3-28.8,51.9-44.1,84.9-37.3c15.9,3.3,30.6,11.3,41.8,23.1
					c11.4,11.9,18.9,27.1,21.5,43.4C297.5,122.8,297.7,126.9,297.7,131c0,5.2,8.1,5.2,8.1,0c-0.1-18.3-5.7-36.4-16.4-51.2
					c-10.5-14.5-25-25.6-41.8-31.8c-34.6-12.7-75-1.7-98.3,26.8c-11.5,14.1-18.5,31.3-20,49.5c-1.5,18.3,3,37,12.6,52.7
					c9.2,15,22.9,27.3,38.9,34.5c17,7.6,36,9.8,54.2,6.1c35.5-7.1,64.1-36.9,69.6-72.7c0.7-4.6,1.1-9.2,1.1-13.9
					C305.8,125.8,297.8,125.8,297.7,131z"/>
			</g>
		</g>
		<g>
			<path class="st3" d="M276.8,131c-0.1,24.5-15.6,47.3-38.9,55.7c-23.6,8.5-50.3,1.2-66.4-18c-15.9-19.1-17.7-47.1-5-68.3
				s38.2-32.6,62.5-27.7c24.3,4.9,43.2,24.8,47.1,49.3C276.6,125,276.8,128,276.8,131c0,5.2,8.1,5.2,8.1,0
				c-0.1-28.1-17.9-53.5-44.3-63.3c-26.3-9.8-57.3-1.4-75,20.3c-18,21.9-20.6,53.5-5.8,77.9c14.7,24.2,43.5,36.7,71.2,31.2
				c27-5.4,48.8-28,53-55.2c0.6-3.6,0.9-7.2,0.9-10.8C284.9,125.8,276.8,125.8,276.8,131z"/>
		</g>
		<g>
			
				<ellipse transform="matrix(0.5263 -0.8503 0.8503 0.5263 -81.9145 227.1361)" class="st5" cx="162.9" cy="187.1" rx="34.6" ry="69.5"/>
			
				<ellipse transform="matrix(0.8503 -0.5263 0.5263 0.8503 -57.745 171.161)" class="st5" cx="272" cy="187.1" rx="69.5" ry="34.6"/>
		</g>
	</g>
	<g>
		<path class="st3" d="M222.5,451.1c4.5-4.5,9.1-9.1,13.6-13.6c10.8-10.8,21.5-21.5,32.3-32.3c13.1-13.1,26.2-26.2,39.3-39.3
			c11.3-11.3,22.5-22.5,33.8-33.8c5.5-5.5,11.2-10.8,16.5-16.5c0.1-0.1,0.2-0.2,0.2-0.2c3.7-3.7-2-9.4-5.7-5.7
			c-4.5,4.5-9.1,9.1-13.6,13.6c-10.8,10.8-21.5,21.5-32.3,32.3c-13.1,13.1-26.2,26.2-39.3,39.3c-11.3,11.3-22.5,22.5-33.8,33.8
			c-5.5,5.5-11.2,10.8-16.5,16.5c-0.1,0.1-0.2,0.2-0.2,0.2C213.2,449.1,218.9,454.8,222.5,451.1L222.5,451.1z"/>
	</g>
	<g>
		<g>
			<circle class="st2" cx="350.3" cy="314.5" r="63.8"/>
			<g>
				<path class="st3" d="M393.3,357.5c-9,8.9-20.5,14.8-32.9,17c-11.9,2-24.5,0.4-35.4-4.7c-11.7-5.4-21.4-14.4-27.7-25.6
					c-6-10.8-8.5-23.2-7.4-35.5c2.3-25.4,21.3-47.1,46-53.2c11.9-2.9,24.5-2.1,36,2.1c11.8,4.4,22.2,12.7,29.2,23.2
					c6.8,10.3,10.4,22.5,10.1,34.9c-0.2,12.4-4.4,24.5-11.6,34.6C397.6,352.9,395.5,355.3,393.3,357.5c-2.8,2.8,1.5,7.1,4.3,4.3
					c9.7-9.8,16.4-22.4,18.6-36.1c2.2-13.5,0.4-27.3-5.4-39.7c-11.7-25.2-39.2-40.8-66.8-38.1c-13.8,1.4-26.9,6.9-37.4,15.9
					c-10.4,8.9-17.9,21.1-21.2,34.5c-3.2,13-2.5,27.1,2.3,39.6c5,13.2,14.1,24.6,25.9,32.4c22.8,15.1,53.9,14.5,76-1.7
					c2.8-2.1,5.5-4.4,8-6.8C400.4,359.1,396.1,354.8,393.3,357.5z"/>
			</g>
		</g>
		<g>
			<path class="st3" d="M382,346.3c-13.2,13.1-33.7,17-50.6,9c-17.2-8.1-27.6-26.3-25.9-45.2c1.7-18.7,15.7-34.7,33.9-39.2
				c18.2-4.5,37.9,3.1,48.3,18.8c10.3,15.6,9.8,36.2-1.1,51.3C385.2,342.9,383.7,344.7,382,346.3c-2.8,2.8,1.5,7.1,4.3,4.3
				c15-15.1,19.1-38.3,10.2-57.6c-8.8-19.3-29.8-31.3-50.9-29.3c-21.4,2-39.8,17.6-44.9,38.6c-5.1,20.8,3.6,42.9,21.4,54.8
				c17.4,11.6,41.2,11.1,58-1.3c2.2-1.6,4.3-3.3,6.2-5.3C389.2,347.9,384.8,343.5,382,346.3z"/>
		</g>
		<g>
			
				<ellipse transform="matrix(0.9734 -0.2291 0.2291 0.9734 -64.2636 73.269)" class="st5" cx="283.4" cy="313.4" rx="30.5" ry="61.3"/>
			
				<ellipse transform="matrix(0.2291 -0.9734 0.9734 0.2291 -100.2944 636.1072)" class="st5" cx="351.5" cy="381.4" rx="30.5" ry="61.3"/>
		</g>
	</g>
	<g>
		
			<ellipse transform="matrix(0.7071 -0.7071 0.7071 0.7071 -253.0684 346.9552)" class="st5" cx="292.3" cy="479" rx="38.6" ry="20.5"/>
		<g>
			<path class="st3" d="M245.3,528.7c1.6-1.6,3.2-3.2,4.8-4.8c3.8-3.8,7.6-7.6,11.5-11.5c4.6-4.6,9.3-9.3,14-14c4-4,8-8,12-12
				c1.9-1.9,4.1-4.1,4.1-4.1s1.8-1.8,1.8-1.9c1.6-1.6-2.5-5.4-4.1-3.7c-1.6,1.6-3.2,3.2-4.8,4.8c-3.8,3.8-7.6,7.6-11.5,11.5
				c-4.6,4.6-9.3,9.3-14,14c-4,4-8,8-12,12c-1.9,1.9-4,3.8-5.8,5.8l-0.1,0.1c-1.6,1.6,0.9,4.1,2.5,2.5L245.3,528.7z"/>
		</g>
	</g>
	<g>
		<g>
			<path class="st2" d="M410.7,548.2H26.1c-12.1,0-22,9.8-22,22v57.2c0,12.1,9.8,22,22,22h10.1L65.5,876
				c4.4,33.9,33.3,59.3,67.5,59.3h170.9c34.2,0,63.1-25.4,67.5-59.3l29.3-226.6h10.1c12.1,0,22-9.8,22-22v-57.2
				C432.7,558.1,422.9,548.2,410.7,548.2z"/>
			<g>
				<path class="st3" d="M410.7,544.2c-5.5,0-11,0-16.5,0c-14.5,0-28.9,0-43.4,0c-20.3,0-40.7,0-61,0c-23.5,0-46.9,0-70.4,0
					s-47,0-70.5,0c-20.5,0-41,0-61.6,0c-14.6,0-29.3,0-43.9,0c-5.8,0-11.6-0.1-17.4,0c-14.6,0.2-26,12.1-26,26.6
					c0,8.6,0,17.3,0,25.9c0,9.6,0,19.2,0,28.8c0,4.9,0.7,9.5,2.9,13.9c3.9,7.7,11.7,12.8,20.1,13.8c4.3,0.5,8.7,0.2,13,0.2
					c-1.3-1.3-2.7-2.7-4-4c0.6,4.9,1.3,9.8,1.9,14.8c1.6,12.5,3.2,25,4.8,37.4c2.1,16.6,4.3,33.2,6.4,49.9c2.2,17.3,4.5,34.7,6.7,52
					c1.9,14.6,3.8,29.2,5.7,43.8c1.1,8.6,2.2,17.2,3.3,25.8c0.4,2.9,0.7,5.8,1.3,8.7c2.4,12.1,8.1,23.4,16.2,32.7
					c13.7,15.9,34.1,24.8,55,24.8c8.2,0,16.4,0,24.6,0c15.8,0,31.6,0,47.5,0c17.3,0,34.6,0,51.9,0c12.6,0,25.3,0,37.9,0
					c2.7,0,5.3,0,8,0c9,0,17.9-1.5,26.3-4.8c23-9,40.5-29.5,45-53.9c1.1-5.9,1.6-11.9,2.4-17.9c1.6-12.1,3.1-24.3,4.7-36.4
					c2.1-16.5,4.3-33,6.4-49.4c2.2-17.4,4.5-34.8,6.7-52.2c1.9-14.9,3.9-29.8,5.8-44.7c1.2-9,2.3-18,3.5-27c0.2-1.2,0.3-2.4,0.5-3.6
					c-1.3,1.3-2.7,2.7-4,4c3.5,0,6.9,0.1,10.4,0c7.3-0.1,14.4-3.3,19.2-8.8c4.2-4.9,6.4-10.9,6.5-17.3c0-2.1,0-4.2,0-6.3
					c0-16.6,0-33.3,0-49.9c0-5.6-1.4-11.1-4.7-15.7C427.1,548.4,419.3,544.3,410.7,544.2c-5.2-0.1-5.2,8,0,8.1
					c10.3,0.1,17.9,8.5,17.9,18.6c0,6.5,0,13,0,19.5c0,9.1,0,18.1,0,27.2c0,5.5,0.8,12.1-1.6,17.2c-2.7,5.8-8.4,10-14.9,10.5
					c-3.8,0.3-7.7,0.1-11.6,0.1c-2.4,0-3.8,1.9-4,4c-0.6,4.8-1.3,9.7-1.9,14.5c-1.6,12.2-3.2,24.5-4.8,36.7
					c-2.1,16.4-4.2,32.9-6.4,49.3c-2.2,17.2-4.4,34.3-6.7,51.5c-1.9,14.7-3.8,29.5-5.7,44.2c-1.1,8.9-2.3,17.7-3.4,26.6
					c-1.7,13.1-6,25.4-14.5,35.7c-12.5,14.9-30.8,23.3-50.2,23.3c-8.3,0-16.6,0-24.9,0c-15.7,0-31.5,0-47.2,0c-17.1,0-34.2,0-51.3,0
					c-12.6,0-25.2,0-37.8,0c-2.8,0-5.5,0-8.3,0c-8.1,0-15.9-1.4-23.5-4.2c-21.7-8.2-37.3-28.3-40.6-51.1c-0.7-4.9-1.3-9.8-1.9-14.6
					c-1.6-12.3-3.2-24.5-4.8-36.8c-2.1-16.4-4.3-32.9-6.4-49.3c-2.2-17.2-4.5-34.5-6.7-51.7c-1.9-14.6-3.8-29.3-5.7-43.9
					c-1.1-8.9-2.3-17.7-3.4-26.6c-0.2-1.2-0.3-2.4-0.5-3.6c-0.3-2.2-1.6-4-4-4c-4.3,0-8.9,0.5-13.1-0.2c-7.1-1.2-12.8-6.6-14.4-13.6
					c-0.6-2.7-0.5-5.5-0.5-8.2c0-4.6,0-9.2,0-13.8c0-10.8,0-21.5,0-32.3c0-2.3,0-4.7,0-7c0.1-6.9,3.9-13,10-16.1
					c3.4-1.7,7-1.8,10.7-1.8c3.4,0,6.9,0,10.3,0c13.4,0,26.8,0,40.2,0c19.5,0,39,0,58.5,0c22.9,0,45.7,0,68.6,0
					c23.4,0,46.7,0,70.1,0c20.9,0,41.9,0,62.8,0c15.8,0,31.6,0,47.3,0c7.7,0,15.4,0,23.1,0c0.3,0,0.7,0,1,0
					C415.9,552.3,415.9,544.2,410.7,544.2z"/>
			</g>
		</g>
		<g>
			<path class="st3" d="M400.7,645.4c-3.3,0-6.5,0-9.8,0c-8.9,0-17.7,0-26.6,0c-13,0-26.1,0-39.1,0c-16,0-31.9,0-47.9,0
				c-17.5,0-35,0-52.5,0c-17.6,0-35.2,0-52.8,0c-16.5,0-32.9,0-49.4,0c-13.9,0-27.8,0-41.7,0c-10,0-20,0-30,0c-4.7,0-9.5-0.1-14.2,0
				c-0.2,0-0.4,0-0.6,0c-5.2,0-5.2,8.1,0,8.1c3.3,0,6.5,0,9.8,0c8.9,0,17.7,0,26.6,0c13,0,26.1,0,39.1,0c16,0,31.9,0,47.9,0
				c17.5,0,35,0,52.5,0c17.6,0,35.2,0,52.8,0c16.5,0,32.9,0,49.4,0c13.9,0,27.8,0,41.7,0c10,0,20,0,30,0c4.7,0,9.5,0.1,14.2,0
				c0.2,0,0.4,0,0.6,0C405.8,653.4,405.9,645.4,400.7,645.4L400.7,645.4z"/>
		</g>
		<polygon class="st6" points="110.3,650.6 44.7,716.3 36.2,650.6 		"/>
	</g>
	<g>
		<path class="st3" d="M214.1,158c-2.7-0.3-5.1-0.8-7.1-1.7s-3.8-1.9-5.2-3.3c-1.4-1.3-2.5-2.8-3.3-4.6c-0.8-1.7-1.4-3.6-1.7-5.5
			h7.3c0.3,1.2,0.7,2.3,1.3,3.4c0.6,1.1,1.5,2,2.5,2.8c1,0.8,2.4,1.4,3.9,1.8c1.6,0.4,3.4,0.7,5.5,0.7c2.2,0,4.1-0.2,5.8-0.7
			c1.7-0.4,3-1,4.2-1.8c1.1-0.8,2-1.7,2.5-2.7c0.6-1,0.9-2.2,0.9-3.4c0-1.5-0.2-2.8-0.7-3.8s-1.3-1.9-2.5-2.7
			c-1.2-0.8-2.7-1.5-4.6-2.1c-1.9-0.6-4.2-1.2-7-1.9c-3-0.7-5.6-1.4-7.9-2.2c-2.2-0.8-4.1-1.8-5.5-3s-2.5-2.7-3.2-4.4
			c-0.7-1.7-1.1-3.8-1.1-6.3c0-1.8,0.3-3.5,1.1-5.1c0.7-1.6,1.7-3,3.1-4.3c1.4-1.2,3-2.3,5-3.1c1.9-0.8,4.2-1.4,6.7-1.6v-7.2h6.5
			v7.1c2.3,0.3,4.4,0.9,6.2,1.7c1.8,0.8,3.3,1.9,4.6,3.1c1.3,1.2,2.3,2.7,3,4.2c0.8,1.6,1.3,3.3,1.6,5.1h-7.3
			c-0.3-1.1-0.6-2.1-1.2-3.1c-0.5-1-1.2-1.8-2.1-2.5s-2-1.3-3.3-1.7c-1.3-0.4-2.9-0.6-4.7-0.6c-1.9,0-3.5,0.2-5,0.6s-2.7,1-3.7,1.7
			s-1.8,1.5-2.3,2.5s-0.8,2-0.8,3.1c0,1.4,0.3,2.6,0.8,3.6s1.3,1.9,2.4,2.6s2.5,1.4,4.2,1.9c1.7,0.6,3.7,1.1,6,1.6
			c3.4,0.7,6.3,1.6,8.7,2.5c2.4,0.9,4.4,2,5.9,3.3c1.5,1.3,2.6,2.8,3.3,4.6c0.7,1.8,1,3.9,1,6.3c0,2-0.4,3.8-1.2,5.5
			c-0.8,1.7-1.9,3.2-3.4,4.6c-1.5,1.3-3.3,2.4-5.4,3.3c-2.2,0.9-4.6,1.4-7.4,1.7v8.7h-6.4V158z"/>
	</g>
	<g>
		<path class="st3" d="M335.5,328.1c-1.3-1.5-2.2-3.1-2.8-4.6c-0.6-1.5-0.9-3-1-4.4c0-1.4,0.2-2.8,0.6-4.1c0.5-1.3,1.1-2.6,2-3.8
			l3.8,3.8c-0.5,0.8-0.8,1.6-1.1,2.4c-0.2,0.9-0.3,1.8-0.1,2.7c0.1,1,0.5,2,1.1,3s1.4,2.1,2.5,3.2s2.2,2,3.3,2.6
			c1.1,0.6,2.1,1,3.1,1.2s1.9,0.1,2.7-0.1c0.8-0.2,1.6-0.7,2.2-1.3c0.8-0.8,1.3-1.6,1.6-2.4c0.3-0.8,0.3-1.7,0.1-2.7
			c-0.2-1-0.6-2.2-1.3-3.5c-0.7-1.3-1.5-2.8-2.6-4.6c-1.2-1.9-2.2-3.7-2.9-5.2c-0.7-1.6-1.2-3.1-1.3-4.4c-0.1-1.4,0.1-2.7,0.6-3.9
			c0.5-1.3,1.4-2.5,2.7-3.8c0.9-0.9,2-1.6,3.2-2.1s2.5-0.7,3.8-0.6c1.4,0.1,2.8,0.4,4.2,1c1.4,0.6,2.9,1.4,4.3,2.6l3.8-3.8l3.4,3.4
			l-3.8,3.8c1,1.4,1.8,2.7,2.3,4.1s0.8,2.7,0.8,4s-0.2,2.6-0.6,3.8c-0.4,1.2-1,2.4-1.8,3.5l-3.8-3.8c0.4-0.7,0.8-1.4,1-2.2
			c0.2-0.8,0.3-1.6,0.2-2.4c-0.1-0.8-0.4-1.7-0.9-2.6s-1.2-1.8-2.1-2.8c-1-1-1.9-1.7-2.9-2.3c-1-0.5-1.9-0.9-2.8-1
			c-0.9-0.2-1.7-0.1-2.5,0.1s-1.4,0.6-2,1.2c-0.7,0.7-1.2,1.5-1.5,2.3s-0.3,1.7-0.1,2.6c0.2,0.9,0.6,2,1.2,3.2s1.3,2.5,2.3,4
			c1.4,2.1,2.4,4.1,3.2,5.8c0.8,1.7,1.2,3.3,1.4,4.8s-0.1,2.8-0.6,4.1c-0.6,1.3-1.5,2.6-2.7,3.8c-1,1-2.2,1.8-3.5,2.3
			s-2.7,0.7-4.1,0.6c-1.5-0.1-3-0.5-4.5-1.1c-1.6-0.7-3.1-1.7-4.7-2.9l-4.5,4.5l-3.4-3.4L335.5,328.1z"/>
	</g>
	<g>
		<path class="st3" d="M104.6,381c-1.8,1.4-3.5,2.5-5.2,3.3c-1.8,0.7-3.3,1.1-5,1.1c-1.6,0.1-3.2-0.2-4.7-0.8
			c-1.5-0.5-2.9-1.3-4.3-2.3l4.3-4.3c0.8,0.6,1.8,0.9,2.8,1.3c1,0.3,2,0.3,3.1,0.2c1.1-0.2,2.3-0.6,3.4-1.3c1.2-0.7,2.4-1.6,3.7-2.8
			c1.3-1.3,2.3-2.6,3-3.8c0.8-1.3,1.2-2.4,1.3-3.5c0.2-1.1,0.2-2.2-0.1-3.1c-0.3-0.9-0.8-1.8-1.5-2.5c-0.9-0.9-1.8-1.5-2.7-1.8
			c-0.9-0.3-1.9-0.3-3.1-0.2c-1.2,0.3-2.5,0.8-3.9,1.5c-1.5,0.8-3.3,1.8-5.2,3c-2.2,1.4-4.2,2.5-5.9,3.3c-1.8,0.8-3.5,1.3-5,1.4
			c-1.6,0.1-3.1-0.1-4.5-0.8c-1.4-0.6-2.8-1.7-4.3-3.1c-1.1-1.1-1.8-2.3-2.4-3.7c-0.5-1.3-0.8-2.8-0.7-4.3c0.1-1.6,0.4-3.2,1.1-4.8
			c0.7-1.7,1.7-3.3,2.9-4.9l-4.3-4.3l3.8-3.8l4.3,4.3c1.6-1.2,3.1-2.1,4.7-2.7c1.6-0.6,3.1-0.8,4.5-0.8c1.5,0,2.9,0.3,4.3,0.8
			c1.3,0.5,2.7,1.2,3.9,2.1l-4.3,4.3c-0.8-0.5-1.7-0.8-2.5-1.1s-1.8-0.3-2.8-0.2c-0.9,0.1-1.9,0.4-2.9,1c-1,0.5-2.1,1.3-3.2,2.4
			c-1.1,1.1-1.9,2.2-2.6,3.3c-0.6,1.1-1,2.2-1.2,3.2c-0.2,1-0.2,1.9,0.1,2.8c0.3,0.8,0.8,1.7,1.3,2.3c0.8,0.8,1.7,1.4,2.6,1.7
			c0.9,0.3,1.9,0.3,2.9,0.1c1.1-0.3,2.3-0.7,3.6-1.3c1.3-0.7,2.8-1.5,4.5-2.6c2.4-1.6,4.6-2.8,6.6-3.7c2-0.8,3.8-1.4,5.4-1.5
			c1.7-0.2,3.2,0.1,4.7,0.8c1.4,0.7,2.9,1.7,4.3,3.1c1.2,1.2,2,2.5,2.6,3.9c0.6,1.5,0.8,3,0.7,4.7s-0.5,3.3-1.3,5.2
			c-0.8,1.8-1.9,3.6-3.3,5.3l5.2,5.2l-3.8,3.8L104.6,381z"/>
	</g>
	<path class="st3" d="M356.7,548.2H78.3c33-23.9,83.1-39.2,139.2-39.2C273.6,509.1,323.7,524.3,356.7,548.2z"/>
</g>
</svg>
