<?xml version="1.0" encoding="utf-8"?>
<!-- Generator: Adobe Illustrator 27.8.1, SVG Export Plug-In . SVG Version: 6.00 Build 0)  -->
<svg version="1.1" id="分離模式" xmlns="http://www.w3.org/2000/svg" xmlns:xlink="http://www.w3.org/1999/xlink" x="0px"
	 y="0px" viewBox="0 0 436.7 821.8" style="enable-background:new 0 0 436.7 821.8;" xml:space="preserve">
<style type="text/css">
	.st0{display:none;}
	.st1{display:inline;}
	.st2{fill:#FFFFFF;}
	.st3{fill:#221E1F;}
	.st4{display:inline;fill:#221E1F;}
	.st5{fill:#4FAF49;}
	.st6{display:none;fill:#221E1F;}
</style>
<g id="_x31_8" class="st0">
	<g class="st1">
		<g>
			<polygon class="st2" points="217.7,386.9 230.4,380 254.5,392.4 480.9,426.5 480.9,621.6 348.7,692.3 98.3,564 98.3,368.9 			"/>
			<path d="M348.7,700.4c-1.3,0-2.5-0.3-3.7-0.9L94.6,571.2c-2.7-1.4-4.4-4.2-4.4-7.2V368.9c0-2.4,1-4.6,2.8-6.2
				c1.8-1.5,4.2-2.2,6.5-1.9l116.7,17.6l10.4-5.5c2.3-1.3,5.2-1.3,7.5-0.1l23,11.8l225,33.9c4,0.6,6.9,4,6.9,8v195.1
				c0,3-1.7,5.7-4.3,7.2l-132.1,70.7C351.4,700.1,350,700.4,348.7,700.4z M106.4,559l242.2,124.1l124.1-66.4V433.5l-219.4-33
				c-0.9-0.1-1.7-0.4-2.5-0.8l-20.4-10.4l-9,4.8c-1.5,0.8-3.3,1.1-5,0.9l-110.1-16.6V559z"/>
		</g>
		<g>
			<polygon class="st2" points="230.4,298.2 480.9,426.5 348.7,497.2 98.3,368.9 			"/>
			<path d="M348.7,505.3c-1.3,0-2.5-0.3-3.7-0.9L94.6,376.1c-2.7-1.4-4.4-4.1-4.4-7.2c0-3,1.6-5.8,4.3-7.2L226.6,291
				c2.3-1.3,5.2-1.3,7.5-0.1l250.5,128.3c2.7,1.4,4.4,4.1,4.4,7.2s-1.6,5.8-4.3,7.2l-132.1,70.7C351.4,505,350,505.3,348.7,505.3z
				 M115.8,368.7L348.6,488l114.7-61.4L230.5,307.4L115.8,368.7z"/>
		</g>
		<g>
			<g>
				<path class="st2" d="M406.8,417.3l-161.2-82.6c-2.8,5.5-8.4,9.2-15,9.2c-6.5,0-12-3.7-14.9-9l-43.9,23.5
					c1.7,3.1,2.8,6.6,2.8,10.4c0,3.4-0.8,6.5-2.2,9.3l161.2,82.6c2.8-5.5,8.4-9.3,15.1-9.3c6.4,0,11.9,3.6,14.8,8.9l43.5-23.3
					c-1.6-3-2.6-6.4-2.6-10.1C404.4,423.4,405.3,420.2,406.8,417.3z"/>
				<path d="M333.7,468.9c-1.3,0-2.5-0.3-3.7-0.9l-161.2-82.6c-3.9-2-5.5-6.8-3.6-10.8c0.9-1.9,1.4-3.8,1.4-5.7
					c0-2.2-0.6-4.3-1.8-6.4c-1.1-1.9-1.3-4.2-0.7-6.3c0.6-2.1,2-3.9,4-4.9l43.9-23.5c3.9-2.1,8.9-0.6,11,3.3
					c1.6,2.9,4.5,4.7,7.7,4.7c3.3,0,6.2-1.8,7.8-4.8c2.1-4,6.9-5.6,10.9-3.5L410.5,410c4,2,5.6,6.9,3.5,10.9c-1,2-1.5,4-1.5,6
					c0,2.1,0.6,4.2,1.7,6.2c1,1.9,1.3,4.1,0.6,6.2c-0.6,2.1-2,3.8-3.9,4.8l-43.5,23.3c-3.9,2.1-8.8,0.6-11-3.3
					c-1.6-2.9-4.5-4.6-7.7-4.6c-3.3,0-6.3,1.9-7.8,4.9c-1,1.9-2.7,3.4-4.7,4.1C335.4,468.8,334.5,468.9,333.7,468.9z M182.3,374.1
					l148.9,76.3c4.6-4.5,10.8-7.1,17.4-7.1c6.4,0,12.4,2.4,16.9,6.7l31.4-16.8c-0.5-2.1-0.7-4.2-0.7-6.3c0-1.9,0.2-3.8,0.6-5.6
					L248,345c-4.6,4.5-10.7,7-17.3,7c-6.4,0-12.4-2.5-17-6.7l-31.6,16.9c0.5,2.2,0.8,4.4,0.8,6.6
					C182.8,370.6,182.7,372.4,182.3,374.1z"/>
			</g>
		</g>
		<g>
			<path class="st2" d="M348.7,497.2v154.4V497.2z"/>
			<path d="M348.7,659.8c-4.5,0-8.1-3.6-8.1-8.1V497.2c0-4.5,3.6-8.1,8.1-8.1c4.5,0,8.1,3.6,8.1,8.1v154.4
				C356.8,656.1,353.2,659.8,348.7,659.8z"/>
		</g>
		<g>
			<polygon class="st2" points="313.1,340.5 181,411.1 181,606.4 262.5,648.1 262.5,453 394.6,382.3 			"/>
			<path d="M262.5,656.2c-1.3,0-2.5-0.3-3.7-0.9l-81.5-41.7c-2.7-1.4-4.4-4.2-4.4-7.2V411.1c0-3,1.7-5.8,4.3-7.2l132.1-70.6
				c2.3-1.3,5.2-1.3,7.5-0.1l81.5,41.8c2.7,1.4,4.4,4.1,4.4,7.2c0,3-1.6,5.8-4.3,7.2l-127.9,68.4v190.2c0,2.8-1.5,5.5-3.9,6.9
				C265.4,655.8,264,656.2,262.5,656.2z M189.1,601.4l65.2,33.4V453c0-3,1.7-5.7,4.3-7.2l118.5-63.4l-63.9-32.8l-124,66.3V601.4z"/>
		</g>
		<g>
			<path class="st2" d="M481,477.4L407.1,517L481,477.4z"/>
			<path d="M407.1,525.1c-2.9,0-5.7-1.6-7.2-4.3c-2.1-4-0.6-8.9,3.3-11l73.9-39.6c3.9-2.1,8.9-0.6,11,3.3c2.1,4,0.6,8.9-3.3,11
				l-73.9,39.6C409.7,524.8,408.4,525.1,407.1,525.1z"/>
		</g>
	</g>
	<g class="st1">
		<g>
			<path class="st2" d="M274.9,821.8c-3.8,0-7.6-0.9-11.1-2.7L13.4,690.8c-8.1-4.2-13.3-12.6-13.3-21.7V567.6c0-9,5-17.3,12.9-21.5
				l132.1-70.7c3.6-1.9,7.5-2.9,11.5-2.9c3.8,0,7.6,0.9,11.1,2.7l250.5,128.3c8.1,4.2,13.3,12.6,13.3,21.7v101.5
				c0,9-5,17.3-12.9,21.5l-132.1,70.7C282.8,820.9,278.9,821.8,274.9,821.8z"/>
		</g>
		<g>
			<polygon class="st2" points="143.9,585.6 156.6,578.8 180.8,591.2 407.1,625.2 407.1,726.8 274.9,797.4 24.5,669.1 24.5,567.6 
							"/>
			<path d="M274.9,805.6c-1.3,0-2.5-0.3-3.7-0.9L20.8,676.4c-2.7-1.4-4.4-4.2-4.4-7.2V567.6c0-2.4,1-4.6,2.8-6.2
				c1.8-1.5,4.2-2.2,6.5-1.9l116.7,17.6l10.4-5.5c2.3-1.3,5.2-1.3,7.5-0.1l23,11.8l225,33.9c4,0.6,6.9,4,6.9,8v101.5
				c0,3-1.7,5.7-4.3,7.2l-132.1,70.7C277.6,805.3,276.2,805.6,274.9,805.6z M32.6,664.2l242.2,124.1l124.1-66.4v-89.6l-219.4-33
				c-0.9-0.1-1.7-0.4-2.5-0.8L156.7,588l-9,4.8c-1.5,0.8-3.3,1.1-5,0.9L32.6,577.1V664.2z"/>
		</g>
		<g>
			<polygon class="st2" points="156.6,496.9 407.1,625.2 274.9,695.9 24.5,567.6 			"/>
			<path d="M274.9,704.1c-1.3,0-2.5-0.3-3.7-0.9L20.8,574.9c-2.7-1.4-4.4-4.1-4.4-7.2c0-3,1.6-5.8,4.3-7.2l132.1-70.7
				c2.3-1.3,5.2-1.3,7.5-0.1L410.8,618c2.7,1.4,4.4,4.1,4.4,7.2c0,3-1.6,5.8-4.3,7.2l-132.1,70.7
				C277.6,703.7,276.2,704.1,274.9,704.1z M42,567.5l232.9,119.3l114.7-61.4L156.7,506.1L42,567.5z"/>
		</g>
		<g>
			<g>
				<path class="st2" d="M333,616l-161.2-82.6c-2.8,5.5-8.4,9.2-15,9.2c-6.5,0-12-3.7-14.9-9l-43.9,23.5c1.7,3.1,2.8,6.6,2.8,10.4
					c0,3.4-0.8,6.5-2.2,9.3l161.2,82.6c2.8-5.5,8.4-9.3,15.1-9.3c6.4,0,11.9,3.6,14.8,8.9l43.5-23.3c-1.6-3-2.6-6.4-2.6-10.1
					C330.6,622.2,331.5,618.9,333,616z"/>
				<path d="M259.9,667.6c-1.3,0-2.5-0.3-3.7-0.9L95,584.2c-3.9-2-5.5-6.8-3.6-10.8c0.9-1.9,1.4-3.8,1.4-5.7c0-2.2-0.6-4.3-1.8-6.4
					c-1.1-1.9-1.3-4.2-0.7-6.3c0.6-2.1,2-3.9,4-4.9l43.9-23.5c3.9-2.1,8.9-0.6,11,3.3c1.6,2.9,4.5,4.7,7.7,4.7
					c3.3,0,6.2-1.9,7.8-4.8c2-4,6.9-5.6,10.9-3.5l161.2,82.6c4,2,5.6,6.9,3.5,10.9c-1,2-1.5,4-1.5,5.9c0,2.1,0.6,4.2,1.7,6.2
					c1,1.9,1.3,4.1,0.6,6.2c-0.6,2.1-2,3.8-3.9,4.8l-43.5,23.3c-3.9,2.1-8.8,0.6-11-3.3c-1.6-2.9-4.5-4.6-7.7-4.6
					c-3.3,0-6.3,1.9-7.8,4.9c-1,1.9-2.7,3.4-4.7,4.1C261.6,667.5,260.7,667.6,259.9,667.6z M108.5,572.9l148.9,76.3
					c4.6-4.5,10.8-7.1,17.4-7.1c6.4,0,12.4,2.4,16.9,6.7l31.4-16.8c-0.5-2.1-0.7-4.1-0.7-6.3c0-1.9,0.2-3.8,0.6-5.6l-148.9-76.3
					c-4.6,4.5-10.7,7-17.3,7c-6.4,0-12.5-2.5-17-6.7L108.3,561c0.5,2.2,0.8,4.4,0.8,6.6C109,569.4,108.9,571.1,108.5,572.9z"/>
			</g>
		</g>
		<g>
			<path class="st2" d="M274.9,695.9v60.9V695.9z"/>
			<path d="M274.9,764.9c-4.5,0-8.1-3.6-8.1-8.1v-60.9c0-4.5,3.6-8.1,8.1-8.1c4.5,0,8.1,3.6,8.1,8.1v60.9
				C283,761.3,279.4,764.9,274.9,764.9z"/>
		</g>
		<g>
			<polygon class="st2" points="239.3,539.3 107.2,609.9 107.2,711.5 188.7,753.3 188.7,651.8 320.8,581.1 			"/>
			<path d="M188.7,761.4c-1.3,0-2.5-0.3-3.7-0.9l-81.5-41.7c-2.7-1.4-4.4-4.2-4.4-7.2V609.9c0-3,1.7-5.8,4.3-7.2l132.1-70.6
				c2.3-1.3,5.2-1.3,7.5-0.1l81.5,41.8c2.7,1.4,4.4,4.1,4.4,7.2c0,3-1.6,5.8-4.3,7.2l-127.9,68.4v96.6c0,2.8-1.5,5.5-3.9,6.9
				C191.6,761,190.2,761.4,188.7,761.4z M115.3,706.6l65.2,33.4v-88.2c0-3,1.7-5.7,4.3-7.2l118.5-63.4l-63.9-32.8l-124,66.3V706.6z"
				/>
		</g>
		<g>
			<path class="st2" d="M348.9,688.3l-73.9,39.6L348.9,688.3z"/>
			<path d="M274.9,735.9c-2.9,0-5.7-1.6-7.2-4.3c-2.1-4-0.6-8.9,3.3-11l73.9-39.6c4-2.1,8.9-0.6,11,3.3c2.1,4,0.6,8.9-3.3,11
				L278.8,735C277.5,735.6,276.2,735.9,274.9,735.9z"/>
		</g>
	</g>
</g>
<g class="st0">
	<g class="st1">
		
			<ellipse transform="matrix(0.7071 -0.7071 0.7071 0.7071 -60.1391 206.0454)" class="st2" cx="218.6" cy="175.6" rx="72.8" ry="72.8"/>
		<g>
			<path class="st3" d="M288,175.6c0,14.5-4.5,28.6-12.9,40.4c-8,11.3-19.6,20.1-32.6,24.8c-13.7,4.9-28.7,5.5-42.6,1.6
				c-13.6-3.8-25.7-11.9-34.7-22.7c-18.5-22.3-20.7-55-5.8-79.8c15-24.8,44.8-38.1,73.3-32.2c13.8,2.8,26.4,9.8,36.1,19.9
				c9.9,10.3,16.3,23.4,18.6,37.5C287.8,168.5,288,172.1,288,175.6c0,4.5,7,4.5,7,0c-0.1-15.8-4.9-31.4-14.2-44.3
				c-9-12.5-21.6-22.1-36.1-27.5c-29.9-11-64.7-1.4-84.9,23.2c-10,12.2-16,27-17.2,42.7c-1.3,15.8,2.6,32,10.9,45.5
				c7.9,12.9,19.7,23.5,33.6,29.8c14.7,6.6,31.1,8.5,46.8,5.3c30.7-6.1,55.4-31.8,60.1-62.8c0.6-4,0.9-8,1-12
				C295,171.1,288,171.1,288,175.6z"/>
		</g>
	</g>
	<g class="st1">
		<path class="st3" d="M269.9,175.6c-0.1,21.2-13.5,40.9-33.6,48.1c-20.4,7.4-43.4,1.1-57.3-15.6c-13.7-16.5-15.3-40.7-4.3-58.9
			c11-18.3,33-28.2,54-23.9c21,4.3,37.3,21.4,40.7,42.6C269.8,170.4,269.9,173,269.9,175.6c0,4.5,7,4.5,7,0
			c-0.1-24.3-15.5-46.2-38.2-54.7c-22.7-8.4-49.4-1.2-64.8,17.6c-15.5,18.9-17.8,46.2-5,67.2c12.7,20.9,37.6,31.7,61.5,26.9
			c23.3-4.6,42.2-24.2,45.8-47.7c0.5-3.1,0.8-6.2,0.8-9.3C276.9,171.1,269.9,171.1,269.9,175.6z"/>
	</g>
	<path class="st4" d="M216,199.7c-2.3-0.2-4.4-0.7-6.1-1.4c-1.8-0.7-3.3-1.7-4.5-2.8c-1.2-1.1-2.2-2.5-2.9-3.9
		c-0.7-1.5-1.2-3.1-1.5-4.8h6.3c0.2,1,0.6,2,1.1,2.9c0.5,0.9,1.3,1.7,2.2,2.4c0.9,0.7,2,1.2,3.4,1.6c1.3,0.4,2.9,0.6,4.8,0.6
		c1.9,0,3.5-0.2,5-0.6c1.4-0.4,2.6-0.9,3.6-1.6c1-0.7,1.7-1.5,2.2-2.4c0.5-0.9,0.7-1.9,0.7-3c0-1.3-0.2-2.4-0.6-3.3
		c-0.4-0.9-1.1-1.7-2.1-2.4c-1-0.7-2.3-1.3-4-1.8c-1.6-0.5-3.6-1.1-6-1.6c-2.6-0.6-4.9-1.2-6.8-1.9c-1.9-0.7-3.5-1.6-4.7-2.6
		c-1.2-1.1-2.1-2.3-2.8-3.8c-0.6-1.5-0.9-3.3-0.9-5.4c0-1.6,0.3-3,0.9-4.4c0.6-1.4,1.5-2.6,2.7-3.7c1.2-1.1,2.6-2,4.3-2.7
		c1.7-0.7,3.6-1.2,5.7-1.4v-6.2h5.6v6.2c2,0.3,3.8,0.8,5.3,1.5c1.5,0.7,2.9,1.6,4,2.7c1.1,1.1,2,2.3,2.6,3.7
		c0.6,1.4,1.1,2.8,1.4,4.4h-6.3c-0.2-0.9-0.6-1.8-1-2.7c-0.4-0.8-1.1-1.5-1.8-2.1c-0.8-0.6-1.7-1.1-2.9-1.4
		c-1.1-0.4-2.5-0.5-4.1-0.5c-1.6,0-3,0.2-4.3,0.5c-1.3,0.4-2.3,0.8-3.2,1.4c-0.9,0.6-1.5,1.3-2,2.1c-0.4,0.8-0.7,1.7-0.7,2.7
		c0,1.2,0.2,2.2,0.7,3.1c0.4,0.9,1.1,1.6,2.1,2.2c0.9,0.6,2.1,1.2,3.6,1.7c1.5,0.5,3.2,1,5.2,1.4c2.9,0.6,5.4,1.3,7.5,2.1
		c2.1,0.8,3.8,1.8,5.1,2.9c1.3,1.1,2.3,2.4,2.9,3.9c0.6,1.5,0.9,3.3,0.9,5.4c0,1.7-0.3,3.3-1,4.8c-0.7,1.5-1.6,2.8-2.9,3.9
		c-1.3,1.1-2.8,2.1-4.7,2.8c-1.9,0.7-4,1.2-6.3,1.4v7.5H216V199.7z"/>
</g>
<g class="st0">
	<g class="st1">
		<ellipse class="st5" cx="217.2" cy="289.9" rx="37.5" ry="70.5"/>
		<g>
			<path class="st3" d="M222.4,446.6c0-4.7,0-9.5,0-14.2c0-11.4,0-22.8,0-34.2c0-13.7,0-27.5,0-41.2c0-11.9,0-23.8,0-35.6
				c0-5.8,0.3-11.6,0-17.4c0-0.1,0-0.2,0-0.2c0-3.8-8.1-3.8-8.1,0c0,4.7,0,9.5,0,14.2c0,11.4,0,22.8,0,34.2c0,13.7,0,27.5,0,41.2
				c0,11.9,0,23.8,0,35.6c0,5.8-0.3,11.6,0,17.4c0,0.1,0,0.2,0,0.2C214.3,450.4,222.4,450.4,222.4,446.6L222.4,446.6z"/>
		</g>
		<g>
			<g>
				<path class="st2" d="M410.7,430.7H26c-12.1,0-22,9.8-22,22v57.2c0,12.1,9.8,22,22,22h10.1l10.6,82l18.7,144.5
					c4.4,33.9,33.3,59.3,67.5,59.3h170.9c34.2,0,63.1-25.4,67.5-59.3l29.3-226.6h10.1c12.1,0,22-9.8,22-22v-57.2
					C432.6,440.6,422.8,430.7,410.7,430.7z"/>
				<g>
					<path class="st3" d="M410.7,426.7c-5.5,0-11,0-16.5,0c-14.4,0-28.7,0-43.1,0c-20.4,0-40.9,0-61.3,0c-23.3,0-46.7,0-70,0
						c-23.5,0-47,0-70.6,0c-20.5,0-41,0-61.5,0c-14.7,0-29.5,0-44.2,0c-5.9,0-11.7-0.1-17.6,0c-14.6,0.2-26,12-26,26.5
						c0,8.6,0,17.2,0,25.8c0,9.7,0,19.3,0,29c0,4.8,0.7,9.5,2.9,13.9c3.9,7.7,11.6,12.9,20.1,13.9c4.3,0.5,8.7,0.2,13.1,0.2
						c-1.3-1.3-2.7-2.7-4-4c1.4,10.8,2.8,21.6,4.2,32.4c1.9,15.1,3.9,30.1,5.8,45.2c0.6,4.9,1.3,9.8,1.9,14.8c1.8,14,3.6,28,5.4,42
						c2.2,17.2,4.4,34.4,6.7,51.6c1.6,12,3.1,24.1,4.7,36.1c0.4,3.2,0.8,6.5,1.4,9.7c2.4,12.2,8,23.7,16.1,33.1
						c13.7,16,34.1,25,55.1,25c8.2,0,16.3,0,24.5,0c15.8,0,31.6,0,47.4,0c17.3,0,34.6,0,51.9,0c12.7,0,25.3,0,38,0c2.7,0,5.4,0,8,0
						c8.9,0,17.8-1.5,26.1-4.7c23.1-8.9,40.7-29.5,45.2-54c1.1-5.9,1.6-11.9,2.4-17.9c1.6-12.1,3.1-24.3,4.7-36.4
						c2.1-16.4,4.2-32.8,6.4-49.2c2.3-17.5,4.5-34.9,6.8-52.4c1.9-14.9,3.8-29.7,5.8-44.6c1.2-9,2.3-18.1,3.5-27.1
						c0.2-1.2,0.3-2.4,0.5-3.6c-1.3,1.3-2.7,2.7-4,4c3.4,0,6.7,0,10.1,0c7.4-0.1,14.7-3.2,19.5-8.8c4.2-4.9,6.4-10.9,6.5-17.3
						c0-2.1,0-4.2,0-6.3c0-16.6,0-33.3,0-49.9c0-5.5-1.3-10.9-4.5-15.4C427.2,431,419.3,426.8,410.7,426.7c-5.2-0.1-5.2,8,0,8.1
						c10.4,0.1,17.9,8.5,17.9,18.7c0,6.6,0,13.1,0,19.7c0,9,0,18,0,27c0,5.4,0.8,11.8-1.4,16.9c-2.6,6.1-8.7,10.5-15.3,10.9
						c-3.7,0.2-7.5,0-11.3,0c-2.4,0-3.8,1.9-4,4c-0.6,4.8-1.3,9.7-1.9,14.5c-1.6,12.3-3.2,24.6-4.8,36.9
						c-2.1,16.4-4.2,32.7-6.4,49.1c-2.2,17.2-4.5,34.5-6.7,51.7c-1.9,14.7-3.8,29.3-5.7,44c-1.1,8.9-2.3,17.8-3.4,26.7
						c-1.7,13-6,25.4-14.5,35.6c-12.5,15-30.8,23.3-50.2,23.3c-8.4,0-16.7,0-25.1,0c-15.7,0-31.4,0-47,0c-17.2,0-34.3,0-51.5,0
						c-12.6,0-25.2,0-37.8,0c-2.7,0-5.4,0-8.1,0c-8.2,0-16.1-1.4-23.7-4.3c-21.5-8.2-37.1-28.3-40.3-51c-1-7.2-1.9-14.5-2.8-21.7
						c-2-15.8-4.1-31.6-6.1-47.4c-2.1-16.3-4.2-32.7-6.3-49c-1.1-8.7-2.2-17.3-3.4-26c-1.1-8.6-2.2-17.1-3.3-25.7
						c-2.1-15.9-4.1-31.9-6.2-47.8c-0.4-3-0.8-6-1.2-8.9c-0.3-2.2-1.6-4-4-4c-4.3,0-8.9,0.5-13.1-0.2c-7.2-1.3-12.9-6.9-14.5-14
						c-0.6-2.6-0.4-5.4-0.4-8c0-4.6,0-9.2,0-13.8c0-10.8,0-21.6,0-32.3c0-2.2,0-4.5,0-6.7c0.1-7.1,4.3-13.7,10.9-16.5
						c3.2-1.4,6.5-1.4,9.9-1.4c3.5,0,7.1,0,10.6,0c13.4,0,26.8,0,40.2,0c19.5,0,39,0,58.5,0c22.8,0,45.6,0,68.4,0
						c23.3,0,46.6,0,69.9,0c21,0,42,0,63,0c15.8,0,31.5,0,47.3,0c7.7,0,15.3,0,23,0c0.3,0,0.7,0,1,0
						C415.9,434.8,415.9,426.7,410.7,426.7z"/>
				</g>
			</g>
			<g>
				<path class="st3" d="M400.6,527.8c-3.3,0-6.5,0-9.8,0c-8.9,0-17.7,0-26.6,0c-13,0-26.1,0-39.1,0c-16,0-31.9,0-47.9,0
					c-17.5,0-35,0-52.5,0c-17.6,0-35.2,0-52.8,0c-16.5,0-32.9,0-49.4,0c-13.9,0-27.8,0-41.7,0c-10,0-20,0-30,0
					c-4.7,0-9.5-0.1-14.2,0c-0.2,0-0.4,0-0.6,0c-5.2,0-5.2,8.1,0,8.1c3.3,0,6.5,0,9.8,0c8.9,0,17.7,0,26.6,0c13,0,26.1,0,39.1,0
					c16,0,31.9,0,47.9,0c17.5,0,35,0,52.5,0c17.6,0,35.2,0,52.8,0c16.5,0,32.9,0,49.4,0c13.9,0,27.8,0,41.7,0c10,0,20,0,30,0
					c4.7,0,9.5,0.1,14.2,0c0.2,0,0.4,0,0.6,0C405.8,535.9,405.8,527.8,400.6,527.8L400.6,527.8z"/>
			</g>
		</g>
		<polygon class="st6" points="535.2,588.3 469.5,653.9 461.1,588.3 		"/>
	</g>
	<path class="st4" d="M357.6,430.7H79.1c33-23.9,83.1-39.2,139.2-39.2C274.5,391.6,324.6,406.8,357.6,430.7z"/>
</g>
<g>
	<g>
		
			<ellipse transform="matrix(0.7071 -0.7071 0.7071 0.7071 -53.1672 126.121)" class="st2" cx="125.7" cy="127.2" rx="73.2" ry="73.2"/>
		<g>
			<path class="st3" d="M192.1,106.3c4.3,13.9,4.3,28.8-0.2,42.6c-4.3,13.2-12.8,25.2-23.8,33.6c-11.6,8.8-25.8,13.9-40.4,14.4
				c-14.2,0.4-28.3-3.6-40.2-11.3c-24.5-15.8-36.5-46.5-29.6-74.7c6.9-28.3,31.5-50,60.5-53c14-1.4,28.2,1.4,40.6,8.2
				c12.6,6.9,22.7,17.5,29.1,30.3C189.8,99.6,191.1,102.9,192.1,106.3c1.4,4.3,8,2.2,6.7-2.1c-4.8-15.1-14.2-28.6-26.9-38.2
				c-12.4-9.3-27.4-14.7-42.9-15.5c-32-1.5-62.5,18.2-74.4,47.8c-5.9,14.7-7.2,30.8-3.6,46.2c3.6,15.5,12.2,29.9,24.2,40.4
				c11.5,10,26,16.6,41.2,18.4c16.1,1.9,32.3-1.3,46.5-9c27.6-15.1,43.5-47.2,38.7-78.3c-0.6-4-1.5-7.9-2.7-11.8
				C197.5,99.9,190.8,102,192.1,106.3z"/>
		</g>
	</g>
	<g>
		<path class="st3" d="M174.8,111.8c6.3,20.3-0.6,43.3-17.7,56.3c-17.3,13.2-41.3,14.1-59.6,2.4c-18.1-11.6-27-34.4-21.9-55.2
			c5-20.9,23.1-37,44.6-39.2c21.4-2.2,42.2,9.3,51.8,28.5C173.1,106.9,174,109.3,174.8,111.8c1.4,4.3,8,2.2,6.7-2.1
			C174,86.4,152.7,70,128.3,68.8c-24.4-1.2-47.8,13.8-56.8,36.4c-9.2,22.8-3.1,49.7,15.5,66c18.5,16.2,45.6,19.1,67.1,7.3
			c20.9-11.5,33.1-35.9,29.5-59.6c-0.5-3.1-1.1-6.2-2.1-9.2C180.1,105.4,173.5,107.5,174.8,111.8z"/>
	</g>
	<path class="st3" d="M129.7,148.4c-2.3,0.5-4.4,0.6-6.3,0.5c-1.9-0.2-3.6-0.6-5.1-1.4c-1.5-0.7-2.8-1.7-4-2.9
		c-1.1-1.2-2.1-2.6-2.9-4.1l6.1-1.9c0.5,0.9,1.2,1.7,2,2.5c0.8,0.7,1.7,1.3,2.8,1.6c1.1,0.4,2.3,0.5,3.7,0.5c1.4,0,3-0.3,4.7-0.9
		c1.8-0.6,3.3-1.2,4.6-2c1.3-0.8,2.2-1.7,3-2.6c0.7-0.9,1.2-1.9,1.4-2.9c0.2-1,0.1-2-0.2-3.1c-0.4-1.2-0.9-2.2-1.6-3
		c-0.7-0.7-1.6-1.3-2.8-1.6c-1.2-0.3-2.6-0.5-4.3-0.5c-1.7,0-3.8,0.1-6.3,0.3c-2.7,0.2-5,0.3-7.1,0.2c-2.1-0.1-3.8-0.4-5.3-1.1
		c-1.5-0.6-2.8-1.6-3.8-2.8c-1-1.2-1.9-2.9-2.5-4.9c-0.5-1.5-0.6-3-0.5-4.5c0.2-1.5,0.6-3,1.5-4.4c0.8-1.4,1.9-2.7,3.3-3.9
		c1.4-1.2,3.1-2.2,5.1-3.1l-1.9-6l5.4-1.7l1.9,6c2-0.4,3.9-0.4,5.6-0.2c1.7,0.2,3.2,0.7,4.6,1.4c1.4,0.7,2.6,1.6,3.6,2.7
		c1,1.1,1.9,2.4,2.6,3.8l-6.1,1.9c-0.5-0.8-1.1-1.6-1.8-2.2c-0.7-0.7-1.5-1.2-2.4-1.5c-0.9-0.3-2-0.5-3.2-0.5
		c-1.2,0-2.6,0.2-4.1,0.7c-1.5,0.5-2.9,1.1-4,1.8c-1.1,0.7-2,1.5-2.6,2.3c-0.7,0.8-1.1,1.7-1.3,2.7c-0.2,0.9-0.1,1.8,0.2,2.7
		c0.4,1.2,0.9,2.1,1.6,2.8c0.7,0.7,1.6,1.2,2.7,1.5c1.1,0.3,2.4,0.5,4,0.5c1.5,0,3.3,0,5.4-0.2c3-0.3,5.6-0.3,7.8-0.2
		c2.2,0.1,4.2,0.5,5.8,1.2c1.6,0.7,2.9,1.6,4,2.9c1,1.3,1.9,2.9,2.5,4.9c0.5,1.6,0.7,3.3,0.5,4.9c-0.2,1.6-0.7,3.2-1.6,4.6
		c-0.9,1.5-2.1,2.9-3.7,4.1c-1.6,1.3-3.4,2.4-5.7,3.3l2.3,7.2l-5.4,1.7L129.7,148.4z"/>
</g>
<g>
	<g>
		
			<ellipse transform="matrix(0.7071 -0.7071 0.7071 0.7071 33.212 256.8262)" class="st2" cx="326.6" cy="88.3" rx="84.3" ry="84.3"/>
		<g>
			<path class="st3" d="M392.9,133.7c-9.5,13.8-23,24.3-38.8,30.1c-15,5.5-31.9,6.4-47.4,2.4c-16.3-4.2-31-13.5-41.8-26.4
				c-10.5-12.6-16.8-28.2-18.3-44.5c-3.1-33.4,16.2-66.1,46.6-80c30.6-14,67.7-7.1,91.1,17.2c11.3,11.7,18.8,26.6,21.5,42.6
				c2.7,16.3,0.3,33.1-6.7,47.9C397.3,126.7,395.2,130.3,392.9,133.7c-2.9,4.3,3.7,8.9,6.7,4.6c10.3-15.1,15.8-33.3,15.4-51.6
				c-0.4-17.9-6.2-35.3-16.5-49.9C377,6.8,337.5-6.9,302.1,3.4c-17.5,5.1-33,15.4-44.4,29.6c-11.5,14.3-18.4,32.3-19.4,50.6
				c-0.9,17.6,3.5,35.4,12.7,50.4c9.7,15.9,24.2,28.4,41.3,35.7c33.3,14.2,73.8,5.8,98.5-20.7c3.2-3.4,6.1-7,8.8-10.8
				C402.5,133.9,395.9,129.4,392.9,133.7z"/>
		</g>
	</g>
	<g>
		<path class="st3" d="M375.6,121.8c-13.9,20.2-39.6,30.2-63.6,24.1c-24.3-6.3-42.2-27.4-44.6-52.4c-2.4-24.7,11.9-48.9,34.4-59.2
			c22.5-10.3,50-5.3,67.2,12.5c17.3,17.8,21.6,44.9,11,67.3C378.9,116.8,377.3,119.4,375.6,121.8c-2.9,4.3,3.7,8.9,6.7,4.6
			c15.8-23.3,15.4-54.3-0.8-77.3C365.3,26.2,335,15.6,308,23.5c-27.2,8-47.2,32.6-48.7,61c-1.5,28.3,15.2,54.9,41.2,66
			c25.3,10.8,56.1,4.4,75-15.7c2.5-2.6,4.8-5.4,6.8-8.4C385.2,122.1,378.6,117.6,375.6,121.8z"/>
	</g>
	<path class="st3" d="M310.3,107c-2.1-1.7-3.7-3.5-4.9-5.4c-1.2-1.9-2-3.7-2.4-5.6c-0.4-1.9-0.5-3.8-0.2-5.6
		c0.3-1.9,0.8-3.7,1.7-5.5l6,4.1c-0.5,1.1-0.7,2.3-0.8,3.5c-0.1,1.2,0.1,2.5,0.5,3.7c0.4,1.2,1.2,2.5,2.2,3.7c1,1.2,2.4,2.5,4.2,3.7
		c1.8,1.2,3.5,2.1,5.1,2.7c1.6,0.6,3.1,0.9,4.5,0.8c1.4,0,2.6-0.3,3.6-0.8c1.1-0.5,1.9-1.3,2.6-2.3c0.8-1.2,1.4-2.4,1.5-3.6
		c0.2-1.1,0-2.4-0.5-3.7c-0.5-1.3-1.4-2.7-2.6-4.3c-1.2-1.6-2.8-3.4-4.7-5.5c-2.1-2.3-3.8-4.3-5.2-6.3c-1.4-1.9-2.3-3.8-2.8-5.6
		c-0.5-1.8-0.5-3.6-0.2-5.4c0.4-1.8,1.3-3.7,2.7-5.8c1-1.5,2.3-2.7,3.8-3.6c1.5-0.9,3.1-1.5,5-1.8c1.8-0.3,3.8-0.2,5.9,0.2
		c2.1,0.4,4.2,1.2,6.4,2.4l4.1-6l5.4,3.7l-4.1,6c1.7,1.6,3.1,3.2,4.1,4.9c1,1.7,1.7,3.4,2,5.2c0.3,1.7,0.4,3.5,0.1,5.2
		c-0.3,1.7-0.8,3.4-1.6,5.1l-6-4.1c0.4-1,0.7-2.1,0.8-3.2c0.1-1.1,0-2.2-0.4-3.3c-0.4-1.1-1-2.2-1.8-3.3c-0.9-1.1-2-2.1-3.5-3.2
		c-1.5-1.1-3-1.8-4.5-2.3c-1.4-0.5-2.8-0.7-4-0.7c-1.2,0-2.3,0.3-3.3,0.8c-1,0.5-1.8,1.2-2.4,2.1c-0.8,1.2-1.3,2.3-1.4,3.4
		c-0.1,1.1,0,2.3,0.5,3.5c0.5,1.2,1.3,2.5,2.3,4c1.1,1.4,2.4,3,4.1,4.8c2.4,2.5,4.3,4.8,5.8,7c1.5,2.1,2.5,4.2,3,6.1
		c0.5,1.9,0.6,3.8,0.2,5.6c-0.4,1.9-1.3,3.8-2.7,5.8c-1.1,1.6-2.5,2.9-4.1,3.9c-1.6,1-3.4,1.6-5.4,1.8c-2,0.3-4.1,0.1-6.3-0.4
		c-2.3-0.5-4.6-1.4-7-2.8l-4.9,7.2l-5.4-3.7L310.3,107z"/>
</g>
<g>
	<g>
		<g>
			<g>
				<g>
					<path class="st2" d="M410.7,430.7H26c-12.1,0-22,9.8-22,22v57.2c0,12.1,9.8,22,22,22h10.1l29.3,226.6
						c4.4,33.9,33.3,59.3,67.5,59.3h170.9c34.2,0,63.1-25.4,67.5-59.3l29.3-226.6h10.1c12.1,0,22-9.8,22-22v-57.2
						C432.6,440.6,422.8,430.7,410.7,430.7z"/>
					<g>
						<path class="st3" d="M410.7,426.7c-5.5,0-11,0-16.5,0c-14.5,0-28.9,0-43.4,0c-20.3,0-40.7,0-61,0c-23.5,0-46.9,0-70.4,0
							c-23.5,0-47,0-70.5,0c-20.5,0-41,0-61.6,0c-14.6,0-29.3,0-43.9,0c-5.8,0-11.6-0.1-17.4,0c-14.6,0.2-26,12.1-26,26.6
							c0,8.6,0,17.3,0,25.9c0,9.6,0,19.2,0,28.8c0,4.9,0.7,9.5,2.9,13.9c3.9,7.7,11.7,12.8,20.1,13.8c4.3,0.5,8.7,0.2,13,0.2
							c-1.3-1.3-2.7-2.7-4-4c0.6,4.9,1.3,9.8,1.9,14.8c1.6,12.5,3.2,25,4.8,37.4c2.1,16.6,4.3,33.2,6.4,49.9
							c2.2,17.3,4.5,34.7,6.7,52c1.9,14.6,3.8,29.2,5.7,43.8c1.1,8.6,2.2,17.2,3.3,25.8c0.4,2.9,0.7,5.8,1.3,8.7
							c2.4,12.1,8.1,23.4,16.2,32.7c13.7,15.9,34.1,24.8,55,24.8c8.2,0,16.4,0,24.6,0c15.8,0,31.6,0,47.5,0c17.3,0,34.6,0,51.9,0
							c12.6,0,25.3,0,37.9,0c2.7,0,5.3,0,8,0c9,0,17.9-1.5,26.3-4.8c23-9,40.5-29.5,45-53.9c1.1-5.9,1.6-11.9,2.4-17.9
							c1.6-12.1,3.1-24.3,4.7-36.4c2.1-16.5,4.3-33,6.4-49.4c2.2-17.4,4.5-34.8,6.7-52.2c1.9-14.9,3.9-29.8,5.8-44.7
							c1.2-9,2.3-18,3.5-27c0.2-1.2,0.3-2.4,0.5-3.6c-1.3,1.3-2.7,2.7-4,4c3.5,0,6.9,0.1,10.4,0c7.3-0.1,14.4-3.3,19.2-8.8
							c4.2-4.9,6.4-10.9,6.5-17.3c0-2.1,0-4.2,0-6.3c0-16.6,0-33.3,0-49.9c0-5.6-1.4-11.1-4.7-15.7
							C427,430.9,419.2,426.8,410.7,426.7c-5.2-0.1-5.2,8,0,8.1c10.3,0.1,17.9,8.5,17.9,18.6c0,6.5,0,13,0,19.5c0,9.1,0,18.1,0,27.2
							c0,5.5,0.8,12.1-1.6,17.2c-2.7,5.8-8.4,10-14.9,10.5c-3.8,0.3-7.7,0.1-11.6,0.1c-2.4,0-3.8,1.9-4,4c-0.6,4.8-1.3,9.7-1.9,14.5
							c-1.6,12.2-3.2,24.5-4.8,36.7c-2.1,16.4-4.2,32.9-6.4,49.3c-2.2,17.2-4.4,34.3-6.7,51.5c-1.9,14.7-3.8,29.5-5.7,44.2
							c-1.1,8.9-2.3,17.7-3.4,26.6c-1.7,13.1-6,25.4-14.5,35.7c-12.5,14.9-30.8,23.3-50.2,23.3c-8.3,0-16.6,0-24.9,0
							c-15.7,0-31.5,0-47.2,0c-17.1,0-34.2,0-51.3,0c-12.6,0-25.2,0-37.8,0c-2.8,0-5.5,0-8.3,0c-8.1,0-15.9-1.4-23.5-4.2
							c-21.7-8.2-37.3-28.3-40.6-51.1c-0.7-4.9-1.3-9.8-1.9-14.6c-1.6-12.3-3.2-24.5-4.8-36.8c-2.1-16.4-4.3-32.9-6.4-49.3
							c-2.2-17.2-4.5-34.5-6.7-51.7c-1.9-14.6-3.8-29.3-5.7-43.9c-1.1-8.9-2.3-17.7-3.4-26.6c-0.2-1.2-0.3-2.4-0.5-3.6
							c-0.3-2.2-1.6-4-4-4c-4.3,0-8.9,0.5-13.1-0.2c-7.1-1.2-12.8-6.6-14.4-13.6c-0.6-2.7-0.5-5.5-0.5-8.2c0-4.6,0-9.2,0-13.8
							c0-10.8,0-21.5,0-32.3c0-2.3,0-4.7,0-7c0.1-6.9,3.9-13,10-16.1c3.4-1.7,7-1.8,10.7-1.8c3.4,0,6.9,0,10.3,0
							c13.4,0,26.8,0,40.2,0c19.5,0,39,0,58.5,0c22.9,0,45.7,0,68.6,0c23.4,0,46.7,0,70.1,0c20.9,0,41.9,0,62.8,0
							c15.8,0,31.6,0,47.3,0c7.7,0,15.4,0,23.1,0c0.3,0,0.7,0,1,0C415.9,434.8,415.9,426.7,410.7,426.7z"/>
					</g>
				</g>
				<g>
					<path class="st3" d="M400.6,527.9c-3.3,0-6.5,0-9.8,0c-8.9,0-17.7,0-26.6,0c-13,0-26.1,0-39.1,0c-16,0-31.9,0-47.9,0
						c-17.5,0-35,0-52.5,0c-17.6,0-35.2,0-52.8,0c-16.5,0-32.9,0-49.4,0c-13.9,0-27.8,0-41.7,0c-10,0-20,0-30,0
						c-4.7,0-9.5-0.1-14.2,0c-0.2,0-0.4,0-0.6,0c-5.2,0-5.2,8.1,0,8.1c3.3,0,6.5,0,9.8,0c8.9,0,17.7,0,26.6,0c13,0,26.1,0,39.1,0
						c16,0,31.9,0,47.9,0c17.5,0,35,0,52.5,0c17.6,0,35.2,0,52.8,0c16.5,0,32.9,0,49.4,0c13.9,0,27.8,0,41.7,0c10,0,20,0,30,0
						c4.7,0,9.5,0.1,14.2,0c0.2,0,0.4,0,0.6,0C405.8,535.9,405.8,527.9,400.6,527.9L400.6,527.9z"/>
				</g>
			</g>
			<polygon class="st6" points="110.2,531.9 44.6,597.5 36.1,531.9 			"/>
		</g>
		<g>
			
				<ellipse transform="matrix(0.7071 -0.7071 0.7071 0.7071 -112.9421 133.2199)" class="st5" cx="104.3" cy="202.9" rx="58.4" ry="109.8"/>
			<g>
				<path class="st3" d="M221.8,430.7c0-5.7,0-11.5,0-17.2c0-12.7,0-25.4,0-38.2c0-13,0-26,0-38.9c0-6.5,0.3-13.1,0-19.5
					c-0.1-2.1-1.3-3.1-2.6-4.4c-1.9-1.9-3.7-3.7-5.6-5.6c-6.9-6.9-13.7-13.7-20.6-20.6c-9.3-9.3-18.6-18.6-28-28
					c-9.7-9.7-19.4-19.4-29-29c-8-8-15.9-15.9-23.9-23.9c-4.1-4.1-8.2-8.3-12.4-12.4c-0.2-0.2-0.4-0.4-0.6-0.6
					c-3.7-3.7-9.4,2-5.7,5.7c4,4,8.1,8.1,12.1,12.1c9.7,9.7,19.3,19.3,29,29c11.7,11.7,23.3,23.3,35,35
					c10.1,10.1,20.3,20.3,30.4,30.4c3.3,3.3,6.6,6.6,9.9,9.9c1.6,1.6,3.1,3.3,4.8,4.8c0.1,0.1,0.1,0.1,0.2,0.2
					c-0.4-1-0.8-1.9-1.2-2.9c0,12.9,0,25.8,0,38.7c0,20.4,0,40.8,0,61.2c0,4.7,0,9.4,0,14C213.8,435.9,221.8,435.9,221.8,430.7
					L221.8,430.7z"/>
			</g>
			
				<ellipse transform="matrix(0.7071 -0.7071 0.7071 0.7071 -46.167 294.4288)" class="st5" cx="332.3" cy="202.9" rx="109.8" ry="58.4"/>
			<g>
				<path class="st3" d="M220.6,319.6c4.2-4.2,8.4-8.4,12.7-12.7c10.2-10.2,20.4-20.4,30.6-30.6c12.3-12.3,24.6-24.6,36.8-36.8
					c10.6-10.6,21.2-21.2,31.9-31.9c5.2-5.2,10.6-10.2,15.5-15.5c0.1-0.1,0.1-0.1,0.2-0.2c3.7-3.7-2-9.4-5.7-5.7
					c-4.2,4.2-8.4,8.4-12.7,12.7c-10.2,10.2-20.4,20.4-30.6,30.6c-12.3,12.3-24.6,24.6-36.8,36.8c-10.6,10.6-21.2,21.2-31.9,31.9
					c-5.2,5.2-10.6,10.2-15.5,15.5c-0.1,0.1-0.1,0.1-0.2,0.2C211.3,317.6,217,323.3,220.6,319.6L220.6,319.6z"/>
			</g>
		</g>
	</g>
	<path class="st3" d="M357,430.7H78.6c33-23.9,83.1-39.2,139.2-39.2C273.9,391.6,324,406.8,357,430.7z"/>
</g>
</svg>
