<?xml version="1.0" encoding="utf-8"?>
<!-- Generator: Adobe Illustrator 27.8.1, SVG Export Plug-In . SVG Version: 6.00 Build 0)  -->
<svg version="1.1" id="分離模式" xmlns="http://www.w3.org/2000/svg" xmlns:xlink="http://www.w3.org/1999/xlink" x="0px"
	 y="0px" viewBox="0 0 436.7 721.4" style="enable-background:new 0 0 436.7 721.4;" xml:space="preserve">
<style type="text/css">
	.st0{display:none;}
	.st1{display:inline;}
	.st2{fill:#FFFFFF;}
	.st3{fill:#221E1F;}
	.st4{fill:#4FAF49;}
	.st5{display:none;fill:#221E1F;}
</style>
<g id="_x31_8" class="st0">
	<g class="st1">
		<g>
			<polygon class="st2" points="217.7,286.4 230.4,279.6 254.5,292 480.9,326.1 480.9,521.2 348.7,591.9 98.3,463.6 98.3,268.5 			
				"/>
			<path d="M348.7,600c-1.3,0-2.5-0.3-3.7-0.9L94.6,470.8c-2.7-1.4-4.4-4.2-4.4-7.2V268.5c0-2.4,1-4.6,2.8-6.2
				c1.8-1.5,4.2-2.2,6.5-1.9L216.2,278l10.4-5.5c2.3-1.3,5.2-1.3,7.5-0.1l23,11.8l225,33.9c4,0.6,6.9,4,6.9,8v195.1
				c0,3-1.7,5.7-4.3,7.2L352.6,599C351.4,599.7,350,600,348.7,600z M106.4,458.6l242.2,124.1l124.1-66.4V333.1l-219.4-33
				c-0.9-0.1-1.7-0.4-2.5-0.8l-20.4-10.4l-9,4.8c-1.5,0.8-3.3,1.1-5,0.9l-110.1-16.6V458.6z"/>
		</g>
		<g>
			<polygon class="st2" points="230.4,197.8 480.9,326.1 348.7,396.8 98.3,268.5 			"/>
			<path d="M348.7,404.9c-1.3,0-2.5-0.3-3.7-0.9L94.6,275.7c-2.7-1.4-4.4-4.1-4.4-7.2c0-3,1.6-5.8,4.3-7.2l132.1-70.7
				c2.3-1.3,5.2-1.3,7.5-0.1l250.5,128.3c2.7,1.4,4.4,4.1,4.4,7.2c0,3-1.6,5.8-4.3,7.2l-132.1,70.7
				C351.4,404.6,350,404.9,348.7,404.9z M115.8,268.3l232.9,119.3l114.7-61.4L230.5,206.9L115.8,268.3z"/>
		</g>
		<g>
			<g>
				<path class="st2" d="M406.8,316.9l-161.2-82.6c-2.8,5.5-8.4,9.2-15,9.2c-6.5,0-12-3.7-14.9-9l-43.9,23.5
					c1.7,3.1,2.8,6.6,2.8,10.4c0,3.4-0.8,6.5-2.2,9.3l161.2,82.6c2.8-5.5,8.4-9.3,15.1-9.3c6.4,0,11.9,3.6,14.8,8.9l43.5-23.3
					c-1.6-3-2.6-6.4-2.6-10.1C404.4,323,405.3,319.8,406.8,316.9z"/>
				<path d="M333.7,368.5c-1.3,0-2.5-0.3-3.7-0.9L168.8,285c-3.9-2-5.5-6.8-3.6-10.8c0.9-1.9,1.4-3.8,1.4-5.7c0-2.2-0.6-4.3-1.8-6.4
					c-1.1-1.9-1.3-4.2-0.7-6.3c0.6-2.1,2-3.9,4-4.9l43.9-23.5c3.9-2.1,8.9-0.6,11,3.3c1.6,2.9,4.5,4.7,7.7,4.7
					c3.3,0,6.2-1.8,7.8-4.8c2.1-4,6.9-5.6,10.9-3.5l161.2,82.6c4,2,5.6,6.9,3.5,10.9c-1,2-1.5,4-1.5,6c0,2.1,0.6,4.2,1.7,6.2
					c1,1.9,1.3,4.1,0.6,6.2c-0.6,2.1-2,3.8-3.9,4.8l-43.5,23.3c-3.9,2.1-8.8,0.6-11-3.3c-1.6-2.9-4.5-4.6-7.7-4.6
					c-3.3,0-6.3,1.9-7.8,4.9c-1,1.9-2.7,3.4-4.7,4.1C335.4,368.4,334.5,368.5,333.7,368.5z M182.3,273.7L331.3,350
					c4.6-4.5,10.8-7.1,17.4-7.1c6.4,0,12.4,2.4,16.9,6.7l31.4-16.8c-0.5-2.1-0.7-4.2-0.7-6.3c0-1.9,0.2-3.8,0.6-5.6L248,244.6
					c-4.6,4.5-10.7,7-17.3,7c-6.4,0-12.4-2.5-17-6.7l-31.6,16.9c0.5,2.2,0.8,4.4,0.8,6.6C182.8,270.2,182.7,272,182.3,273.7z"/>
			</g>
		</g>
		<g>
			<path class="st2" d="M348.7,396.8v154.4V396.8z"/>
			<path d="M348.7,559.4c-4.5,0-8.1-3.6-8.1-8.1V396.8c0-4.5,3.6-8.1,8.1-8.1c4.5,0,8.1,3.6,8.1,8.1v154.4
				C356.8,555.7,353.2,559.4,348.7,559.4z"/>
		</g>
		<g>
			<polygon class="st2" points="313.1,240.1 181,310.7 181,505.9 262.5,547.7 262.5,352.6 394.6,281.9 			"/>
			<path d="M262.5,555.8c-1.3,0-2.5-0.3-3.7-0.9l-81.5-41.7c-2.7-1.4-4.4-4.2-4.4-7.2V310.7c0-3,1.7-5.8,4.3-7.2L309.3,233
				c2.3-1.3,5.2-1.3,7.5-0.1l81.5,41.8c2.7,1.4,4.4,4.1,4.4,7.2s-1.6,5.8-4.3,7.2l-127.9,68.4v190.2c0,2.8-1.5,5.5-3.9,6.9
				C265.4,555.4,264,555.8,262.5,555.8z M189.1,501l65.2,33.4V352.6c0-3,1.7-5.7,4.3-7.2l118.5-63.4l-63.9-32.8l-124,66.3V501z"/>
		</g>
		<g>
			<path class="st2" d="M481,377l-73.9,39.6L481,377z"/>
			<path d="M407.1,424.7c-2.9,0-5.7-1.6-7.2-4.3c-2.1-4-0.6-8.9,3.3-11l73.9-39.6c3.9-2.1,8.9-0.6,11,3.3c2.1,4,0.6,8.9-3.3,11
				l-73.9,39.6C409.7,424.4,408.4,424.7,407.1,424.7z"/>
		</g>
	</g>
	<g class="st1">
		<g>
			<path class="st2" d="M274.9,721.4c-3.8,0-7.6-0.9-11.1-2.7L13.4,590.4c-8.1-4.2-13.3-12.6-13.3-21.7V467.2c0-9,5-17.3,12.9-21.5
				L145.1,375c3.6-1.9,7.5-2.9,11.5-2.9c3.8,0,7.6,0.9,11.1,2.7l250.5,128.3c8.1,4.2,13.3,12.6,13.3,21.7v101.5
				c0,9-5,17.3-12.9,21.5l-132.1,70.7C282.8,720.5,278.9,721.4,274.9,721.4z"/>
		</g>
		<g>
			<polygon class="st2" points="143.9,485.2 156.6,478.4 180.8,490.7 407.1,524.8 407.1,626.3 274.9,697 24.5,568.7 24.5,467.2 			
				"/>
			<path d="M274.9,705.2c-1.3,0-2.5-0.3-3.7-0.9L20.8,576c-2.7-1.4-4.4-4.2-4.4-7.2V467.2c0-2.4,1-4.6,2.8-6.2
				c1.8-1.5,4.2-2.2,6.5-1.9l116.7,17.6l10.4-5.5c2.3-1.3,5.2-1.3,7.5-0.1l23,11.8l225,33.9c4,0.6,6.9,4,6.9,8v101.5
				c0,3-1.7,5.7-4.3,7.2l-132.1,70.7C277.6,704.8,276.2,705.2,274.9,705.2z M32.6,563.8l242.2,124.1l124.1-66.4v-89.6l-219.4-33
				c-0.9-0.1-1.7-0.4-2.5-0.8l-20.4-10.4l-9,4.8c-1.5,0.8-3.3,1.1-5,0.9L32.6,476.7V563.8z"/>
		</g>
		<g>
			<polygon class="st2" points="156.6,396.5 407.1,524.8 274.9,595.5 24.5,467.2 			"/>
			<path d="M274.9,603.7c-1.3,0-2.5-0.3-3.7-0.9L20.8,474.5c-2.7-1.4-4.4-4.1-4.4-7.2c0-3,1.6-5.8,4.3-7.2l132.1-70.7
				c2.3-1.3,5.2-1.3,7.5-0.1l250.5,128.3c2.7,1.4,4.4,4.1,4.4,7.2c0,3-1.6,5.8-4.3,7.2l-132.1,70.7
				C277.6,603.3,276.2,603.7,274.9,603.7z M42,467.1l232.9,119.3L389.5,525L156.7,405.7L42,467.1z"/>
		</g>
		<g>
			<g>
				<path class="st2" d="M333,515.6L171.9,433c-2.8,5.5-8.4,9.2-15,9.2c-6.5,0-12-3.7-14.9-9l-43.9,23.5c1.7,3.1,2.8,6.6,2.8,10.4
					c0,3.4-0.8,6.5-2.2,9.3l161.2,82.6c2.8-5.5,8.4-9.3,15.1-9.3c6.4,0,11.9,3.6,14.8,8.9l43.5-23.3c-1.6-3-2.6-6.4-2.6-10.1
					C330.6,521.8,331.5,518.5,333,515.6z"/>
				<path d="M259.9,567.2c-1.3,0-2.5-0.3-3.7-0.9L95,483.8c-3.9-2-5.5-6.8-3.6-10.8c0.9-1.9,1.4-3.8,1.4-5.7c0-2.2-0.6-4.3-1.8-6.4
					c-1.1-1.9-1.3-4.2-0.7-6.3c0.6-2.1,2-3.9,4-4.9l43.9-23.5c3.9-2.1,8.9-0.6,11,3.3c1.6,2.9,4.5,4.7,7.7,4.7
					c3.3,0,6.2-1.9,7.8-4.8c2-4,6.9-5.6,10.9-3.5l161.2,82.6c4,2,5.6,6.9,3.5,10.9c-1,2-1.5,4-1.5,5.9c0,2.1,0.6,4.2,1.7,6.2
					c1,1.9,1.3,4.1,0.6,6.2c-0.6,2.1-2,3.8-3.9,4.8l-43.5,23.3c-3.9,2.1-8.8,0.6-11-3.3c-1.6-2.9-4.5-4.6-7.7-4.6
					c-3.3,0-6.3,1.9-7.8,4.9c-1,1.9-2.7,3.4-4.7,4.1C261.6,567.1,260.7,567.2,259.9,567.2z M108.5,472.5l148.9,76.3
					c4.6-4.5,10.8-7.1,17.4-7.1c6.4,0,12.4,2.4,16.9,6.7l31.4-16.8c-0.5-2.1-0.7-4.1-0.7-6.3c0-1.9,0.2-3.8,0.6-5.6l-148.9-76.3
					c-4.6,4.5-10.7,7-17.3,7c-6.4,0-12.5-2.5-17-6.7l-31.6,16.9c0.5,2.2,0.8,4.4,0.8,6.6C109,469,108.9,470.7,108.5,472.5z"/>
			</g>
		</g>
		<g>
			<path class="st2" d="M274.9,595.5v60.9V595.5z"/>
			<path d="M274.9,664.5c-4.5,0-8.1-3.6-8.1-8.1v-60.9c0-4.5,3.6-8.1,8.1-8.1c4.5,0,8.1,3.6,8.1,8.1v60.9
				C283,660.9,279.4,664.5,274.9,664.5z"/>
		</g>
		<g>
			<polygon class="st2" points="239.3,438.9 107.2,509.5 107.2,611.1 188.7,652.9 188.7,551.3 320.8,480.6 			"/>
			<path d="M188.7,661c-1.3,0-2.5-0.3-3.7-0.9l-81.5-41.7c-2.7-1.4-4.4-4.2-4.4-7.2V509.5c0-3,1.7-5.8,4.3-7.2l132.1-70.6
				c2.3-1.3,5.2-1.3,7.5-0.1l81.5,41.8c2.7,1.4,4.4,4.1,4.4,7.2c0,3-1.6,5.8-4.3,7.2l-127.9,68.4v96.6c0,2.8-1.5,5.5-3.9,6.9
				C191.6,660.6,190.2,661,188.7,661z M115.3,606.2l65.2,33.4v-88.2c0-3,1.7-5.7,4.3-7.2l118.5-63.4l-63.9-32.8l-124,66.3V606.2z"/>
		</g>
		<g>
			<path class="st2" d="M348.9,587.8l-73.9,39.6L348.9,587.8z"/>
			<path d="M274.9,635.5c-2.9,0-5.7-1.6-7.2-4.3c-2.1-4-0.6-8.9,3.3-11l73.9-39.6c4-2.1,8.9-0.6,11,3.3c2.1,4,0.6,8.9-3.3,11
				l-73.9,39.6C277.5,635.2,276.2,635.5,274.9,635.5z"/>
		</g>
	</g>
</g>
<g>
	<g>
		
			<ellipse transform="matrix(0.7071 -0.7071 0.7071 0.7071 10.8627 176.6355)" class="st2" cx="218.6" cy="75.2" rx="72.8" ry="72.8"/>
		<g>
			<path class="st3" d="M288,75.2c0,14.5-4.5,28.6-12.9,40.4c-8,11.3-19.6,20.1-32.6,24.8c-13.7,4.9-28.7,5.5-42.6,1.6
				c-13.6-3.8-25.7-11.9-34.7-22.7c-18.5-22.3-20.7-55-5.8-79.8c15-24.8,44.8-38.1,73.3-32.2c13.8,2.8,26.4,9.8,36.1,19.9
				c9.9,10.3,16.3,23.4,18.6,37.5C287.8,68.1,288,71.7,288,75.2c0,4.5,7,4.5,7,0c-0.1-15.8-4.9-31.4-14.2-44.3
				c-9-12.5-21.6-22.1-36.1-27.5C214.8-7.5,180,2,159.8,26.6c-10,12.2-16,27-17.2,42.7c-1.3,15.8,2.6,32,10.9,45.5
				c7.9,12.9,19.7,23.5,33.6,29.8c14.7,6.6,31.1,8.5,46.8,5.3c30.7-6.1,55.4-31.8,60.1-62.8c0.6-4,0.9-8,1-12
				C295,70.7,288,70.7,288,75.2z"/>
		</g>
	</g>
	<g>
		<path class="st3" d="M269.9,75.2c-0.1,21.2-13.5,40.9-33.6,48.1c-20.4,7.4-43.4,1.1-57.3-15.6c-13.7-16.5-15.3-40.7-4.3-58.9
			c11-18.3,33-28.2,54-23.9c21,4.3,37.3,21.4,40.7,42.6C269.8,70,269.9,72.6,269.9,75.2c0,4.5,7,4.5,7,0
			c-0.1-24.3-15.5-46.2-38.2-54.7c-22.7-8.4-49.4-1.2-64.8,17.6c-15.5,18.9-17.8,46.2-5,67.2c12.7,20.9,37.6,31.7,61.5,26.9
			c23.3-4.6,42.2-24.2,45.8-47.7c0.5-3.1,0.8-6.2,0.8-9.3C276.9,70.7,269.9,70.7,269.9,75.2z"/>
	</g>
	<path class="st3" d="M216,99.3c-2.3-0.2-4.4-0.7-6.1-1.4c-1.8-0.7-3.3-1.7-4.5-2.8c-1.2-1.1-2.2-2.5-2.9-3.9
		c-0.7-1.5-1.2-3.1-1.5-4.8h6.3c0.2,1,0.6,2,1.1,2.9c0.5,0.9,1.3,1.7,2.2,2.4c0.9,0.7,2,1.2,3.4,1.6c1.3,0.4,2.9,0.6,4.8,0.6
		c1.9,0,3.5-0.2,5-0.6c1.4-0.4,2.6-0.9,3.6-1.6c1-0.7,1.7-1.5,2.2-2.4c0.5-0.9,0.7-1.9,0.7-3c0-1.3-0.2-2.4-0.6-3.3
		c-0.4-0.9-1.1-1.7-2.1-2.4c-1-0.7-2.3-1.3-4-1.8c-1.6-0.5-3.6-1.1-6-1.6c-2.6-0.6-4.9-1.2-6.8-1.9c-1.9-0.7-3.5-1.6-4.7-2.6
		c-1.2-1.1-2.1-2.3-2.8-3.8c-0.6-1.5-0.9-3.3-0.9-5.4c0-1.6,0.3-3,0.9-4.4c0.6-1.4,1.5-2.6,2.7-3.7c1.2-1.1,2.6-2,4.3-2.7
		c1.7-0.7,3.6-1.2,5.7-1.4V45h5.6v6.2c2,0.3,3.8,0.8,5.3,1.5c1.5,0.7,2.9,1.6,4,2.7c1.1,1.1,2,2.3,2.6,3.7c0.6,1.4,1.1,2.8,1.4,4.4
		h-6.3c-0.2-0.9-0.6-1.8-1-2.7c-0.4-0.8-1.1-1.5-1.8-2.1c-0.8-0.6-1.7-1.1-2.9-1.4c-1.1-0.4-2.5-0.5-4.1-0.5c-1.6,0-3,0.2-4.3,0.5
		c-1.3,0.4-2.3,0.8-3.2,1.4c-0.9,0.6-1.5,1.3-2,2.1c-0.4,0.8-0.7,1.7-0.7,2.7c0,1.2,0.2,2.2,0.7,3.1c0.4,0.9,1.1,1.6,2.1,2.2
		c0.9,0.6,2.1,1.2,3.6,1.7c1.5,0.5,3.2,1,5.2,1.4c2.9,0.6,5.4,1.3,7.5,2.1c2.1,0.8,3.8,1.8,5.1,2.9c1.3,1.1,2.3,2.4,2.9,3.9
		c0.6,1.5,0.9,3.3,0.9,5.4c0,1.7-0.3,3.3-1,4.8c-0.7,1.5-1.6,2.8-2.9,3.9c-1.3,1.1-2.8,2.1-4.7,2.8c-1.9,0.7-4,1.2-6.3,1.4v7.5H216
		V99.3z"/>
</g>
<g>
	<g>
		<ellipse class="st4" cx="217.2" cy="189.5" rx="37.5" ry="70.5"/>
		<g>
			<path class="st3" d="M222.4,346.2c0-4.7,0-9.5,0-14.2c0-11.4,0-22.8,0-34.2c0-13.7,0-27.5,0-41.2c0-11.9,0-23.8,0-35.6
				c0-5.8,0.3-11.6,0-17.4c0-0.1,0-0.2,0-0.2c0-3.8-8.1-3.8-8.1,0c0,4.7,0,9.5,0,14.2c0,11.4,0,22.8,0,34.2c0,13.7,0,27.5,0,41.2
				c0,11.9,0,23.8,0,35.6c0,5.8-0.3,11.6,0,17.4c0,0.1,0,0.2,0,0.2C214.3,350,222.4,350,222.4,346.2L222.4,346.2z"/>
		</g>
		<g>
			<g>
				<path class="st2" d="M410.7,330.3H26c-12.1,0-22,9.8-22,22v57.2c0,12.1,9.8,22,22,22h10.1l10.6,82l18.7,144.5
					c4.4,33.9,33.3,59.3,67.5,59.3h170.9c34.2,0,63.1-25.4,67.5-59.3l29.3-226.6h10.1c12.1,0,22-9.8,22-22v-57.2
					C432.6,340.2,422.8,330.3,410.7,330.3z"/>
				<g>
					<path class="st3" d="M410.7,326.3c-5.5,0-11,0-16.5,0c-14.4,0-28.7,0-43.1,0c-20.4,0-40.9,0-61.3,0c-23.3,0-46.7,0-70,0
						c-23.5,0-47,0-70.6,0c-20.5,0-41,0-61.5,0c-14.7,0-29.5,0-44.2,0c-5.9,0-11.7-0.1-17.6,0c-14.6,0.2-26,12-26,26.5
						c0,8.6,0,17.2,0,25.8c0,9.7,0,19.3,0,29c0,4.8,0.7,9.5,2.9,13.9c3.9,7.7,11.6,12.9,20.1,13.9c4.3,0.5,8.7,0.2,13.1,0.2
						c-1.3-1.3-2.7-2.7-4-4c1.4,10.8,2.8,21.6,4.2,32.4c1.9,15.1,3.9,30.1,5.8,45.2c0.6,4.9,1.3,9.8,1.9,14.8c1.8,14,3.6,28,5.4,42
						c2.2,17.2,4.4,34.4,6.7,51.6c1.6,12,3.1,24.1,4.7,36.1c0.4,3.2,0.8,6.5,1.4,9.7c2.4,12.2,8,23.7,16.1,33.1
						c13.7,16,34.1,25,55.1,25c8.2,0,16.3,0,24.5,0c15.8,0,31.6,0,47.4,0c17.3,0,34.6,0,51.9,0c12.7,0,25.3,0,38,0c2.7,0,5.4,0,8,0
						c8.9,0,17.8-1.5,26.1-4.7c23.1-8.9,40.7-29.5,45.2-54c1.1-5.9,1.6-11.9,2.4-17.9c1.6-12.1,3.1-24.3,4.7-36.4
						c2.1-16.4,4.2-32.8,6.4-49.2c2.3-17.5,4.5-34.9,6.8-52.4c1.9-14.9,3.8-29.7,5.8-44.6c1.2-9,2.3-18.1,3.5-27.1
						c0.2-1.2,0.3-2.4,0.5-3.6c-1.3,1.3-2.7,2.7-4,4c3.4,0,6.7,0,10.1,0c7.4-0.1,14.7-3.2,19.5-8.8c4.2-4.9,6.4-10.9,6.5-17.3
						c0-2.1,0-4.2,0-6.3c0-16.6,0-33.3,0-49.9c0-5.5-1.3-10.9-4.5-15.4C427.2,330.6,419.3,326.4,410.7,326.3c-5.2-0.1-5.2,8,0,8.1
						c10.4,0.1,17.9,8.5,17.9,18.7c0,6.6,0,13.1,0,19.7c0,9,0,18,0,27c0,5.4,0.8,11.8-1.4,16.9c-2.6,6.1-8.7,10.5-15.3,10.9
						c-3.7,0.2-7.5,0-11.3,0c-2.4,0-3.8,1.9-4,4c-0.6,4.8-1.3,9.7-1.9,14.5c-1.6,12.3-3.2,24.6-4.8,36.9
						c-2.1,16.4-4.2,32.7-6.4,49.1c-2.2,17.2-4.5,34.5-6.7,51.7c-1.9,14.7-3.8,29.3-5.7,44c-1.1,8.9-2.3,17.8-3.4,26.7
						c-1.7,13-6,25.4-14.5,35.6c-12.5,15-30.8,23.3-50.2,23.3c-8.4,0-16.7,0-25.1,0c-15.7,0-31.4,0-47,0c-17.2,0-34.3,0-51.5,0
						c-12.6,0-25.2,0-37.8,0c-2.7,0-5.4,0-8.1,0c-8.2,0-16.1-1.4-23.7-4.3c-21.5-8.2-37.1-28.3-40.3-51c-1-7.2-1.9-14.5-2.8-21.7
						c-2-15.8-4.1-31.6-6.1-47.4c-2.1-16.3-4.2-32.7-6.3-49c-1.1-8.7-2.2-17.3-3.4-26c-1.1-8.6-2.2-17.1-3.3-25.7
						c-2.1-15.9-4.1-31.9-6.2-47.8c-0.4-3-0.8-6-1.2-8.9c-0.3-2.2-1.6-4-4-4c-4.3,0-8.9,0.5-13.1-0.2c-7.2-1.3-12.9-6.9-14.5-14
						c-0.6-2.6-0.4-5.4-0.4-8c0-4.6,0-9.2,0-13.8c0-10.8,0-21.6,0-32.3c0-2.2,0-4.5,0-6.7c0.1-7.1,4.3-13.7,10.9-16.5
						c3.2-1.4,6.5-1.4,9.9-1.4c3.5,0,7.1,0,10.6,0c13.4,0,26.8,0,40.2,0c19.5,0,39,0,58.5,0c22.8,0,45.6,0,68.4,0
						c23.3,0,46.6,0,69.9,0c21,0,42,0,63,0c15.8,0,31.5,0,47.3,0c7.7,0,15.3,0,23,0c0.3,0,0.7,0,1,0
						C415.9,334.3,415.9,326.3,410.7,326.3z"/>
				</g>
			</g>
			<g>
				<path class="st3" d="M400.6,427.4c-3.3,0-6.5,0-9.8,0c-8.9,0-17.7,0-26.6,0c-13,0-26.1,0-39.1,0c-16,0-31.9,0-47.9,0
					c-17.5,0-35,0-52.5,0c-17.6,0-35.2,0-52.8,0c-16.5,0-32.9,0-49.4,0c-13.9,0-27.8,0-41.7,0c-10,0-20,0-30,0
					c-4.7,0-9.5-0.1-14.2,0c-0.2,0-0.4,0-0.6,0c-5.2,0-5.2,8.1,0,8.1c3.3,0,6.5,0,9.8,0c8.9,0,17.7,0,26.6,0c13,0,26.1,0,39.1,0
					c16,0,31.9,0,47.9,0c17.5,0,35,0,52.5,0c17.6,0,35.2,0,52.8,0c16.5,0,32.9,0,49.4,0c13.9,0,27.8,0,41.7,0c10,0,20,0,30,0
					c4.7,0,9.5,0.1,14.2,0c0.2,0,0.4,0,0.6,0C405.8,435.5,405.8,427.4,400.6,427.4L400.6,427.4z"/>
			</g>
		</g>
		<polygon class="st5" points="535.2,487.8 469.5,553.5 461.1,487.8 		"/>
	</g>
	<path class="st3" d="M357.6,330.3H79.1c33-23.9,83.1-39.2,139.2-39.2C274.5,291.1,324.6,306.4,357.6,330.3z"/>
</g>
</svg>
