<?xml version="1.0" encoding="utf-8"?>
<!-- Generator: Adobe Illustrator 27.8.1, SVG Export Plug-In . SVG Version: 6.00 Build 0)  -->
<svg version="1.1" id="icons" xmlns="http://www.w3.org/2000/svg" xmlns:xlink="http://www.w3.org/1999/xlink" x="0px" y="0px"
	 viewBox="0 0 484.5 470.1" style="enable-background:new 0 0 484.5 470.1;" xml:space="preserve">
<style type="text/css">
	.st0{fill:#FFFFFF;}
</style>
<g id="_x31_7">
	<g>
		<g>
			<path class="st0" d="M72.1,206.1C27.8,152.7,35.3,73.2,88.7,28.9c53.4-44.3,132.9-36.8,177.2,16.6
				c44.3,53.4,36.8,132.9-16.6,177.2C195.9,267,116.4,259.5,72.1,206.1z"/>
		</g>
		<g>
			<circle class="st0" cx="169" cy="125.8" r="109.7"/>
			<path d="M187.7,9.5c27.3,4.4,53.1,18.2,72.1,41.1c20.1,24.2,29.5,54.8,26.6,86.2c-2.9,31.3-17.9,59.7-42.1,79.7
				C194.2,258,119.8,251,78.3,201C36.8,151,43.8,76.5,93.8,35.1C121,12.6,155.3,4.3,187.7,9.5z M152.9,226.1
				c2.2,0.4,4.4,0.6,6.7,0.8c27,2.5,53.4-5.6,74.3-22.9l0,0c20.9-17.3,33.8-41.7,36.3-68.7c2.5-27-5.6-53.4-22.9-74.3
				c-35.7-43.1-99.9-49.1-143-13.4c-43.1,35.7-49.1,99.9-13.4,143C106.7,209.8,128.5,222.2,152.9,226.1z"/>
		</g>
		<g>
			<path class="st0" d="M103.9,179.8c-29.8-36-24.8-89.3,11.2-119.1c36-29.8,89.3-24.8,119.1,11.2L103.9,179.8z"/>
			<path d="M183.8,34.3c22.2,3.5,42.1,14.9,56.6,32.4c2.9,3.5,2.4,8.6-1.1,11.4c-3.5,2.9-8.6,2.4-11.4-1.1
				c-13-15.7-31.4-25.4-51.7-27.3c-20.3-1.9-40.2,4.2-55.9,17.2c-15.7,13-25.4,31.4-27.3,51.7c-1.9,20.3,4.2,40.2,17.2,55.9
				c2.9,3.5,2.4,8.6-1.1,11.4c-3.5,2.9-8.6,2.4-11.4-1.1C65,145.6,70.5,87,109.9,54.4C129,38.6,153,31.2,177.7,33.5
				C179.7,33.7,181.8,34,183.8,34.3z"/>
		</g>
		<g>
			<g>
				<path d="M170.9,75.1l19.9,3.2c11.6,1.8,19.6,11.6,18,21.8l-2,12.2l-16-2.6l2-12.2c0.1-0.7-1.5-2.7-4.5-3.2l-19.9-3.2
					c-3.1-0.5-5.2,0.9-5.3,1.6l-1.5,9.1c-0.8,5.1,2.8,10.7,9,13.9l9.3,4.8c12.7,6.5,19.6,18.7,17.6,30.9l-1.7,10.7
					c-1.6,10.2-12.3,16.9-23.9,15.1l-17-2.7c-11.6-1.8-19.6-11.6-18-21.8l1.8-11.4l16,2.6l-1.8,11.4c-0.1,0.7,1.5,2.7,4.5,3.2
					l17,2.7c3.1,0.5,5.2-0.9,5.3-1.6l1.7-10.7c0.8-5.1-2.8-10.7-9-13.9l-9.3-4.8c-12.7-6.6-19.6-18.7-17.6-30.9l1.5-9.1
					C148.6,80,159.3,73.3,170.9,75.1z"/>
			</g>
			<g>
				<rect x="152.4" y="169.7" transform="matrix(0.1578 -0.9875 0.9875 0.1578 -38.66 310.3508)" width="20.4" height="16.3"/>
			</g>
			<g>
				<rect x="168.9" y="66.2" transform="matrix(0.1578 -0.9875 0.9875 0.1578 77.4688 239.5094)" width="20.4" height="16.3"/>
			</g>
		</g>
	</g>
	<g>
		<path class="st0" d="M465.6,412.4L406.4,395c0,0-134.6,3.1-280.7,67.1c0,0-20.6-2.9-15.9-20.1c4.7-17.2,47.7-41.1,47.7-41.1
			s-60,2.3-95,7.3c-8.2,1.2-15.8-4.3-17.3-13.2c0-0.2,0-0.3-0.1-0.4c-1.5-9.8,4.7-19.6,13.6-22.1c24.1-6.9,81.9-23.4,97.5-27.6
			c0,0-3.1-2.8-8.3-7.6c-34.4-2.8-90.4-7-121.5-7.3C19.1,329.8,12.3,326,9,319c-2.3-4.8-2.9-11.2,1.4-19.1
			c4.3-7.8,12.1-12.4,20-12.4c14.1,0,40.9-0.1,64.9-0.2c-29.2-28.4-57.9-58.2-58.2-65.6c-0.7-15,10.4-30.9,26.7-29.5
			c0,0,69,51.6,124.2,88.8c37.6-6.9,83.2-21.5,94.4-50.5c17.7-45.9-33.1-92.6-23.7-109.7c9.4-17.1,29.7-28.3,34.8-19.2
			c5.1,9.1,46.8,92,67,99.1c20.2,7.1,72.3,50.1,75.3,75.8l46.8,11.2L465.6,412.4z"/>
		<path d="M289.4,90.4c-0.8-0.1-1.7-0.1-2.6,0c-11.3,0.7-26.3,12.4-34.2,26.6c-6,11,0.6,24.2,9.1,40.8c10.4,20.5,23.3,46.1,14.1,70
			c-7.7,19.8-38.1,35.7-86,44.8C135.7,236,68.7,185.9,68,185.4c-1-0.7-2-1.1-3.2-1.2c-9.3-0.8-18.1,2.8-24.8,10.1
			c-6.8,7.5-10.6,18.1-10.1,28.4c0.2,4.5,0.5,11.2,46.1,56.6c-17.8,0.1-34.8,0.1-45,0.1c-10.7,0-20.9,6.4-26.5,16.6
			c-6.5,11.8-4.6,21.3-1.8,27.1c4.3,9,13.2,14.7,23.2,14.7c26.4,0.2,71.7,3.4,104.3,5.9c-20.6,5.8-48.8,13.9-72.7,20.7
			c-12.8,3.7-21.5,17.9-19.3,31.8l0.1,0.5c2.2,12.7,12.8,20.9,24.8,19.2c19.1-2.7,45.9-4.6,66.1-5.8c-11.6,8.7-23.3,19.6-26.1,29.8
			c-1.8,6.5-1.3,12.6,1.5,17.6c5.6,10.1,18.4,12.2,19.8,12.4c1.2,0.2,2.4,0,3.6-0.5c136.8-59.9,264.9-66.1,277.2-66.5l58.3,17.1
			l4.5-15.6l-59.2-17.4c-0.6-0.2-1.3-0.3-1.9-0.3c-1.4,0-136.4,3.8-281.3,66.8c-2.9-0.8-7.1-2.5-8.6-5.3c-0.4-0.8-0.9-2.1-0.2-4.7
			c2.3-8.4,24.5-25.1,43.7-35.8c3.1-1.7,4.9-5.5,4.2-9.2c-0.6-3.7-3.4-6.1-6.8-6c-2.5,0.1-60.7,2.4-95.7,7.3c-4.8,0.7-9-2.4-9.9-7.3
			c-0.9-5.7,2.6-11.2,7.7-12.7c52-14.9,86.5-24.7,97.3-27.6c2.7-0.7,5-3.1,5.7-6.2c0.8-3-0.1-6.2-2.1-8.1c0,0-3.1-2.8-8.3-7.6
			c-1.1-1-2.5-1.4-3.8-1.7c-39-3.2-91.8-7-121.9-7.3c-5.1-0.1-9.5-2.7-11.5-7c-1.1-2.3-1.9-5.6,1.1-11.1c2.8-5.1,7.9-8.2,13.4-8.2
			c14.1,0,40.9-0.1,64.9-0.2c3,0,5.8-2.2,7.1-5.4c1.2-3.2,0.5-6.8-1.7-8.9c-47-45.9-54.8-58-56-61c-0.1-5.4,1.9-10.8,5.5-14.7
			c2.2-2.4,5.9-5.2,11.4-5.3c10.6,7.9,72.8,54.1,122.9,87.8c1.4,0.9,3,1.3,4.7,1c56.3-10.4,90-29.1,100.3-55.7
			c12.1-31.3-3.3-61.9-14.6-84.1c-4.2-8.4-10.7-21.1-9.6-24.5c6.8-12.4,19.5-19.1,22.6-18.2c0.6,1.1,1.5,2.9,2.8,5.3
			c32.7,61.9,53.6,91.7,67.6,96.7c18.9,6.7,68.2,47.9,70.8,69.7c0.4,3.1,2.4,5.6,5.2,6.3l46.8,11.2l3.9-15.8l-42.8-10.3
			c-8.8-30.2-59.9-69.9-78.8-76.6c-5.8-2-21.3-16.5-60.3-90.2c-1.5-2.8-2.5-4.8-3.1-5.8C297.4,93.1,293.8,90.8,289.4,90.4z
			 M44.1,219.8L44.1,219.8L44.1,219.8z"/>
	</g>
	<g>
		<path class="st0" d="M187.8,349.2l52.5,5L187.8,349.2z"/>
		<polygon points="241.4,346.1 188.9,341.2 186.6,357.2 239.2,362.2 		"/>
	</g>
</g>
</svg>
