<?xml version="1.0" encoding="utf-8"?>
<!-- Generator: Adobe Illustrator 27.8.1, SVG Export Plug-In . SVG Version: 6.00 Build 0)  -->
<svg version="1.1" id="分離模式" xmlns="http://www.w3.org/2000/svg" xmlns:xlink="http://www.w3.org/1999/xlink" x="0px"
	 y="0px" viewBox="0 0 489.1 534.3" style="enable-background:new 0 0 489.1 534.3;" xml:space="preserve">
<style type="text/css">
	.st0{fill:#FFFFFF;}
</style>
<g id="_x31_8">
	<g>
		<g>
			<polygon class="st0" points="217.7,99.3 230.4,92.5 254.5,104.9 480.9,139 480.9,334.1 348.7,404.7 98.3,276.4 98.3,81.3 			"/>
			<path d="M348.7,412.9c-1.3,0-2.5-0.3-3.7-0.9L94.6,283.7c-2.7-1.4-4.4-4.2-4.4-7.2V81.3c0-2.4,1-4.6,2.8-6.2
				c1.8-1.5,4.2-2.2,6.5-1.9l116.7,17.6l10.4-5.5c2.3-1.3,5.2-1.3,7.5-0.1l23,11.8l225,33.9c4,0.6,6.9,4,6.9,8v195.1
				c0,3-1.7,5.7-4.3,7.2l-132.1,70.7C351.4,412.6,350,412.9,348.7,412.9z M106.4,271.5l242.2,124.1l124.1-66.4V146l-219.4-33
				c-0.9-0.1-1.7-0.4-2.5-0.8l-20.4-10.4l-9,4.8c-1.5,0.8-3.3,1.1-5,0.9L106.4,90.8V271.5z"/>
		</g>
		<g>
			<polygon class="st0" points="230.4,10.7 480.9,139 348.7,209.7 98.3,81.3 			"/>
			<path d="M348.7,217.8c-1.3,0-2.5-0.3-3.7-0.9L94.6,88.6c-2.7-1.4-4.4-4.1-4.4-7.2c0-3,1.6-5.8,4.3-7.2L226.6,3.5
				c2.3-1.3,5.2-1.3,7.5-0.1l250.5,128.3c2.7,1.4,4.4,4.1,4.4,7.2c0,3-1.6,5.8-4.3,7.2l-132.1,70.7
				C351.4,217.5,350,217.8,348.7,217.8z M115.8,81.2l232.9,119.3l114.7-61.4L230.5,19.8L115.8,81.2z"/>
		</g>
		<g>
			<g>
				<path class="st0" d="M406.8,129.7L245.7,47.2c-2.8,5.5-8.4,9.2-15,9.2c-6.5,0-12-3.7-14.9-9l-43.9,23.5
					c1.7,3.1,2.8,6.6,2.8,10.4c0,3.4-0.8,6.5-2.2,9.3l161.2,82.6c2.8-5.5,8.4-9.3,15.1-9.3c6.4,0,11.9,3.6,14.8,8.9l43.5-23.3
					c-1.6-3-2.6-6.4-2.6-10.1C404.4,135.9,405.3,132.6,406.8,129.7z"/>
				<path d="M333.7,181.4c-1.3,0-2.5-0.3-3.7-0.9L168.8,97.9c-3.9-2-5.5-6.8-3.6-10.8c0.9-1.9,1.4-3.8,1.4-5.7
					c0-2.2-0.6-4.3-1.8-6.4c-1.1-1.9-1.3-4.2-0.7-6.3c0.6-2.1,2-3.9,4-4.9L212,40.3c3.9-2.1,8.9-0.6,11,3.3c1.6,2.9,4.5,4.7,7.7,4.7
					c3.3,0,6.2-1.8,7.8-4.8c2.1-4,6.9-5.6,10.9-3.5l161.2,82.6c4,2,5.6,6.9,3.5,10.9c-1,2-1.5,4-1.5,6c0,2.1,0.6,4.2,1.7,6.2
					c1,1.9,1.3,4.1,0.6,6.2c-0.6,2.1-2,3.8-3.9,4.8l-43.5,23.3c-3.9,2.1-8.8,0.6-11-3.3c-1.6-2.9-4.5-4.6-7.7-4.6
					c-3.3,0-6.3,1.9-7.8,4.9c-1,1.9-2.7,3.4-4.7,4.1C335.4,181.2,334.5,181.4,333.7,181.4z M182.3,86.6l148.9,76.3
					c4.6-4.5,10.8-7.1,17.4-7.1c6.4,0,12.4,2.4,16.9,6.7l31.4-16.8c-0.5-2.1-0.7-4.2-0.7-6.3c0-1.9,0.2-3.8,0.6-5.6L248,57.5
					c-4.6,4.5-10.7,7-17.3,7c-6.4,0-12.4-2.5-17-6.7l-31.6,16.9c0.5,2.2,0.8,4.4,0.8,6.6C182.8,83.1,182.7,84.9,182.3,86.6z"/>
			</g>
		</g>
		<g>
			<path class="st0" d="M348.7,209.7v154.4V209.7z"/>
			<path d="M348.7,372.2c-4.5,0-8.1-3.6-8.1-8.1V209.7c0-4.5,3.6-8.1,8.1-8.1c4.5,0,8.1,3.6,8.1,8.1v154.4
				C356.8,368.6,353.2,372.2,348.7,372.2z"/>
		</g>
		<g>
			<polygon class="st0" points="313.1,53 181,123.6 181,318.8 262.5,360.6 262.5,165.5 394.6,94.8 			"/>
			<path d="M262.5,368.7c-1.3,0-2.5-0.3-3.7-0.9l-81.5-41.7c-2.7-1.4-4.4-4.2-4.4-7.2V123.6c0-3,1.7-5.8,4.3-7.2l132.1-70.6
				c2.3-1.3,5.2-1.3,7.5-0.1l81.5,41.8c2.7,1.4,4.4,4.1,4.4,7.2s-1.6,5.8-4.3,7.2l-127.9,68.4v190.2c0,2.8-1.5,5.5-3.9,6.9
				C265.4,368.3,264,368.7,262.5,368.7z M189.1,313.9l65.2,33.4V165.5c0-3,1.7-5.7,4.3-7.2l118.5-63.4l-63.9-32.8l-124,66.3V313.9z"
				/>
		</g>
		<g>
			<path class="st0" d="M481,189.9l-73.9,39.6L481,189.9z"/>
			<path d="M407.1,237.6c-2.9,0-5.7-1.6-7.2-4.3c-2.1-4-0.6-8.9,3.3-11l73.9-39.6c3.9-2.1,8.9-0.6,11,3.3c2.1,4,0.6,8.9-3.3,11
				l-73.9,39.6C409.7,237.3,408.4,237.6,407.1,237.6z"/>
		</g>
	</g>
	<g>
		<g>
			<path class="st0" d="M274.9,534.3c-3.8,0-7.6-0.9-11.1-2.7L13.4,403.3c-8.1-4.2-13.3-12.6-13.3-21.7V280.1c0-9,5-17.3,12.9-21.5
				l132.1-70.7c3.6-1.9,7.5-2.9,11.5-2.9c3.8,0,7.6,0.9,11.1,2.7L418.2,316c8.1,4.2,13.3,12.6,13.3,21.7v101.5c0,9-5,17.3-12.9,21.5
				l-132.1,70.7C282.8,533.3,278.9,534.3,274.9,534.3z"/>
		</g>
		<g>
			<polygon class="st0" points="143.9,298.1 156.6,291.3 180.8,303.6 407.1,337.7 407.1,439.2 274.9,509.9 24.5,381.6 24.5,280.1 
							"/>
			<path d="M274.9,518c-1.3,0-2.5-0.3-3.7-0.9L20.8,388.8c-2.7-1.4-4.4-4.2-4.4-7.2V280.1c0-2.4,1-4.6,2.8-6.2
				c1.8-1.5,4.2-2.2,6.5-1.9l116.7,17.6l10.4-5.5c2.3-1.3,5.2-1.3,7.5-0.1l23,11.8l225,33.9c4,0.6,6.9,4,6.9,8v101.5
				c0,3-1.7,5.7-4.3,7.2l-132.1,70.7C277.6,517.7,276.2,518,274.9,518z M32.6,376.6l242.2,124.1l124.1-66.4v-89.6l-219.4-33
				c-0.9-0.1-1.7-0.4-2.5-0.8l-20.4-10.4l-9,4.8c-1.5,0.8-3.3,1.1-5,0.9L32.6,289.5V376.6z"/>
		</g>
		<g>
			<polygon class="st0" points="156.6,209.4 407.1,337.7 274.9,408.4 24.5,280.1 			"/>
			<path d="M274.9,416.5c-1.3,0-2.5-0.3-3.7-0.9L20.8,287.3c-2.7-1.4-4.4-4.1-4.4-7.2c0-3,1.6-5.8,4.3-7.2l132.1-70.7
				c2.3-1.3,5.2-1.3,7.5-0.1l250.5,128.3c2.7,1.4,4.4,4.1,4.4,7.2c0,3-1.6,5.8-4.3,7.2l-132.1,70.7
				C277.6,416.2,276.2,416.5,274.9,416.5z M42,279.9l232.9,119.3l114.7-61.4L156.7,218.6L42,279.9z"/>
		</g>
		<g>
			<g>
				<path class="st0" d="M333,328.5l-161.2-82.6c-2.8,5.5-8.4,9.2-15,9.2c-6.5,0-12-3.7-14.9-9l-43.9,23.5c1.7,3.1,2.8,6.6,2.8,10.4
					c0,3.4-0.8,6.5-2.2,9.3L259.9,372c2.8-5.5,8.4-9.3,15.1-9.3c6.4,0,11.9,3.6,14.8,8.9l43.5-23.3c-1.6-3-2.6-6.4-2.6-10.1
					C330.6,334.6,331.5,331.4,333,328.5z"/>
				<path d="M259.9,380.1c-1.3,0-2.5-0.3-3.7-0.9L95,296.6c-3.9-2-5.5-6.8-3.6-10.8c0.9-1.9,1.4-3.8,1.4-5.7c0-2.2-0.6-4.3-1.8-6.4
					c-1.1-1.9-1.3-4.2-0.7-6.3c0.6-2.1,2-3.9,4-4.9l43.9-23.5c3.9-2.1,8.9-0.6,11,3.3c1.6,2.9,4.5,4.7,7.7,4.7
					c3.3,0,6.2-1.9,7.8-4.8c2-4,6.9-5.6,10.9-3.5l161.2,82.6c4,2,5.6,6.9,3.5,10.9c-1,2-1.5,4-1.5,5.9c0,2.1,0.6,4.2,1.7,6.2
					c1,1.9,1.3,4.1,0.6,6.2c-0.6,2.1-2,3.8-3.9,4.8l-43.5,23.3c-3.9,2.1-8.8,0.6-11-3.3c-1.6-2.9-4.5-4.6-7.7-4.6
					c-3.3,0-6.3,1.9-7.8,4.9c-1,1.9-2.7,3.4-4.7,4.1C261.6,380,260.7,380.1,259.9,380.1z M108.5,285.3l148.9,76.3
					c4.6-4.5,10.8-7.1,17.4-7.1c6.4,0,12.4,2.4,16.9,6.7l31.4-16.8c-0.5-2.1-0.7-4.1-0.7-6.3c0-1.9,0.2-3.8,0.6-5.6l-148.9-76.3
					c-4.6,4.5-10.7,7-17.3,7c-6.4,0-12.5-2.5-17-6.7l-31.6,16.9c0.5,2.2,0.8,4.4,0.8,6.6C109,281.9,108.9,283.6,108.5,285.3z"/>
			</g>
		</g>
		<g>
			<path class="st0" d="M274.9,408.4v60.9V408.4z"/>
			<path d="M274.9,477.4c-4.5,0-8.1-3.6-8.1-8.1v-60.9c0-4.5,3.6-8.1,8.1-8.1c4.5,0,8.1,3.6,8.1,8.1v60.9
				C283,473.8,279.4,477.4,274.9,477.4z"/>
		</g>
		<g>
			<polygon class="st0" points="239.3,251.8 107.2,322.3 107.2,424 188.7,465.7 188.7,364.2 320.8,293.5 			"/>
			<path d="M188.7,473.9c-1.3,0-2.5-0.3-3.7-0.9l-81.5-41.7c-2.7-1.4-4.4-4.2-4.4-7.2V322.3c0-3,1.7-5.8,4.3-7.2l132.1-70.6
				c2.3-1.3,5.2-1.3,7.5-0.1l81.5,41.8c2.7,1.4,4.4,4.1,4.4,7.2c0,3-1.6,5.8-4.3,7.2l-127.9,68.4v96.6c0,2.8-1.5,5.5-3.9,6.9
				C191.6,473.5,190.2,473.9,188.7,473.9z M115.3,419l65.2,33.4v-88.2c0-3,1.7-5.7,4.3-7.2l118.5-63.4l-63.9-32.8l-124,66.3V419z"/>
		</g>
		<g>
			<path class="st0" d="M348.9,400.7l-73.9,39.6L348.9,400.7z"/>
			<path d="M274.9,448.4c-2.9,0-5.7-1.6-7.2-4.3c-2.1-4-0.6-8.9,3.3-11l73.9-39.6c4-2.1,8.9-0.6,11,3.3c2.1,4,0.6,8.9-3.3,11
				l-73.9,39.6C277.5,448.1,276.2,448.4,274.9,448.4z"/>
		</g>
	</g>
</g>
</svg>
