<?xml version="1.0" encoding="utf-8"?>
<!-- Generator: Adobe Illustrator 27.8.1, SVG Export Plug-In . SVG Version: 6.00 Build 0)  -->
<svg version="1.1" id="icons" xmlns="http://www.w3.org/2000/svg" xmlns:xlink="http://www.w3.org/1999/xlink" x="0px" y="0px"
	 viewBox="0 0 111.1 110.1" style="enable-background:new 0 0 111.1 110.1;" xml:space="preserve">
<style type="text/css">
	.st0{fill:#FFFFFF;stroke:#FFFFFF;stroke-width:52;stroke-linecap:round;stroke-linejoin:round;stroke-miterlimit:10;}
	.st1{fill:none;stroke:#FFFFFF;stroke-width:45;stroke-linecap:round;stroke-linejoin:round;stroke-miterlimit:10;}
	.st2{fill:none;stroke:#FFFFFF;stroke-width:54;stroke-linecap:round;stroke-linejoin:round;stroke-miterlimit:10;}
	.st3{fill:#FFFFFF;stroke:#FFFFFF;stroke-width:7;stroke-linecap:round;stroke-linejoin:round;stroke-miterlimit:10;}
	.st4{fill:#FFFFFF;}
	.st5{fill:none;stroke:#011520;stroke-width:20;stroke-linejoin:round;stroke-miterlimit:10;}
	.st6{fill:none;stroke:#011520;stroke-width:17;stroke-miterlimit:10;}
	.st7{fill:#FFFFFF;stroke:#FFFFFF;stroke-width:10;stroke-miterlimit:10;}
	.st8{fill:#FFFFFF;stroke:#FFFFFF;stroke-width:6;stroke-miterlimit:10;}
	.st9{fill:none;stroke:#011520;stroke-width:3;stroke-linejoin:round;stroke-miterlimit:10;}
	.st10{fill:none;stroke:#011520;stroke-width:3;stroke-linecap:round;stroke-linejoin:round;stroke-miterlimit:10;}
	.st11{fill:none;stroke:#011520;stroke-width:3;stroke-miterlimit:10;}
	.st12{fill:none;stroke:#011520;stroke-width:3;stroke-linecap:round;stroke-miterlimit:10;}
</style>
<g>
	<rect x="1077.5" y="365.6" class="st0" width="52.4" height="131.9"/>
	<rect x="1177.7" y="380.6" class="st0" width="52.4" height="117"/>
	<rect x="977.2" y="359" class="st0" width="52.4" height="138.6"/>
	<rect x="1278" y="319.4" class="st0" width="52.4" height="178.1"/>
	<rect x="1378.2" y="270.8" class="st0" width="52.4" height="226.7"/>
</g>
<polyline class="st1" points="1353.3,164.8 1398.5,170 1398.5,210.2 "/>
<polyline class="st2" points="982.6,267.4 1063.4,345.2 1136.9,282.8 1216.3,328.4 1395.1,196.4 "/>
<polygon class="st3" points="1024.1,510.4 1387.6,510.4 1391.3,148 1188.9,297.7 1060.7,339.7 1011.8,303.5 "/>
<circle class="st4" cx="1198.1" cy="219" r="64.9"/>
<circle class="st4" cx="1311.9" cy="110.1" r="64.9"/>
<circle class="st4" cx="1038.4" cy="172.9" r="80.7"/>
<g>
	<polyline class="st5" points="974.1,258.8 1054.8,336.7 1128.4,274.2 1207.7,319.9 1386.6,187.8 	"/>
	<rect x="1070.9" y="362" class="st5" width="52.4" height="131.9"/>
	<rect x="1171.1" y="376.9" class="st5" width="52.4" height="117"/>
	<rect x="970.7" y="355.3" class="st5" width="52.4" height="138.6"/>
	<rect x="1271.4" y="315.8" class="st5" width="52.4" height="178.1"/>
	<rect x="1371.6" y="267.2" class="st5" width="52.4" height="226.7"/>
	<path class="st5" d="M1352.6,173l35.2,4c5.7,0.7,10.1,5.5,10.1,11.3v30.1"/>
</g>
<g>
	<g>
		<g>
			<path class="st6" d="M1069.7,155.7c0-17.3-14-31.3-31.3-31.3c-15.3,0-28.1,12.1-28.1,26.9c0,31.8,56.8,11.2,56.8,46.1
				c0,14-14.1,23.6-28.7,23.6c-17.3,0-31.3-14-31.3-31.3"/>
			<line class="st6" x1="1038.4" y1="237.1" x2="1038.4" y2="221"/>
			<line class="st6" x1="1038.4" y1="124.4" x2="1038.4" y2="108.2"/>
		</g>
	</g>
</g>
<g>
	<g>
		<g>
			<path class="st6" d="M1223.1,203.9c0-13.6-11-24.6-24.6-24.6c-12,0-22.1,9.5-22.1,21.1c0,25,44.6,8.8,44.6,36.2
				c0,11-11.1,18.5-22.6,18.5c-13.6,0-24.6-11-24.6-24.6"/>
			<line class="st6" x1="1198.5" y1="267.8" x2="1198.5" y2="255.2"/>
			<line class="st6" x1="1198.5" y1="179.3" x2="1198.5" y2="166.6"/>
		</g>
	</g>
</g>
<g>
	<g>
		<g>
			<path class="st6" d="M1336.5,96.8c0-13.6-11-24.6-24.6-24.6c-12,0-22.1,9.5-22.1,21.1c0,25,44.6,8.8,44.6,36.2
				c0,11-11.1,18.5-22.6,18.5c-13.6,0-24.6-11-24.6-24.6"/>
			<line class="st6" x1="1311.9" y1="160.7" x2="1311.9" y2="148"/>
			<line class="st6" x1="1311.9" y1="72.1" x2="1311.9" y2="59.5"/>
		</g>
	</g>
</g>
<g>
	<path class="st7" d="M25.4,82.4c-1.1-1.3-2.3-3.4-2.7-5.9l-6.3-4.8"/>
	<path class="st7" d="M55,53.4c-8.8-4.5-19.4-1.5-19.4-1.5l-2.2-1.5"/>
	<path class="st7" d="M80.4,92c-3.2-2.5-14.2-11.2-15.2-12.1"/>
	<line class="st7" x1="65.1" y1="102.2" x2="57.3" y2="96"/>
	<line class="st7" x1="74.5" y1="98.2" x2="61.1" y2="87.6"/>
	<line class="st7" x1="79.4" y1="50.3" x2="73.8" y2="54.2"/>
	<path class="st7" d="M44.6,104.9c1.4,0.6,3,0.5,4.2-1.4l1.8-2.6c1.1-1.8,0.5-4-1.4-5.3c-0.5-0.3,3.7-8.5,2-7.8
		c1.2-1.6-3.9,3.7-5.8,1.9c-1.1-1,3-9.4,1.1-8.5c1-1.7-4.8,3.5-7.1,1.9c-1.3-0.8-3.7-0.8-4.7,0.2c-0.3-0.9-0.9-1.6-1.8-2.2
		c-2-1.2-4.4-0.2-5.6,1.2l-1.2,1.6c-1.1,1.8-0.6,2.9,0.5,4.9C30.2,95.3,38.4,102.3,44.6,104.9z"/>
	<path class="st7" d="M51.6,100.5l4.1,3.2c1.4,1.1,2.9,1.6,4.5,1.4c2.1-0.3,4-1.7,4.8-2.8c1.2,0.6,2.6,0.9,3.9,0.8
		c2.6-0.3,4.7-2.2,5.6-4.8c4.4-0.7,5.8-4.4,5.9-6.2c3.5-1.3,5.6-5.1,4.7-7.8l-23.5-19"/>
	<polyline class="st7" points="105.6,67.9 98.6,73.5 78.7,49.5 85.7,43.8 	"/>
	<polyline class="st7" points="8.6,69.5 14.6,74.2 34.3,49.2 28.4,44.5 	"/>
	<line class="st7" x1="99.4" y1="67.3" x2="99.6" y2="67.6"/>
	<line class="st7" x1="13.7" y1="68.2" x2="13.8" y2="68.1"/>
	<path class="st7" d="M85.1,84.2c2.2-1,5.5-3.7,4.3-8"/>
	<path class="st7" d="M76.4,56.6c-4.8-5.2-11.6-5.3-15.5-5c-2.2,0.2-2.7,0.3-5.1,1.3l-13.6,6.7c-1.9,1.1-2.9,3.8-1.6,6.1
		c1.1,1.8,2.9,2.2,5.4,2.3c3.6,0.1,14.4-2,18.4-4.1"/>
	<line class="st7" x1="97.6" y1="72.4" x2="89.7" y2="78.5"/>
	<line class="st7" x1="55.2" y1="13.9" x2="55.2" y2="8.5"/>
	<line class="st7" x1="55.2" y1="44.2" x2="55.2" y2="38.9"/>
	<path class="st7" d="M63.4,22c0-4.5-3.6-8.1-8.1-8.1c-4,0-7.3,2.9-7.3,6.7c0,9.3,14.7,2.9,14.7,12.7c0,3.6-3.7,5.7-7.5,5.7
		c-4.5,0-8.1-3.6-8.1-8.1"/>
	<line class="st7" x1="38.7" y1="14.6" x2="41.2" y2="17.2"/>
	<line class="st7" x1="41.2" y1="36.2" x2="38.7" y2="38.7"/>
	<line class="st7" x1="39.6" y1="26.7" x2="36" y2="26.7"/>
	<line class="st7" x1="71.8" y1="14.6" x2="69.3" y2="17.2"/>
	<line class="st7" x1="69.3" y1="36.2" x2="71.8" y2="38.7"/>
	<line class="st7" x1="70.9" y1="26.7" x2="74.5" y2="26.7"/>
</g>
<rect x="28.6" y="59.8" transform="matrix(0.8381 0.5455 -0.5455 0.8381 46.8738 -14.4281)" class="st8" width="38.3" height="24"/>
<rect x="55.7" y="57.4" transform="matrix(0.866 -0.5 0.5 0.866 -24.8592 46.757)" class="st8" width="38.3" height="24.8"/>
<circle class="st4" cx="52.2" cy="25.3" r="25.7"/>
<g>
	<path class="st9" d="M22.6,81.3c-1.1-1.3-2.3-3.4-2.7-5.9l-6.3-4.8"/>
	<path class="st9" d="M52.2,52.3c-8.8-4.5-19.4-1.5-19.4-1.5l-2.2-1.5"/>
	<path class="st9" d="M77.7,90.8c-3.2-2.5-14.2-11.2-15.2-12.1"/>
	<line class="st9" x1="62.4" y1="101.1" x2="54.5" y2="94.9"/>
	<line class="st9" x1="71.8" y1="97.1" x2="58.3" y2="86.5"/>
	<line class="st9" x1="76.6" y1="49.2" x2="71" y2="53"/>
	<path class="st9" d="M41.6,100.3c1.4,0.6,3,0.5,4.2-1.4l1.8-2.6c1.1-1.8,0.5-4-1.4-5.3c-0.5-0.3-1.9-1.1-3.6-0.4
		c1.2-1.6,1.7-3.8-0.1-5.5c-1.1-1-2.7-1.9-4.5-1.1c1-1.7,0.9-4-1.4-5.6c-1.3-0.8-3.7-0.8-4.7,0.2c-0.3-0.9-0.9-1.6-1.8-2.2
		c-2-1.2-4.4-0.2-5.6,1.2l-1.2,1.6c-1.1,1.8-0.6,2.9,0.5,4.9C27.2,90.7,35.4,97.7,41.6,100.3z"/>
	<path class="st9" d="M48.8,99.3l4.1,3.2c1.4,1.1,2.9,1.6,4.5,1.4c2.1-0.3,4-1.7,4.8-2.8c1.2,0.6,2.6,0.9,3.9,0.8
		c2.6-0.3,4.7-2.2,5.6-4.8c4.4-0.7,5.8-4.4,5.9-6.2c3.5-1.3,5.6-5.1,4.7-7.8L58.8,64"/>
	<polyline class="st9" points="102.8,66.7 95.8,72.4 76,48.3 82.9,42.7 	"/>
	<polyline class="st9" points="5.9,68.3 11.8,73 31.5,48 25.6,43.4 	"/>
	<line class="st10" x1="96.6" y1="66.2" x2="96.8" y2="66.5"/>
	<line class="st10" x1="11" y1="67.1" x2="11" y2="67"/>
	<path class="st10" d="M82.4,83c2.2-1,5.5-3.7,4.3-8"/>
	<path class="st10" d="M73.6,55.5c-4.8-5.2-11.6-5.3-15.5-5c-2.2,0.2-2.7,0.3-5.1,1.3l-13.6,6.7c-1.9,1.1-2.9,3.8-1.6,6.1
		c1.1,1.8,2.9,2.2,5.4,2.3c3.6,0.1,14.4-2,18.4-4.1"/>
	<line class="st9" x1="94.9" y1="71.3" x2="86.9" y2="77.3"/>
	<line class="st11" x1="52.5" y1="12.7" x2="52.5" y2="7.4"/>
	<line class="st11" x1="52.5" y1="43" x2="52.5" y2="37.8"/>
	<path class="st11" d="M60.6,20.8c0-4.5-3.6-8.1-8.1-8.1c-4,0-7.3,2.9-7.3,6.7c0,9.3,14.7,2.9,14.7,12.7c0,3.6-3.7,5.7-7.5,5.7
		c-4.5,0-8.1-3.6-8.1-8.1"/>
	<line class="st12" x1="35.9" y1="13.5" x2="38.4" y2="16"/>
	<line class="st12" x1="38.4" y1="35" x2="35.9" y2="37.6"/>
	<line class="st12" x1="36.8" y1="25.5" x2="33.2" y2="25.5"/>
	<line class="st12" x1="69.1" y1="13.5" x2="66.5" y2="16"/>
	<line class="st12" x1="66.5" y1="35" x2="69.1" y2="37.6"/>
	<line class="st12" x1="68.1" y1="25.5" x2="71.7" y2="25.5"/>
</g>
</svg>
