<?xml version="1.0" encoding="utf-8"?>
<!-- Generator: Adobe Illustrator 27.8.1, SVG Export Plug-In . SVG Version: 6.00 Build 0)  -->
<svg version="1.1" id="Icons" xmlns="http://www.w3.org/2000/svg" xmlns:xlink="http://www.w3.org/1999/xlink" x="0px" y="0px"
	 viewBox="0 0 62 59.7" style="enable-background:new 0 0 62 59.7;" xml:space="preserve">
<style type="text/css">
	.st0{fill:none;stroke:#FFFFFF;stroke-width:8;stroke-linecap:round;stroke-linejoin:round;stroke-miterlimit:10;}
	.st1{fill:none;stroke:#011520;stroke-width:2;stroke-linejoin:round;stroke-miterlimit:10;}
</style>
<g>
	<polyline class="st0" points="48.4,43.8 15.8,43.8 15.8,39.9 24.1,35.9 30.9,38.2 39.4,30.4 41.4,29.6 	"/>
	<polyline class="st0" points="15.8,34.8 22.8,30.5 29.5,33.2 39.1,24.3 43.4,22.5 44.4,25.4 47.7,19.6 41.5,17.2 42.6,20.1 	"/>
	<polyline class="st0" points="10.8,21.4 10.8,48.1 51.4,48.1 	"/>
	<path class="st0" d="M51.4,22.7"/>
</g>
<g>
	<polyline class="st1" points="48.4,43.8 15.8,43.8 15.8,39.9 24.1,35.9 30.9,38.2 39.4,30.4 41.4,29.6 	"/>
	<polyline class="st1" points="15.8,34.8 22.8,30.5 29.5,33.2 39.1,24.3 43.4,22.5 44.4,25.4 47.7,19.6 41.5,17.2 42.6,20.1 	"/>
	<polyline class="st1" points="10.8,21.4 10.8,48.1 51.4,48.1 	"/>
	<path class="st1" d="M51.4,22.7"/>
</g>
</svg>
