<?xml version="1.0" encoding="utf-8"?>
<!-- Generator: Adobe Illustrator 27.8.1, SVG Export Plug-In . SVG Version: 6.00 Build 0)  -->
<svg version="1.1" id="分離模式" xmlns="http://www.w3.org/2000/svg" xmlns:xlink="http://www.w3.org/1999/xlink" x="0px"
	 y="0px" viewBox="0 0 60.2 61.1" style="enable-background:new 0 0 60.2 61.1;" xml:space="preserve">
<style type="text/css">
	.st0{fill:none;stroke:#FFFFFF;stroke-width:7;stroke-linecap:round;stroke-linejoin:round;stroke-miterlimit:10;}
	.st1{fill:none;stroke:#FFFFFF;stroke-width:7.0003;stroke-linecap:round;stroke-linejoin:round;stroke-miterlimit:10.0004;}
	.st2{fill:#FFFFFF;}
	.st3{fill:none;stroke:#011520;stroke-width:2;stroke-linejoin:round;stroke-miterlimit:10;}
	.st4{fill:none;stroke:#011520;stroke-width:2;stroke-miterlimit:10;}
</style>
<g>
	<polyline class="st0" points="3.9,30.1 13.3,39.2 21.9,31.9 31.2,37.2 52.2,21.7 	"/>
	<rect x="15.2" y="42.1" class="st0" width="6.1" height="15.5"/>
	<rect x="27" y="43.9" class="st0" width="6.1" height="13.7"/>
	<rect x="3.5" y="41.4" class="st0" width="6.1" height="16.2"/>
	<rect x="38.7" y="36.7" class="st0" width="6.1" height="20.9"/>
	<rect x="50.4" y="31" class="st0" width="6.1" height="26.6"/>
	<polyline class="st0" points="48.2,20 53.5,20.6 53.5,25.3 	"/>
</g>
<rect x="15.1" y="34.3" transform="matrix(0.9737 -0.228 0.228 0.9737 -7.6492 8.752)" class="st1" width="37.9" height="6.3"/>
<circle class="st2" cx="29.6" cy="26.9" r="6.9"/>
<circle class="st2" cx="41.7" cy="15.4" r="6.9"/>
<circle class="st2" cx="12.7" cy="22" r="8.6"/>
<g>
	<polyline class="st3" points="2.9,29.1 12.3,38.2 20.9,30.9 30.2,36.2 51.2,20.7 	"/>
	<rect x="14.2" y="41.1" class="st3" width="6.1" height="15.5"/>
	<rect x="26" y="42.9" class="st3" width="6.1" height="13.7"/>
	<rect x="2.5" y="40.4" class="st3" width="6.1" height="16.2"/>
	<rect x="37.7" y="35.7" class="st3" width="6.1" height="20.9"/>
	<rect x="49.4" y="30" class="st3" width="6.1" height="26.6"/>
	<polyline class="st3" points="47.2,19 52.5,19.6 52.5,24.3 	"/>
</g>
<g>
	<g>
		<g>
			<path class="st4" d="M16,20.2c0-1.8-1.5-3.3-3.3-3.3c-1.6,0-3,1.3-3,2.8c0,3.4,6,1.2,6,4.9c0,1.5-1.5,2.5-3,2.5
				c-1.8,0-3.3-1.5-3.3-3.3"/>
			<line class="st4" x1="12.7" y1="28.8" x2="12.7" y2="27.1"/>
			<line class="st4" x1="12.7" y1="16.9" x2="12.7" y2="15.2"/>
		</g>
	</g>
</g>
<g>
	<g>
		<g>
			<path class="st4" d="M32.2,25.3c0-1.4-1.2-2.6-2.6-2.6c-1.3,0-2.3,1-2.3,2.2c0,2.6,4.7,0.9,4.7,3.8c0,1.2-1.2,2-2.4,2
				c-1.4,0-2.6-1.2-2.6-2.6"/>
			<line class="st4" x1="29.6" y1="32.1" x2="29.6" y2="30.8"/>
			<line class="st4" x1="29.6" y1="22.7" x2="29.6" y2="21.4"/>
		</g>
	</g>
</g>
<g>
	<g>
		<g>
			<path class="st4" d="M44.3,14c0-1.4-1.2-2.6-2.6-2.6c-1.3,0-2.3,1-2.3,2.2c0,2.6,4.7,0.9,4.7,3.8c0,1.2-1.2,2-2.4,2
				c-1.4,0-2.6-1.2-2.6-2.6"/>
			<line class="st4" x1="41.7" y1="20.7" x2="41.7" y2="19.4"/>
			<line class="st4" x1="41.7" y1="11.4" x2="41.7" y2="10"/>
		</g>
	</g>
</g>
</svg>
