<?xml version="1.0" encoding="utf-8"?>
<!-- Generator: Adobe Illustrator 27.8.1, SVG Export Plug-In . SVG Version: 6.00 Build 0)  -->
<svg version="1.1" id="分離模式" xmlns="http://www.w3.org/2000/svg" xmlns:xlink="http://www.w3.org/1999/xlink" x="0px"
	 y="0px" viewBox="0 0 313.9 311.1" style="enable-background:new 0 0 313.9 311.1;" xml:space="preserve">
<style type="text/css">
	.st0{fill:#FFFFFF;}
</style>
<g>
	<g>
		<circle class="st0" cx="160.4" cy="149.3" r="112.7"/>
	</g>
	<g>
		<path d="M174.3,302.4c-0.7,0-1.5-0.1-2.3-0.2c-0.6-0.1-1.1-0.3-1.6-0.5c-3.7-1.5-6.4-4.8-6.8-8.8l-0.9-8c-0.7,0-1.4,0-2.1,0
			c-33.1,0-65.1-12-90.2-33.6c-25.3-21.8-41.2-51.8-44.8-84.1c-0.5-4.2-0.7-8.3-0.8-12.4v-0.1l0.1-3.2c0.1-10.7,1.7-21.2,4.7-31.5
			c2.6-8.7,6.2-17.1,10.7-25c1.9-3.3,5.5-5.3,9.3-5.3c1.7,0,3.3,0.4,4.8,1.1c1,0.5,9.6,4.8,18.1,9.3c10.1,5.3,15.2,8.2,18.3,10.8
			c3.4,2.8,6.7,7.5,3.6,14c-5.5,11.2-7.6,23.7-6.2,36.1c1.9,17,10.4,32.8,23.7,44.3c12.3,10.5,27.7,16.8,43.8,17.7l-0.9-8.1
			c-0.4-4,1.3-7.9,4.7-10.2c1.8-1.2,3.8-1.8,5.9-1.8c1.8,0,3.7,0.5,5.3,1.4l59.2,33.4c3,1.7,5,4.8,5.4,8.2c0.4,3.4-1,6.9-3.6,9.2
			l-50.5,44.6C179.5,301.4,177,302.4,174.3,302.4L174.3,302.4z M172.4,262.9c0.7,0,1.5,0.1,2.3,0.2c3.7,0.8,6.7,3.5,7.9,7.1
			l23.9-21.1l-27.8-15.7c0.1,2.5-0.8,5-2.4,7c-1.8,2.2-4.5,3.6-7.4,3.9c-2.9,0.2-5.8,0.4-8.7,0.4c-22.8,0-44.9-8.2-62.2-23.2
			c-17.4-15.1-28.4-35.7-30.9-58.1c-1.5-13.4,0.1-26.9,4.6-39.4c-4.3-2.4-10.4-5.7-17.2-9.2c-1.7,3.7-3,7.4-4.2,11.3
			c-2.5,8.3-3.7,17-3.8,25.7l-0.1,3c0.1,3.1,0.3,6.6,0.7,10c3.1,27.1,16.4,52.1,37.6,70.4c21.1,18.2,48.1,28.3,76.1,28.3l0,0
			c3.6,0,7.1-0.2,10.7-0.5C171.7,262.9,172,262.9,172.4,262.9z"/>
		<path class="st0" d="M49.7,96.1c0.7,0,1.3,0.1,1.9,0.4c0.1,0.1,9.2,4.5,18,9.3c18.3,9.7,21.3,11.7,19.1,16.2
			c-6,12.3-8.3,26-6.8,39.7c4.4,38.8,38.6,67.9,78.1,67.9c1,0,2,0,2.9-0.1l-1.7-15.3c-0.2-1.6,0.6-3.2,1.9-4
			c0.7-0.5,1.5-0.7,2.4-0.7c0.7,0,1.5,0.2,2.1,0.6l59.3,33.4c1.2,0.7,2,1.9,2.1,3.3c0.1,1.4-0.4,2.8-1.4,3.7l-50.5,44.6
			c-0.8,0.7-1.8,1.1-2.8,1.1c-0.3,0-0.6-0.1-0.9-0.1c-0.2-0.1-0.4-0.1-0.7-0.2c-1.5-0.6-2.6-2-2.8-3.6l-1.6-13.9
			c-2.6,0.2-5.2,0.2-7.8,0.2c-65,0-121.4-48.1-128.6-112c-0.4-4-0.7-7.9-0.7-11.8l0.1-3.1c0.1-10.1,1.5-20.1,4.4-29.7
			c2.5-8.2,5.8-16.1,10.2-23.5C46.7,96.9,48.2,96.1,49.7,96.1 M160.7,269.9c3.7,0,7.5-0.2,11.2-0.5c0.1,0,0.2,0,0.4,0
			c0.3,0,0.6,0.1,0.9,0.1c1.8,0.4,3.2,1.8,3.4,3.7l1.1,9.8l39.7-35.1l-46.7-26.3l1.3,11.5c0.1,1.2-0.2,2.3-0.9,3.2
			c-0.7,0.9-1.8,1.5-2.9,1.6c-2.7,0.2-5.4,0.4-8.1,0.4c-43.8,0-81.9-32.4-86.7-75.5c-1.6-14.2,0.6-28.5,6.3-41.4
			c-4.7-3-16.6-9.3-28.2-15.1c-3.1,5.8-5.5,11.9-7.4,18.1c-2.6,8.9-4,18.1-4,27.5l-0.1,3c0.1,3.4,0.3,7.1,0.7,10.7
			C47.3,225,100,269.9,160.7,269.9 M49.7,83.2L49.7,83.2c-6.1,0-11.8,3.3-14.8,8.6c-4.8,8.3-8.6,17.2-11.3,26.4
			c-3.2,10.8-4.8,22-5,33.2l-0.1,3v0.2v0.2c0.1,4.3,0.4,8.6,0.9,13c3.8,34,20.5,65.4,47,88.3c25.3,21.9,57.4,34.3,90.7,35.1l0.2,2.3
			c0.7,6.4,4.9,11.8,10.9,14.1c0.8,0.3,1.7,0.6,2.6,0.8c1.2,0.2,2.4,0.4,3.6,0.4c4.2,0,8.2-1.5,11.4-4.3l50.5-44.6
			c4.2-3.7,6.3-9.1,5.7-14.7c-0.6-5.5-3.8-10.4-8.6-13.2l-59.2-33.4c-2.6-1.5-5.5-2.2-8.4-2.2c-3.4,0-6.7,1-9.5,2.9
			c-5.4,3.6-8.3,9.8-7.6,16.2v0.1c-11.9-2.1-23.1-7.3-32.3-15.3c-12.1-10.5-19.8-24.7-21.5-40.2c-1.3-11.2,0.7-22.5,5.6-32.6
			c1.8-3.7,5-13.3-5.3-21.8c-3.6-2.9-8.6-5.8-19.4-11.5c-9.1-4.8-18.3-9.4-18.3-9.4C54.9,83.8,52.3,83.2,49.7,83.2L49.7,83.2
			L49.7,83.2z M52.8,154.8l0.1-2.8v-0.1v-0.1c0.1-8.1,1.2-16.1,3.6-23.9c0.4-1.3,0.9-2.8,1.3-4.1c2.2,1.2,4.2,2.3,6.1,3.2
			c-3.5,12-4.7,24.5-3.2,37c2.7,24,14.5,46.1,33.1,62.2c18.5,15.9,42,24.8,66.4,24.8c3.1,0,6.2-0.1,9.3-0.4
			c4.6-0.4,8.9-2.7,11.8-6.3c0.4-0.5,0.8-1,1.1-1.5l13.1,7.4l-11.8,10.4c-2.1-1.8-4.7-3.2-7.6-3.8c-1.2-0.2-2.4-0.4-3.6-0.4
			c-0.6,0-1,0-1.6,0.1c-3.3,0.3-6.7,0.4-10.1,0.4c-26.4,0-51.9-9.5-71.9-26.7c-20-17.2-32.6-40.8-35.4-66.2
			C53,160.9,52.9,157.7,52.8,154.8L52.8,154.8z"/>
	</g>
	<g>
		<path d="M268.7,217.8c-1.7,0-3.3-0.4-4.8-1.1c-0.1,0-9.1-4.5-18.1-9.3c-10.1-5.3-15.2-8.2-18.3-10.8c-3.4-2.8-6.7-7.5-3.6-14
			c5.5-11.2,7.6-23.7,6.2-36.1c-1.9-17-10.4-32.8-23.7-44.3c-12.3-10.5-27.7-16.8-43.8-17.7l0.9,8.1c0.4,4-1.3,7.9-4.7,10.2
			c-1.8,1.2-3.8,1.8-5.9,1.8c-1.8,0-3.7-0.5-5.3-1.4L88.3,69.7c-3-1.7-5-4.8-5.4-8.2c-0.4-3.4,1-6.9,3.6-9.2L137,7.7
			c2-1.7,4.5-2.7,7.1-2.7c0.7,0,1.5,0.1,2.3,0.2c0.6,0.1,1.1,0.3,1.6,0.5c3.7,1.5,6.4,4.8,6.8,8.8l0.9,8c0.7,0,1.4,0,2.1,0
			c33.1,0,65.1,12,90.2,33.6c25.3,21.8,41.2,51.8,44.8,84.1c0.5,4.2,0.7,8.3,0.8,12.4v0.1l-0.1,3.2c-0.1,10.7-1.7,21.2-4.7,31.5
			c-2.6,8.7-6.2,17.1-10.7,25C276.1,215.7,272.6,217.8,268.7,217.8L268.7,217.8z M246.7,183.4c4.3,2.4,10.4,5.7,17.2,9.2
			c1.7-3.7,3-7.4,4.2-11.3c2.5-8.3,3.7-17,3.8-25.7l0.1-3c-0.1-3.1-0.3-6.6-0.7-10c-3.1-27.1-16.4-52.1-37.6-70.4
			C212.6,54,185.6,44,157.6,44c-3.6,0-7.1,0.2-10.7,0.5c-0.3,0-0.7,0.1-1,0.1c-0.7,0-1.5-0.1-2.2-0.2c-3.7-0.8-6.7-3.5-7.9-7.1
			L112,58.3L139.8,74c-0.1-2.5,0.8-5,2.4-7c1.8-2.2,4.5-3.6,7.4-3.9c2.9-0.2,5.8-0.4,8.7-0.4c22.8,0,44.9,8.2,62.2,23.2
			c17.4,15.1,28.4,35.7,30.9,58.1C252.9,157.4,251.3,170.8,246.7,183.4z"/>
		<path class="st0" d="M144,11.4c0.3,0,0.6,0.1,0.9,0.1c0.2,0.1,0.4,0.1,0.7,0.2c1.5,0.6,2.6,2,2.8,3.6l1.6,13.9
			c2.6-0.2,5.2-0.2,7.8-0.2c65,0,121.4,48.1,128.6,112c0.4,4,0.7,7.9,0.7,11.8l-0.1,3.1c-0.1,10.1-1.5,20.1-4.4,29.7
			c-2.5,8.2-5.8,16.1-10.2,23.5c-0.8,1.3-2.2,2.1-3.7,2.1c-0.7,0-1.3-0.1-1.9-0.4c-0.1-0.1-9.2-4.5-18-9.3
			c-18.3-9.7-21.3-11.7-19.1-16.2c6-12.3,8.3-26,6.8-39.7c-4.4-38.8-38.6-67.9-78.1-67.9c-1,0-2,0-2.9,0.1l1.7,15.3
			c0.2,1.6-0.6,3.2-1.9,4c-0.7,0.5-1.5,0.7-2.4,0.7c-0.7,0-1.5-0.2-2.1-0.6L91.5,64.1c-1.2-0.7-2-1.9-2.1-3.3
			c-0.1-1.4,0.4-2.8,1.4-3.7l50.5-44.6C142,11.8,143,11.4,144,11.4 M147.6,85.8l-1.3-11.5c-0.1-1.2,0.2-2.3,0.9-3.2
			c0.7-0.9,1.8-1.5,2.9-1.6c2.7-0.2,5.4-0.4,8.1-0.4c43.8,0,81.9,32.4,86.7,75.5c1.6,14.2-0.6,28.5-6.3,41.4
			c4.7,3,16.6,9.3,28.2,15.1c3.1-5.8,5.5-11.9,7.4-18.1c2.6-8.9,4-18.1,4-27.5l0.1-3c-0.1-3.4-0.3-7.1-0.7-10.7
			c-6.7-59.6-59.4-104.4-120.1-104.4c-3.7,0-7.5,0.2-11.2,0.5c-0.1,0-0.2,0-0.4,0c-0.3,0-0.6-0.1-0.9-0.1c-1.8-0.4-3.2-1.8-3.4-3.7
			l-1.1-9.8l-39.7,35.1L147.6,85.8 M144-1.5L144-1.5c-4.2,0-8.2,1.5-11.4,4.3L82.1,47.4c-4.2,3.7-6.3,9.1-5.7,14.7
			s3.8,10.4,8.6,13.2l59.2,33.4c2.6,1.5,5.5,2.2,8.4,2.2c3.4,0,6.7-1,9.5-2.9c5.4-3.6,8.3-9.8,7.6-16.2v-0.1
			c11.9,2.1,23.1,7.3,32.3,15.3c12.1,10.5,19.8,24.7,21.5,40.2c1.3,11.2-0.7,22.5-5.6,32.6c-1.8,3.7-5,13.3,5.3,21.8
			c3.6,2.9,8.6,5.8,19.4,11.5c9,4.8,18.2,9.4,18.3,9.4c2.3,1.2,5,1.8,7.7,1.8c6.1,0,11.8-3.3,14.8-8.6c4.8-8.3,8.6-17.2,11.3-26.4
			c3.2-10.8,4.8-22,5-33.2l0.1-3v-0.2v-0.2c-0.1-4.3-0.4-8.6-0.9-13c-3.8-34-20.5-65.4-47-88.3c-25.3-21.9-57.4-34.3-90.7-35.1
			l-0.2-2.3c-0.7-6.4-4.9-11.8-10.9-14.1c-0.8-0.3-1.7-0.6-2.6-0.7C146.5-1.3,145.3-1.5,144-1.5L144-1.5L144-1.5z M123,57.2
			l11.8-10.4c2.1,1.8,4.7,3.2,7.6,3.8c1.2,0.2,2.4,0.4,3.6,0.4c0.6,0,1,0,1.6-0.1c3.3-0.3,6.7-0.4,10.1-0.4l0,0
			c26.4,0,51.9,9.5,71.9,26.7c20,17.2,32.6,40.8,35.4,66.2c0.4,3.1,0.6,6.3,0.6,9.3l-0.1,2.8v0.1v0.1c-0.1,8.1-1.2,16.1-3.6,23.9
			c-0.4,1.3-0.9,2.8-1.3,4.1c-2.2-1.2-4.2-2.3-6.1-3.2c3.5-12,4.7-24.5,3.2-37c-2.7-24-14.5-46.1-33.1-62.2
			c-18.5-15.9-42-24.8-66.4-24.8c-3.1,0-6.2,0.1-9.3,0.4c-4.6,0.4-8.9,2.7-11.8,6.3c-0.4,0.5-0.8,1-1.1,1.5L123,57.2L123,57.2z"/>
	</g>
	<g>
		<path d="M148.4,208.4v-11.3h-0.3c-10.4,0-18.9-7.6-18.9-16.9v-14H147v13c0.2,0.1,0.6,0.2,1.1,0.2h15.4c0.5,0,0.9-0.1,1.1-0.2v-5.9
			c0-2.8-2.7-5.5-6.6-6.8l-7.6-2.5c-11.5-3.8-18.9-13.1-18.9-23.7v-8.3c0-8.8,7.4-16,17-16.9v-11.3h17.8v11.5
			c9.1,1.2,16.1,8.3,16.1,16.7v13.4h-17.8v-12.4c-0.2-0.1-0.6-0.2-1.1-0.2h-13.1c-0.5,0-0.9,0.1-1.1,0.2v7.2c0,2.8,2.7,5.5,6.6,6.8
			l7.6,2.5c11.5,3.8,18.9,13.1,18.9,23.7v7.1c0,8.5-7.1,15.6-16.1,16.7v11.5L148.4,208.4L148.4,208.4z"/>
		<path class="st0" d="M161.6,108.2v11.3h1.8c7.9,0,14.3,5.5,14.3,12.3v8.8h-8.6v-8.8c0-1.8-2.3-3.7-5.7-3.7h-13.1
			c-3.4,0-5.7,2-5.7,3.7v8.3c0,4.8,3.9,9.3,9.8,11.2l7.6,2.5c9.6,3.1,15.7,10.7,15.7,19.4v7.1c0,6.8-6.4,12.3-14.3,12.3h-1.8v11.3
			H153v-11.3h-4.9c-7.9,0-14.3-5.5-14.3-12.3v-9.4h8.6v9.4c0,1.8,2.3,3.7,5.7,3.7h15.4c3.4,0,5.7-2,5.7-3.7v-7.1
			c0-4.8-3.9-9.3-9.8-11.2l-7.6-2.5c-9.6-3.1-15.7-10.7-15.7-19.4v-8.2c0-6.8,6.4-12.3,14.3-12.3h2.6v-11.3H161.6 M170.8,99h-9.2
			H153h-9.2v9.2v2.9c-9.8,2.6-17,10.9-17,20.7v8.3c0,8.3,3.7,15.9,10.1,21.5h-3.2h-9.2v9.2v9.4c0,10.5,8.3,19.3,19.2,21.2v2.5v9.2
			h9.2h8.6h9.2v-9.2v-3.1c9.4-2.8,16.1-10.9,16.1-20.5v-7.1c0-9.3-4.7-17.7-12.4-23.3h3.2h9.2v-9.2v-8.8c0-9.5-6.8-17.6-16.1-20.5
			v-3.1L170.8,99L170.8,99z M153.8,137.3h6.1v3.4v2.8l-2.6-0.9c-2.5-0.9-3.4-2.1-3.5-2.5L153.8,137.3L153.8,137.3z M151.6,174.8v-4
			v-1.7l4.9,1.6c2.5,0.9,3.4,2.1,3.5,2.5v1.5L151.6,174.8L151.6,174.8z"/>
	</g>
</g>
</svg>
