<?xml version="1.0" encoding="utf-8"?>
<!-- Generator: Adobe Illustrator 27.8.1, SVG Export Plug-In . SVG Version: 6.00 Build 0)  -->
<svg version="1.1" id="分離模式" xmlns="http://www.w3.org/2000/svg" xmlns:xlink="http://www.w3.org/1999/xlink" x="0px"
	 y="0px" viewBox="0 0 493.1 515" style="enable-background:new 0 0 493.1 515;" xml:space="preserve">
<style type="text/css">
	.st0{fill:#FFFFFF;stroke:#000000;stroke-width:15.0007;stroke-miterlimit:10.0004;}
	.st1{fill:#FFFFFF;stroke:#000000;stroke-width:15;stroke-miterlimit:10;}
</style>
<rect x="31" y="141" transform="matrix(0.9798 -0.2002 0.2002 0.9798 -45.5311 54.8241)" class="st0" width="434.6" height="223.1"/>
<g>
	<g>
		<path class="st1" d="M279,132.8L88.5,171.3c0.3,1.2,0.7,2.4,0.9,3.7c8.3,41-18.2,80.9-59.2,89.2L44,331.7
			c41-8.3,80.9,18.2,89.2,59.2l274-55.4c-8.3-41,18.2-80.9,59.2-89.2c0.8-0.2,1.5-0.2,2.3-0.3L455,178.2c-0.8,0.2-1.5,0.4-2.2,0.6
			c-41,8.3-80.9-18.2-89.2-59.2c-0.3-1.3-0.4-2.5-0.6-3.8l-41.9,8.5L279,132.8z"/>
	</g>
</g>
<g>
	<g>
		<g>
			<path d="M269.2,314.2l-22.9,4.7c-11.8,2.4-23-3.9-25.1-14l-2.9-14.1l12.8-2.6l2.9,14.1c0.5,2.6,4.6,4.8,9.6,3.8l22.9-4.7
				c5-1,7.9-4.7,7.3-7.3l-2.1-10.5c-1.5-7.2-8.5-12.6-18-13.7l-12.1-1.4c-15.2-1.8-26.7-11.2-29.3-24.1l-2.5-12.3
				c-2.1-10.1,5.8-20.3,17.6-22.7l19.5-4c11.8-2.4,23,3.9,25.1,14l2.7,13.2l-12.8,2.6l-2.7-13.2c-0.5-2.6-4.6-4.8-9.6-3.8l-19.5,4
				c-5,1-7.9,4.7-7.3,7.3l2.5,12.3c1.5,7.2,8.5,12.6,18,13.7l12.1,1.4c15.2,1.8,26.7,11.2,29.3,24.1l2.1,10.5
				C288.8,301.6,280.9,311.8,269.2,314.2z"/>
		</g>
		<g>
			<rect x="230.2" y="190.2" transform="matrix(0.9798 -0.2002 0.2002 0.9798 -35.6554 51.4877)" width="13.1" height="23.7"/>
		</g>
		<g>
			<rect x="254.5" y="309.4" transform="matrix(0.9798 -0.2002 0.2002 0.9798 -59.0298 58.7657)" width="13.1" height="23.7"/>
		</g>
	</g>
</g>
</svg>
