<svg enable-background="new 0 0 507.8 506.2" viewBox="0 0 507.8 506.2" xmlns="http://www.w3.org/2000/svg"><path d="m53.3 15.7-24.9 26c-16.8 17.8.6 61.6 38.9 97.9s83 51.4 99.9 33.6z" fill="#fff"/><path d="m146.8 188.8c-7.2 0-15.3-1.5-24.1-4.4-20-6.7-41.6-20.5-61-38.9-42.9-40.7-59.8-87.7-39.2-109.4l25-26c3.1-3.2 8.2-3.3 11.5-.2 3.2 3.1 3.3 8.3.2 11.5l-25 26c-11.7 12.4 1.2 50.9 38.7 86.4 17.7 16.8 37.2 29.3 55 35.3 15.5 5.2 27.6 4.7 33.4-1.4 3.1-3.3 8.2-3.4 11.5-.3s3.4 8.2.3 11.5c-6.3 6.6-15.3 9.9-26.3 9.9z"/><ellipse cx="122.7" cy="81.5" fill="#fff" rx="44.3" ry="95.6" transform="matrix(.6879 -.7258 .7258 .6879 -20.8462 114.5175)"/><path d="m171.8 162.9c-7.2 0-15.4-1.5-24.1-4.4-20-6.7-41.6-20.5-61-38.9s-34.3-39.3-42.1-58.8c-8.6-21.7-7.6-39.7 2.8-50.7 10.4-11 28.3-13 50.4-5.6 20 6.7 41.6 20.5 61 38.9s34.3 39.3 42.1 58.8c8.6 21.6 7.6 39.6-2.9 50.6-6.2 6.7-15.2 10.1-26.2 10.1zm-98.1-146.5c-6.4 0-11.4 1.7-14.5 4.9-5.7 6.1-5.6 18.2.4 33.4 6.9 17.4 20.5 36.3 38.2 53 17.7 16.8 37.2 29.3 55 35.3 15.5 5.2 27.6 4.7 33.4-1.4 5.7-6.1 5.6-18.2-.4-33.4-6.9-17.4-20.5-36.3-38.2-53-17.7-16.8-37.2-29.3-55-35.3-7.1-2.3-13.5-3.5-18.9-3.5z"/><path d="m282.7 439.7-22.2 35.3-.1-.1c-23.6 33.3-95.5 26.8-162.5-15.1-67.1-42-104.3-103.8-84.7-139.5z" fill="#fff"/><path d="m207.5 504.2c-33.2 0-74.4-12.7-113.9-37.4-71-44.4-109.4-110.4-87.5-150.3 2.2-3.9 7.1-5.4 11-3.2s5.4 7.1 3.2 11c-17.4 31.8 19.4 89.5 81.9 128.7 62.6 39.2 130.6 46.9 151.6 17.3.2-.2.3-.5.5-.7l21.4-34.2c2.4-3.8 7.4-5 11.2-2.6s5 7.4 2.6 11.2l-22.1 35.3c-.3.6-.7 1.1-1.2 1.5-11.8 15.7-32.9 23.4-58.7 23.4z"/><ellipse cx="163.3" cy="355.4" fill="#fff" rx="83.8" ry="145.9" transform="matrix(.5304 -.8478 .8478 .5304 -224.5747 305.3366)"/><path d="m224.3 468.8c-32.9 0-72.1-11.9-109.8-35.5-34.2-21.4-61.7-49.3-77.3-78.6-16.4-30.7-18-59.5-4.5-81 13.5-21.6 40-32.8 74.9-31.4 33.2 1.2 70.3 13.7 104.5 35.1s61.7 49.3 77.3 78.6c16.4 30.7 18 59.5 4.5 81-13.3 21.3-38.6 31.8-69.6 31.8zm-122.2-210.4c-26.3 0-46 8.4-55.6 23.9-10.3 16.4-8.5 39.4 5.1 64.8 14.3 26.8 39.7 52.5 71.6 72.5 63.3 39.6 135.2 43.7 156.9 8.9 10.3-16.4 8.5-39.4-5.1-64.8-14.3-26.8-39.7-52.5-71.6-72.5-31.9-19.9-66.1-31.5-96.5-32.7-1.6 0-3.2-.1-4.8-.1z"/><ellipse cx="163.3" cy="355.4" fill="#fff" rx="83.8" ry="145.9" transform="matrix(.5304 -.8478 .8478 .5304 -224.5747 305.3366)"/><path d="m224.3 468.8c-32.9 0-72.1-11.9-109.8-35.5-34.2-21.4-61.7-49.3-77.3-78.6-16.4-30.7-18-59.5-4.5-81 13.5-21.6 40-32.8 74.9-31.4 33.2 1.2 70.3 13.7 104.5 35.1s61.7 49.3 77.3 78.6c16.4 30.7 18 59.5 4.5 81-13.3 21.3-38.6 31.8-69.6 31.8zm-122.2-210.4c-26.3 0-46 8.4-55.6 23.9-10.3 16.4-8.5 39.4 5.1 64.8 14.3 26.8 39.7 52.5 71.6 72.5 63.3 39.6 135.2 43.7 156.9 8.9 10.3-16.4 8.5-39.4-5.1-64.8-14.3-26.8-39.7-52.5-71.6-72.5-31.9-19.9-66.1-31.5-96.5-32.7-1.6 0-3.2-.1-4.8-.1z"/><path d="m63.9 293.2c-10.4 16.7-1.4 39 4.9 50.8 12.4 23.2 34.5 45.5 62.3 62.9s57.6 27.5 83.8 28.5c13.4.5 37.4-1.1 47.8-17.8s1.4-39-4.9-50.8c0 0-8.2-14.5-15.1-22.2-12.8-14.6-28.5-28.9-47.2-40.7z" fill="#fff"/><path d="m218.8 443.6c-1.5 0-2.9 0-4.2-.1-27.6-1-58.8-11.6-87.8-29.7s-52.1-41.6-65.2-66c-7.1-13.4-17.2-38.8-4.6-58.9 2.4-3.8 7.4-5 11.2-2.6s5 7.4 2.6 11.2c-8.6 13.7.8 34.4 5.2 42.7 11.7 21.9 32.8 43.2 59.4 59.8 26.6 16.7 55 26.3 79.8 27.3 9.3.3 32.1-.3 40.6-14 8.3-13.2.3-32.4-5.2-42.7s-7.8-13.7-14-20.7c-13.9-15.8-29.2-29-45.4-39.1-3.8-2.4-5-7.4-2.6-11.2s7.4-5 11.2-2.6c17.6 11 34.1 25.2 49 42.2 7.3 8.3 15.7 23 16 23.6 7.2 13.6 17.3 39 4.7 59.1-11.4 18.4-35.2 21.7-50.7 21.7z"/><path d="m279.9 397.3c-38.3 3.3-69.6-7.6-88.2-30.8l-.6-.7-31.2-43.5c-20.5-28.8-21.5-68.7-2.8-109.6 16.3-35.6 46.2-70.2 84.3-97.3 38.9-27.8 82.1-44.9 121.7-48.3 34.3-2.9 57.2 2.5 84.3 21.4s50.7 39.9 58.4 90.9-30.4 117.4-99.7 166.9c-41.3 29.4-86.1 47.6-126.2 51z" fill="#fff"/><path d="m442.1 131.4 25.6 35.8-.1.1c23 36.4-12.3 104-80.3 152.5s-143.3 59.9-170.3 26.4l-30.7-42.8z" fill="#fff"/><path d="m266.7 373.4c-24.2 0-44.1-7.2-56.1-22.1-.1-.1-.2-.2-.3-.4l-30.7-42.8c-2.6-3.6-1.8-8.7 1.9-11.3s8.7-1.8 11.3 1.9l30.6 42.6c24.3 29.8 95.6 17.3 159.1-28.1 63.6-45.4 98.7-108.9 78.1-141.5-.2-.3-.3-.5-.4-.8l-24.8-34.7c-2.6-3.7-1.8-8.7 1.9-11.3s8.7-1.8 11.3 1.9l25.6 35.8c.4.5.7 1.1.9 1.7 24 40.7-12.2 111.5-83.2 162.2-42.9 30.6-88.9 46.9-125.2 46.9z"/><ellipse cx="311.7" cy="213.9" fill="#fff" rx="154" ry="88.5" transform="matrix(.8139 -.5811 .5811 .8139 -66.2616 220.9082)"/><path d="m246.3 337.2c-28.8 0-52.7-9.5-66.6-29-31.5-44.1 1.8-120 75.8-172.9 74-52.8 156.6-59.7 188.1-15.6s-1.8 120-75.8 172.9c-41.3 29.4-85.2 44.6-121.5 44.6zm-53.4-38.5c25.3 35.5 101.1 26.6 165.5-19.4s97.4-114.7 72.1-150.2-101.1-26.6-165.5 19.4c-64.4 45.9-97.4 114.7-72.1 150.2z" fill="#494e5b"/><path d="m285.4 325.1 22 30.8z"/><path d="m288.3 321.5h16.3v37.9h-16.3z" transform="matrix(.8139 -.581 .581 .8139 -142.652 235.5999)"/><path d="m413.9 242.9 22.3 31.3z"/><path d="m416.9 239.3h16.3v38.5h-16.3z" transform="matrix(.8139 -.581 .581 .8139 -71.1356 295.068)"/><path d="m436.3 207.7 23.1 32.3z"/><path d="m439.7 204h16.3v39.7h-16.3z" transform="matrix(.8138 -.5811 .5811 .8138 -46.7099 301.8784)"/><path d="m242.6 328.7 24.6 34.5z"/><path d="m246.7 324.8h16.3v42.4h-16.3z" transform="matrix(.8139 -.581 .581 .8139 -153.581 212.4776)"/><path d="m355.3 292.8 24.6 34.5z"/><path d="m359.5 288.9h16.3v42.4h-16.3z" transform="matrix(.8139 -.581 .581 .8139 -111.7441 271.3076)"/><path d="m321.4 310.2 24.6 34.5z"/><path d="m325.6 306.3h16.3v42.4h-16.3z" transform="matrix(.8138 -.5811 .5811 .8138 -128.1554 254.9045)"/><path d="m385.1 269.3 24.6 34.5z"/><path d="m389.3 265.3h16.3v42.4h-16.3z" transform="matrix(.8139 -.581 .581 .8139 -92.5182 284.2419)"/><ellipse cx="311.7" cy="213.9" fill="#fff" rx="154" ry="88.5" transform="matrix(.8139 -.5811 .5811 .8139 -66.2616 220.9082)"/><path d="m246.3 337.2c-28.8 0-52.7-9.5-66.6-29-31.5-44.1 1.8-120 75.8-172.9 74-52.8 156.6-59.7 188.1-15.6s-1.8 120-75.8 172.9c-41.3 29.4-85.2 44.6-121.5 44.6zm-53.4-38.5c25.3 35.5 101.1 26.6 165.5-19.4s97.4-114.7 72.1-150.2-101.1-26.6-165.5 19.4c-64.4 45.9-97.4 114.7-72.1 150.2z"/><path d="m210.9 285.8c12.1 16.9 37.5 17.1 51.6 15.7 27.6-2.7 58.3-15.3 86.5-35.4s50.1-45.1 61.6-70.3c5.9-12.9 14-37 1.9-53.9s-37.5-17.1-51.6-15.7c0 0-17.4 2.2-27.8 5.7-19.4 6.6-39.7 16.1-58.7 29.7-28.2 20.1-50.1 45.1-61.6 70.3z" fill="#fff"/><path d="m252.1 310.2c-15.9 0-36.3-3.6-47.8-19.6-2.6-3.7-1.8-8.7 1.9-11.3s8.7-1.8 11.3 1.9c9.7 13.6 31.8 13.6 44.1 12.3 26.2-2.6 55.5-14.7 82.6-34 27-19.3 48-43.1 58.9-67.1 5.2-11.3 12.4-32.2 2.7-45.8s-31.8-13.6-44.1-12.3-16.5 2.1-25.9 5.3c-21.1 7.2-40.1 16.8-56.6 28.6-27 19.3-48 43.1-58.9 67.1-1.9 4.1-6.7 5.9-10.8 4s-5.9-6.7-4-10.8c12.1-26.5 34.9-52.6 64.3-73.5 17.8-12.7 38.2-23.1 60.8-30.8 11-3.8 28.6-6 29.4-6.1 16.1-1.6 44.7-1.2 59.2 19 14.4 20.2 5.5 47.5-1.1 62-12.1 26.5-34.9 52.6-64.3 73.5-29.3 20.9-61.4 34-90.4 36.9-3.4.4-7.2.7-11.3.7z"/></svg>