<?xml version="1.0" encoding="utf-8"?>
<!-- Generator: Adobe Illustrator 27.8.1, SVG Export Plug-In . SVG Version: 6.00 Build 0)  -->
<svg version="1.1" id="C_xF880__x5B__x5F_1" xmlns="http://www.w3.org/2000/svg" xmlns:xlink="http://www.w3.org/1999/xlink"
	 x="0px" y="0px" viewBox="0 0 167.8 174.4" style="enable-background:new 0 0 167.8 174.4;" xml:space="preserve">
<style type="text/css">
	.st0{fill:#FFFFFF;}
</style>
<path class="st0" d="M83.6,58.7L83.6,58.7c-7.4,3.9-16.6,0.9-20.4-6.5L54,34.6c-3.9-7.4-1-16.6,6.5-20.4l0,0
	c7.4-3.9,16.6-1,20.4,6.5L90,38.2C93.9,45.6,91.1,54.8,83.6,58.7z"/>
<path class="st0" d="M95.6,65.8L95.6,65.8c-6.6-2.6-9.7-10-7.2-16.5l9.1-23c2.6-6.6,10-9.7,16.5-7.2l0,0c6.6,2.6,9.7,10,7.2,16.5
	l-9.1,23C109.6,65.2,102.2,68.4,95.6,65.8z"/>
<path class="st0" d="M147.9,162.4H22.7c-4.7,0-8.4-3.7-8.4-8.4V56.2c0-4.7,3.7-8.4,8.4-8.4h125.2c4.7,0,8.4,3.7,8.4,8.4V154
	C156.3,158.6,152.5,162.4,147.9,162.4z"/>
<g>
	<path d="M147.2,46.4h-42.5l9.5-10.5c2.8-3.2,4.1-7.5,3.4-11.8s-3.2-8-7-10.2c-2.2-1.3-4.7-1.9-7.2-1.9c-6.2,0-11.7,4-13.6,9.9
		l-7.1,21.7l-7.1-21.7c-1.9-6-7.4-9.9-13.6-9.9c-2.5,0-4.9,0.7-7.2,1.9c-3.8,2.2-6.3,5.9-7,10.2c-0.7,4.3,0.6,8.6,3.5,11.8l9.4,10.5
		H18.4c-3.8,0-6.9,3.1-6.9,6.9v17.6c0,3.6,2.8,6.6,6.5,6.8v69.7c0,3.8,3.1,6.9,6.9,6.9h115.9c3.8,0,6.9-3.1,6.9-6.9V77.6
		c3.6-0.3,6.5-3.2,6.5-6.8V53.3C154.1,49.5,151,46.4,147.2,46.4z M95.7,23.8c1.1-3.4,4.2-5.7,7.8-5.7c1.4,0,2.8,0.3,4.1,1.1
		c2.2,1.2,3.6,3.4,4,5.8s-0.3,4.9-2,6.7L96.4,46.4h-8.1L95.7,23.8z M56,31.8c-1.6-1.8-2.4-4.3-2-6.7c0.3-2.4,1.8-4.6,4-5.8
		c1.3-0.7,2.7-1.1,4.1-1.1c3.5,0,6.6,2.2,7.8,5.7l7.3,22.6h-8.1L56,31.8z M69.6,148.1H24.8c-0.3,0-0.7-0.3-0.7-0.7V77.7h45.4V148.1z
		 M69.6,71.5H18.4c-0.3,0-0.7-0.3-0.7-0.7V53.3c0-0.3,0.3-0.7,0.7-0.7h51.2L69.6,71.5L69.6,71.5z M89.7,148.1H75.8V52.6h13.9V148.1z
		 M141.4,147.4c0,0.3-0.3,0.7-0.7,0.7H95.8V77.7h45.6V147.4z M147.9,70.8c0,0.3-0.3,0.7-0.7,0.7H95.8v-19h51.4
		c0.3,0,0.7,0.3,0.7,0.7L147.9,70.8L147.9,70.8z"/>
</g>
</svg>
